<svg xmlns="http://www.w3.org/2000/svg" xmlns:xlink="http://www.w3.org/1999/xlink" width="823.584" height="432.102" viewBox="0 0 823.584 432.102">
  <defs>
    <linearGradient id="linear-gradient" x1="0.5" y1="1" x2="0.5" y2="-0.001" gradientUnits="objectBoundingBox">
      <stop offset="0" stop-color="gray" stop-opacity="0.251"/>
      <stop offset="0.54" stop-color="gray" stop-opacity="0.122"/>
      <stop offset="1" stop-color="gray" stop-opacity="0.102"/>
    </linearGradient>
  </defs>
  <g id="Group_5" data-name="Group 5" transform="translate(-563.945 -1312.039)">
    <path id="Path_21" data-name="Path 21" d="M240.911,260l-17.6,140.577-2.706-.07a3.353,3.353,0,0,1-3.244-3.8l19.985-133.871A3.353,3.353,0,0,1,240.911,260Z" transform="translate(371.481 1119.924)" opacity="0.1"/>
    <path id="Path_24" data-name="Path 24" d="M264.309,481.32V622.614h-.039a3.119,3.119,0,0,1-3.08-3.08V484.4a3.119,3.119,0,0,1,3.08-3.08Z" transform="translate(361.822 1071.18)" opacity="0.1"/>
    <g id="Group_4" data-name="Group 4">
      <path id="Path_2" data-name="Path 2" d="M839.812,514.62q-1.376,2.924-2.745,5.77-2.136,4.421-4.216,8.671c-.617,1.255-1.234,2.487-1.835,3.719-6.8,13.7-13.153,25.818-18.548,35.784A58.016,58.016,0,0,1,762,598.742l-119.946,1.287h-1.265l-10.282.109-8.8.094-26.971.289h-1.091l-13.731.148H579.5l-84.63.9-75.542.78-8.787.094-54.575.585H355.9l-35.394.374h-.38L208.21,604.6l-33.48.359a70.582,70.582,0,0,1-21.094-2.979,68.46,68.46,0,0,1-30.918-19.3,155.434,155.434,0,0,1-31.9-53.617q-1.527-4.281-2.847-8.671C63.6,439.178,93.31,334.4,146.778,264.283q3.361-4.4,6.834-8.577l.055-.062c16.444-19.9,34.88-36.524,54.519-48.346,34.8-20.984,73.359-26.894,111.285-9.279,32.088,14.909,62.049,21.919,91.092,23.822,2.934.187,5.869.327,8.787.413,66.621,2.066,129.057-21.6,202.377-36.875,2.919-.608,5.845-1.209,8.8-1.778,52.3-10.262,110.328-15.673,179.329-4.3a151.36,151.36,0,0,1,21.166,4.99q4.564,1.45,8.8,3.119c32.935,13.209,50.9,37.616,58.529,68.2q1.084,4.257,1.875,8.663C913.749,337.839,874.115,442.188,839.812,514.62Z" transform="translate(484.594 1139.094)" fill="#8fb2d1" opacity="0.1"/>
      <g id="Group_2" data-name="Group 2" transform="translate(572.443 1322.671)" opacity="0.1">
        <path id="Path_3" data-name="Path 3" d="M227.044,217V614.386l-33.008.359a68.674,68.674,0,0,1-20.8-2.979V265.346h.055C189.506,245.423,207.682,228.8,227.044,217Z" transform="translate(-108.527 -193.279)" fill="#8fb2d1"/>
        <path id="Path_4" data-name="Path 4" d="M919.068,287.64H164.6q3.366-4.4,6.843-8.577V279H917.191Q918.276,283.234,919.068,287.64Z" transform="translate(-106.624 -206.934)" fill="#8fb2d1"/>
        <path id="Path_5" data-name="Path 5" d="M1038.371,190.62V523.582h-2.706q-2.105,4.421-4.156,8.671c-.608,1.255-1.216,2.487-1.809,3.72V187.47Q1034.2,188.92,1038.371,190.62Z" transform="translate(-285.517 -186.776)" fill="#8fb2d1"/>
        <path id="Path_6" data-name="Path 6" d="M773.761,186.58V603.172l-8.671.094V188.358C767.967,187.75,770.852,187.149,773.761,186.58Z" transform="translate(-231.146 -186.58)" fill="#8fb2d1"/>
        <path id="Path_7" data-name="Path 7" d="M506.773,236.033v380.2l-8.663.094V235.62C501,235.807,503.9,235.916,506.773,236.033Z" transform="translate(-175.405 -197.38)" fill="#8fb2d1"/>
        <path id="Path_8" data-name="Path 8" d="M840.4,618.52q-2.139,4.421-4.222,8.671H93.1q-1.529-4.281-2.851-8.671Z" transform="translate(-90.25 -281.706)" fill="#8fb2d1"/>
      </g>
      <rect id="Rectangle_3" data-name="Rectangle 3" width="14.816" height="44.962" transform="translate(712.303 1519.298)" fill="#3f3d56"/>
      <rect id="Rectangle_4" data-name="Rectangle 4" width="14.816" height="47.566" transform="translate(1239.523 1516.958)" fill="#3f3d56"/>
      <path id="Path_9" data-name="Path 9" d="M696.385,527.373V537.51L577.923,538.6l-1.263.023-45.024.413-1.076.016-13.685.117h-.405l-83.42.772-136.935,1.271H296l-34.817.327-.374.008L106.1,542.969v-11.7l36.376-21.834,72.986-.608,1.56-.008.515-.008,1.56-.023,35.043-.289,1.567-.008.5-.008,1.56-.008L269,508.386l.3-.008,27.721-.234h.226l216.308-1.825,5.295-.039h.53l4.039-.039L552.775,506l1.56-.023,1.443-.016h.749l9.131-.07,1.809-.023,2.425-.016,7.6-.07,12.063-.1,1.56-.016,2.714-.016h.507l58.257-.5Z" transform="translate(457.845 1200.762)" fill="#65617d"/>
      <path id="Path_10" data-name="Path 10" d="M696.385,527.373V537.51L577.923,538.6l-1.263.023-45.024.413-1.076.016-13.685.117h-.405l-83.42.772-136.935,1.271H296l-34.817.327-.374.008L106.1,542.969v-11.7l36.376-21.834,72.986-.608,1.56-.008.515-.008,1.56-.023,35.043-.289,1.567-.008.5-.008,1.56-.008L269,508.386l.3-.008,27.721-.234h.226l216.308-1.825,5.295-.039h.53l4.039-.039L552.775,506l1.56-.023,1.443-.016h.749l9.131-.07,1.809-.023,2.425-.016,7.6-.07,12.063-.1,1.56-.016,2.714-.016h.507l58.257-.5Z" transform="translate(457.845 1200.762)" opacity="0.2"/>
      <path id="Path_11" data-name="Path 11" d="M365.052,656.57v19.1a4.78,4.78,0,0,1-2.729,4.32,4.678,4.678,0,0,1-1.949.468l-27.214.577a4.679,4.679,0,0,1-2.105-.444,4.772,4.772,0,0,1-2.784-4.343V656.57Z" transform="translate(419.703 1032.585)" fill="#3f3d56"/>
      <path id="Path_12" data-name="Path 12" d="M365.052,656.57v19.1a4.78,4.78,0,0,1-2.729,4.32,4.678,4.678,0,0,1-1.949.468l-27.214.577a4.679,4.679,0,0,1-2.105-.444,4.772,4.772,0,0,1-2.784-4.343V656.57Z" transform="translate(419.703 1032.585)" opacity="0.1"/>
      <path id="Path_13" data-name="Path 13" d="M367.052,656.57v19.1a4.78,4.78,0,0,1-2.729,4.32,4.678,4.678,0,0,1-1.949.468l-27.214.577a4.679,4.679,0,0,1-2.105-.444,4.772,4.772,0,0,1-2.784-4.343V656.57Z" transform="translate(419.821 1032.585)" fill="#3f3d56"/>
      <rect id="Rectangle_5" data-name="Rectangle 5" width="36.782" height="24.563" transform="translate(1199.681 1689.155)" fill="#3f3d56"/>
      <rect id="Rectangle_6" data-name="Rectangle 6" width="36.782" height="24.563" transform="translate(1199.681 1689.155)" opacity="0.1"/>
      <rect id="Rectangle_7" data-name="Rectangle 7" width="36.782" height="24.563" transform="translate(1197.479 1689.155)" fill="#3f3d56"/>
      <path id="Path_14" data-name="Path 14" d="M226.416,265.82v4.468l-14.816-.382V265.82Z" transform="translate(500.703 1253.47)" opacity="0.1"/>
      <path id="Path_15" data-name="Path 15" d="M387.063,273.5l-17.8,127.882a3.353,3.353,0,0,1-3.408,2.893l-142.542-3.7-2.706-.07a3.353,3.353,0,0,1-3.244-3.8l19.985-133.871a3.353,3.353,0,0,1,3.54-2.831l143.056,9.685a3.345,3.345,0,0,1,3.119,3.805Z" transform="translate(371.481 1119.922)" fill="#65617d"/>
      <path id="Path_16" data-name="Path 16" d="M171.673,99.16l-15.073,118,131,4.156,16.11-113.846Z" transform="translate(505.369 1290.173)" fill="#8fb2d1"/>
      <rect id="Rectangle_8" data-name="Rectangle 8" width="159.595" height="135.157" rx="5.33" transform="translate(896.683 1387.509)" fill="#65617d"/>
      <rect id="Rectangle_9" data-name="Rectangle 9" width="145.037" height="112.544" transform="translate(904.618 1396.609)" fill="#8fb2d1"/>
      <path id="Path_17" data-name="Path 17" d="M737.746,262.82v2.955l-14.816.3V262.82Z" transform="translate(516.593 1254.13)" opacity="0.1"/>
      <path id="Path_18" data-name="Path 18" d="M860.876,393.85a2.4,2.4,0,0,1-2.339,2.558l-145.973,3.018a2.4,2.4,0,0,1-2.441-2.176L697.577,266.81a2.4,2.4,0,0,1,2.277-2.628l144.866-7.205,1.56-.078a2.394,2.394,0,0,1,2.511,2.183Z" transform="translate(471.817 1120.605)" fill="#65617d"/>
      <path id="Path_19" data-name="Path 19" d="M628.93,101.323l132.3-6.5,11.174,118.525-131.259,3.119Z" transform="translate(545.744 1291.129)" fill="#8fb2d1"/>
      <path id="Path_20" data-name="Path 20" d="M902.437,393.85a2.4,2.4,0,0,1-2.339,2.558L886.28,256.977l1.56-.078a2.394,2.394,0,0,1,2.511,2.183Z" transform="translate(445.42 1120.605)" opacity="0.1"/>
      <rect id="Rectangle_10" data-name="Rectangle 10" width="14.816" height="13.318" transform="translate(712.303 1550.941)" opacity="0.1"/>
      <path id="Path_22" data-name="Path 22" d="M287.712,483.65v3.875l-36.782.983V483.65Z" transform="translate(499.161 1205.497)" opacity="0.1"/>
      <path id="Path_23" data-name="Path 23" d="M416.754,484.4V615.557a3.119,3.119,0,0,1-3,3.08l-149.443,3.977h-.039a3.119,3.119,0,0,1-3.08-3.08V484.4a3.119,3.119,0,0,1,3.08-3.08h149.4a3.119,3.119,0,0,1,3.08,3.08Z" transform="translate(430.801 1071.18)" fill="#65617d"/>
      <path id="Path_25" data-name="Path 25" d="M194.6,319.15H333.009v115.6L194.6,437.87Z" transform="translate(504.148 1241.725)" fill="#d4dfec"/>
      <rect id="Rectangle_11" data-name="Rectangle 11" width="14.816" height="13.584" transform="translate(1239.523 1550.941)" opacity="0.1"/>
      <path id="Path_26" data-name="Path 26" d="M715.712,483.65v5l-36.782-.983V483.65Z" transform="translate(518.549 1205.497)" opacity="0.1"/>
      <path id="Path_27" data-name="Path 27" d="M823.745,484.4V619.534a3.119,3.119,0,0,1-3.119,3.08h0l-149.474-3.977a3.119,3.119,0,0,1-3-3.08V484.4a3.119,3.119,0,0,1,3.08-3.08h149.4a3.119,3.119,0,0,1,3.111,3.08Z" transform="translate(464.344 1071.18)" fill="#65617d"/>
      <path id="Path_28" data-name="Path 28" d="M866.809,484.4V619.534a3.119,3.119,0,0,1-3.119,3.08h0V481.32h0a3.119,3.119,0,0,1,3.119,3.08Z" transform="translate(439.369 1071.18)" opacity="0.1"/>
      <path id="Path_29" data-name="Path 29" d="M736.509,319.15H598.1v115.6l138.409,3.119Z" transform="translate(539.373 1241.725)" fill="#d4dfec"/>
      <path id="Path_30" data-name="Path 30" d="M619.254,484.4V615.557a3.119,3.119,0,0,1-3,3.08l-149.443,3.977h0a3.119,3.119,0,0,1-3.119-3.08V484.4a3.119,3.119,0,0,1,3.08-3.08h149.4A3.119,3.119,0,0,1,619.254,484.4Z" transform="translate(431.802 1071.18)" fill="#65617d"/>
      <path id="Path_31" data-name="Path 31" d="M397.1,319.15H535.509v115.6L397.1,437.87Z" transform="translate(509.334 1241.725)" fill="#d4dfec"/>
      <path id="Path_32" data-name="Path 32" d="M696.385,533.65v10.137l-118.463,1.092-1.263.023-45.024.413-1.076.016-13.685.117h-.405l-83.42.772-136.935,1.271H296l-34.817.328-.374.008L106.1,549.245v-11.7l157.911-1.037h.374l31.963-.218h.148l220.737-1.458h.226l.133-.008h.367l3.735-.023h1.138l58.085-.39,3.431-.016.764-.008Z" transform="translate(457.845 1194.485)" opacity="0.1"/>
      <circle id="Ellipse_1" data-name="Ellipse 1" cx="40.026" cy="40.026" r="40.026" transform="translate(938.218 1484.208)" fill="#fbbebe"/>
      <path id="Path_33" data-name="Path 33" d="M383.74,642.04a.968.968,0,0,1,.078-.273c.78-2.8,2.168-7.533,3.2-11.314.133-.468.257-.928.374-1.365,1.146-4.265,3.376-14.254,4.616-20.485.437-2.191.78-3.9.85-4.757.156-1.318,2.5-6.956,5.162-13.435,1.864-4.554,3.9-9.529,5.388-13.724a47.856,47.856,0,0,0,2.285-7.681,3.976,3.976,0,0,0,0-1.661,11.454,11.454,0,0,1-.374-2.729h0c-.179-4.835,1.263-12.476,3.493-15.681,2.729-3.9,4.679-18.449,4.679-18.449s4.039.585,4.679-2.753a4.8,4.8,0,0,0,.078-1.092,5.782,5.782,0,0,0-.07-.866c-.694-4.866,11.478-10.043,18.325-11.158a15.321,15.321,0,0,1,2.339-.218,21.243,21.243,0,0,0,4.874-1.123q1.092-.335,2.339-.78c2.87-.967,6.3-2.246,9.942-3.649,13.693-5.31,30.271-12.476,30.271-12.476.117-.554.25-1.084.4-1.606A21.608,21.608,0,0,1,499.419,480h0v-1.56c0-2.69-.117-5.458-.234-8.219,0-.538-.047-1.076-.078-1.614v-.881c0-.546-.055-1.092-.086-1.63l-.14-.109a12.8,12.8,0,0,1-3.041-3.275,11.9,11.9,0,0,1-1.107-2.339c-.975-2.643-1.2-5.591-1.856-8.383l-.14-.577a65.5,65.5,0,0,0-3.119-8.25c-1.723-4.226-3.049-8.577-4.367-12.983q-1.2-4-2.425-8.016l-1.232-4.086c-.234-.78-.468-1.56-.647-2.339h0a10.35,10.35,0,0,1-.2-1.092h0a7.8,7.8,0,0,1,.187-3.595,25.031,25.031,0,0,1,1.029-2.339,6.138,6.138,0,0,0,.39-1.076h0a2.345,2.345,0,0,0,.062-.25,4.4,4.4,0,0,0,.086-.842,14.4,14.4,0,0,0-.405-3.033.054.054,0,0,1,0-.039,1.994,1.994,0,0,0-.039-.211,19.872,19.872,0,0,1-.281-2.339,22.185,22.185,0,0,1,2.706-12.141l.148-.281a19.658,19.658,0,0,1,1.435-2.168h0a10.945,10.945,0,0,1,.78-.951c-1.092,1.045-2.885.585-3.9-.538a2.815,2.815,0,0,1-.429-.585,2.971,2.971,0,0,1-.179-.351c-.039-.094-.07-.195-.1-.3-.546-1.91.405-3.946,1.653-5.5a14.417,14.417,0,0,1,4.476-3.665h0a3.016,3.016,0,0,1,.312-.164,13.348,13.348,0,0,1,2.059-.827h0a11.741,11.741,0,0,1,1.271-.343l-2.893-.265-1.17-.109a11.3,11.3,0,0,1,10.137-8.507h.842a9.146,9.146,0,0,1,1.224.1,3.462,3.462,0,0,1-2.066-3.376,11.236,11.236,0,0,0,7.166,2.386h.3a23.4,23.4,0,0,1-.265-2.55h0a25.867,25.867,0,0,1,0-3.478,6.581,6.581,0,0,0,5.287,1.762l-1.622-2.261a7.4,7.4,0,0,0,5.115,1.6l.374-.039a5.457,5.457,0,0,0,.928-.179h.07c-.148-.187-.281-.382-.413-.585l-.047-.094a7.541,7.541,0,0,1-.78-1.63,5.129,5.129,0,0,1-.187-.678h0a6.823,6.823,0,0,1,.351-4.25c2.519,2.105,5.279,4.983,8.577,2.807s3.408-6.168,8.577-5.763a7.954,7.954,0,0,1,6.558,4.772,5.263,5.263,0,0,1,5.981-1.365,5.341,5.341,0,0,1,3.026,5.373c2.144-.538,4.453-1.068,6.511-.257s3.384,3.439,2.215,5.193a1.11,1.11,0,0,1-.109.156c-.959,1.24-3.08,1.918-2.854,3.478l.328.234,1.014.733q5.965,4.3,11.619,9.045c1.934,1.622,3.992,3.571,4.125,6.106a6.737,6.737,0,0,1-.187,1.848h0c-.125.608-.3,1.216-.429,1.825a15.213,15.213,0,0,0-.265,4.718h0c.055.46.125.912.211,1.372,1.193,6.028,6.012,11,6.488,17.155v.437a13.861,13.861,0,0,1-.055,1.973c-.359,3.743-2.09,7.338-3.493,10.917-.086.218-.172.437-.25.655a108.629,108.629,0,0,0-5.458,21.958,78.17,78.17,0,0,1-1.56,7.868,20.844,20.844,0,0,1-3.969,8.133,12.646,12.646,0,0,1-2.62,2.339,14.554,14.554,0,0,1-2.066,1.1v.047c.086.476.156.951.242,1.427.047.25.086.5.133.78h0a.108.108,0,0,0,0,.047c.655,3.688,1.4,7.3,2.191,10.73l.4,1.708c9.825,3.548,10.987,10.815,11.057,13.6a7.521,7.521,0,0,1,0,1.115s14.816.39,20.664,4.679a15.855,15.855,0,0,0,3.517,1.794,64.719,64.719,0,0,0,7.213,2.253c1.255.328,2.565.647,3.9.959,2.339.538,4.819,1.06,7.213,1.56,6.386,1.287,12.4,2.339,15.447,3.119,7.275,1.84,23.916,17.794,23.916,17.794s1.949,16.094,3.9,18.442,5.458,10.6,5.458,10.6l12.9,22.933L679.865,587h3.509a5.966,5.966,0,0,1,2.5,1.638c.928.827,1.957,1.856,2.862,2.792l1.5,1.6.936,1.037s5.669.14,7.205,4.624c4.616-.133,10.285.172,14.254,1.949a11.033,11.033,0,0,1,1.56.842,6.768,6.768,0,0,1,3.22,4.413,6.517,6.517,0,0,1,.14,1.123c0,.444,0,.889,0,1.326-.281,5.9-4.125,10.815-7.657,14.122l.25.444s-.117.281-.343.78c-.062.148-.14.312-.226.5h0c-.46.982-1.193,2.456-2.152,4.18a49.371,49.371,0,0,1-7.462,10.27l-.226.234-45.024.413-.133-.156-8.733-10.418-4.343-5.178-.133-.164-.125,1.24-.421,4.133-1.014,9.989-.055.5v.133l-.117,1.154.086-1.154H639.5l-83.435.78-136.943,1.513v.655h-.109v-.655l-34.895.374Z" transform="translate(462.126 1100.545)" fill="url(#linear-gradient)"/>
      <path id="Path_34" data-name="Path 34" d="M597.978,525.838s-77.587,9.357-70.179,0c2.682-3.384,3.423-13.412,3.275-24.836-.047-3.47-.172-7.065-.351-10.644-.858-17.155-2.924-33.92-2.924-33.92s67.84-31.971,60.042-6.628c-3.119,10.238-2.1,24.617.273,38.115.694,3.938,1.5,7.8,2.339,11.463a268.768,268.768,0,0,0,7.525,26.45Z" transform="translate(422.464 1080.271)" fill="#fbbebe"/>
      <path id="Path_35" data-name="Path 35" d="M597.978,542.077s-77.587,9.357-70.179,0c2.682-3.384,3.423-13.412,3.275-24.836,11.829-5.053,26.879-1.287,26.879-1.287,15.845-3.158,26.005-2.542,32.5-.327a268.773,268.773,0,0,0,7.525,26.45Z" transform="translate(422.464 1064.033)" opacity="0.1"/>
      <path id="Path_36" data-name="Path 36" d="M419.189,679.258V678.6l136.943-1.489,83.435-.78h.234l-.086,1.154.117-1.154h.148V676.2l1.068-10.488.406-3.969.125-1.24.109-1.037,4.819-16.071,4.819-16.048,4.055-13.513,6.191-20.648s-3.509-8.188-5.458-10.527-3.9-18.325-3.9-18.325-16.64-15.853-23.916-17.677c-3.049-.78-9.069-1.817-15.463-3.119-2.394-.483-4.85-1-7.213-1.56-1.333-.3-2.643-.624-3.9-.944a68.547,68.547,0,0,1-7.213-2.23A16.138,16.138,0,0,1,591,537.02c-5.731-4.2-20.095-4.679-20.648-4.679h0a.327.327,0,0,1,0-.055v-.07a8.008,8.008,0,0,0,0-.983,6.263,6.263,0,0,0-.07-1.092.984.984,0,0,0-.055-.39c-.039-.281-.086-.577-.156-.889a3.888,3.888,0,0,0-.094-.413,13.418,13.418,0,0,0-.975-2.721c-.055-.125-.125-.257-.187-.382a14.227,14.227,0,0,0-1.326-2.051c-.1-.133-.21-.273-.327-.405a15.265,15.265,0,0,0-2.121-2.059c-.211-.164-.429-.335-.655-.491a3.634,3.634,0,0,0-.4-.281l-.694-.452-.647-.374c-.569-.312-1.17-.616-1.825-.9-.2-.094-.421-.179-.639-.265s-.561-.218-.85-.328h-.047l-.585-.234c-.444-.148-.9-.281-1.372-.413l-.725-.187-.78-.179-.78-.164c-.78-.156-1.614-.3-2.487-.405l-.889-.109-.912-.094-.944-.078-1.341-.078-1.56-.055a97.242,97.242,0,0,0-20.47,2.177,56.354,56.354,0,0,0-14.23-1.312h-.678l-.78.047h-.5l-1.006.094a7.472,7.472,0,0,0-1.014.117c-.335.047-.686.086-1.021.14l-.515.086c-.507.086-1.021.179-1.56.289q-.257.047-.515.117c-.678.148-1.357.328-2.027.53-.335.094-.671.2-1.006.32-.172.047-.335.109-.5.172l-.5.179-.491.195-.585.234c-.3.125-.585.257-.873.4-.164.07-.327.148-.483.234s-.32.156-.468.242a21.641,21.641,0,0,0-4.842,3.415l-.4.382-.39.4c-.133.133-.257.273-.382.413a18.577,18.577,0,0,0-1.419,1.755c-.125.164-.242.327-.359.5a20.817,20.817,0,0,0-1.341,2.277c-.1.187-.195.382-.289.569a25.5,25.5,0,0,0-1.56,4.094q-.218.78-.4,1.56s-16.508,7.283-30.2,12.554c-3.642,1.4-7.073,2.675-9.942,3.634-.834.281-1.614.538-2.339.78a20.819,20.819,0,0,1-4.874,1.123,15.329,15.329,0,0,0-2.339.218c-6.293,1.022-17.077,5.458-18.254,9.911a2.877,2.877,0,0,0-.078,1.092s0,.055,0,.086c.78,5.458-4.679,4.679-4.679,4.679s-1.949,14.426-4.679,18.325c-1.973,2.807-3.322,9.069-3.493,13.794h0a15.29,15.29,0,0,0,.343,4.39v.109c.312,1.045-.437,3.9-1.708,7.556-1.38,4.016-3.392,9.006-5.326,13.716-2.916,7.112-5.661,13.568-5.833,14.987-.07.632-.273,1.762-.554,3.22-1.138,5.942-3.665,17.256-4.913,21.833-.928,3.415-2.277,8.094-3.2,11.307a1.094,1.094,0,0,1-.078.273l34.957-.343v.655h.109Z" transform="translate(445.505 1063.6)" fill="#8fb2d1"/>
      <path id="Path_37" data-name="Path 37" d="M445.44,607.57s44.447,23,60.432,20.274Z" transform="translate(411.319 1043.376)" opacity="0.1"/>
      <path id="Path_38" data-name="Path 38" d="M561.44,595.57s43.277,14.036,57.7,15.985S561.44,595.57,561.44,595.57Z" transform="translate(424.031 1046.019)" opacity="0.1"/>
      <path id="Path_39" data-name="Path 39" d="M599.391,533.272c-22.613,4.164-65.189,3.267-83.591,2.636,6.745-24.173,39.636-15.954,39.636-15.954C596.147,511.829,599.267,528.687,599.391,533.272Z" transform="translate(423.733 1063.152)" opacity="0.1"/>
      <path id="Path_40" data-name="Path 40" d="M599.391,531.272c-22.613,4.164-65.189,3.267-83.591,2.636,6.745-24.173,39.636-15.954,39.636-15.954C596.147,509.829,599.267,526.687,599.391,531.272Z" transform="translate(423.733 1063.593)" fill="#8fb2d1"/>
      <path id="Path_41" data-name="Path 41" d="M776.94,672.124s26.637-4.094,27.159,7.6S790.516,699.6,790.516,699.6Z" transform="translate(438.351 1029.312)" fill="#fbbebe"/>
      <path id="Path_42" data-name="Path 42" d="M588.242,487.926a36.665,36.665,0,0,1-3.509,1.357c-8.406,2.9-16.882,5.825-25.732,6.885s-18.137.125-25.857-4.289a22.426,22.426,0,0,1-2.339-1.521c-.858-17.155-2.924-33.92-2.924-33.92s67.84-31.971,60.042-6.628C584.819,460.049,585.871,474.428,588.242,487.926Z" transform="translate(420.524 1080.271)" opacity="0.1"/>
      <path id="Path_43" data-name="Path 43" d="M542.7,361.98a7.384,7.384,0,0,1-6.488-1.365l1.622,2.254a6.6,6.6,0,0,1-5.287-1.754,26.575,26.575,0,0,0,.25,6.043,11.322,11.322,0,0,1-7.455-2.339,3.447,3.447,0,0,0,2.059,3.361,11.182,11.182,0,0,0-12.164,8.351l4.07.374a14.4,14.4,0,0,0-8.141,4.967c-1.248,1.56-2.2,3.556-1.653,5.458s3.181,3.119,4.616,1.762a21.787,21.787,0,0,0-4.757,17.771,11.283,11.283,0,0,1,.359,4.1,34.788,34.788,0,0,1-1.474,3.657c-.78,2.277-.039,4.749.655,7.018l3.657,12.024c1.326,4.343,2.643,8.694,4.375,12.9a64.005,64.005,0,0,1,3.119,8.2c.983,3.774,1.021,7.907,3.119,11.205a15.542,15.542,0,0,0,5.6,4.936c7.712,4.414,17.03,5.349,25.857,4.289s17.3-3.985,25.693-6.885a24.175,24.175,0,0,0,5.334-2.339c5.809-3.805,7.1-11.587,8.188-18.442a104.717,104.717,0,0,1,5.684-22.457c1.7-4.281,3.9-8.624,3.525-13.209-.476-6.09-5.295-11.026-6.488-17.015a14.816,14.816,0,0,1,.055-6.059,13.772,13.772,0,0,0,.616-3.665c-.133-2.511-2.191-4.445-4.125-6.059q-6.293-5.256-12.991-9.934c-.226-1.56,1.895-2.23,2.854-3.462,1.357-1.739-.047-4.5-2.105-5.31s-4.367-.281-6.511.257a5.139,5.139,0,0,0-9.006-3.985,7.954,7.954,0,0,0-6.566-4.741c-5.17-.405-5.271,3.548-8.578,5.724s-6.035-.694-8.577-2.784A7.236,7.236,0,0,0,542.7,361.98Z" transform="translate(425.144 1099.693)" fill="#3f3d56"/>
      <path id="Path_44" data-name="Path 44" d="M780.835,681.455s-.694,1.653-1.973,4.047a53.8,53.8,0,0,1-7.018,10.27l-.211.226H770.37l-45.024.413H724.27l-.133-.156L715.4,685.892l-3.291-3.907-.133-.164-.281-.328-.156-.187-.2-.242-6.4-7.595,2.339-9.747,3.985-16.422.1-.4.78-3.119.554-2.339,1.856-7.626,6.363-26.239,11.307,5.848,11.923,21.054,6.4,11.307h3.509c.663,0,2.183,1.279,3.712,2.753.546.522,1.092,1.076,1.56,1.56,1.388,1.435,2.487,2.667,2.487,2.667s5.685.125,7.213,4.6a5.441,5.441,0,0,1,.2.663,31.428,31.428,0,0,0,1.973,5.115c1.006,2.191,2.269,4.679,3.548,7.166,2.378,4.562,4.8,8.905,5.685,10.48l.109.195Z" transform="translate(444.502 1043.374)" fill="#8fb2d1"/>
      <path id="Path_45" data-name="Path 45" d="M653.076,654.607,653,655.722v.078l-.132,1.793-1.037,14.434-1.255,17.389-.359,4.9-.78,10.48v.133l-83.435.78-136.92,1.482v.655h-.109v-.873l.351-11.2.671-21.88.577-18.551.055-1.848a8.211,8.211,0,0,1,8.9-7.93c3.681.312,8.461.694,14.176,1.1l2.339.172c33.008,2.293,94.009,5.256,155.564,1.56,1.294-.07,2.6-.148,3.9-.242,9.544-.6,19.081-1.372,28.524-2.339a8.211,8.211,0,0,1,9.045,8.757Z" transform="translate(441.747 1035.016)" opacity="0.1"/>
      <path id="Path_46" data-name="Path 46" d="M429.08,708.729v-.655l136.943-1.489,83.435-.78h.234v-.133l.78-10.48.335-4.679,1.279-17.631,1.006-13.958v-.343a8.278,8.278,0,0,0-.086-1.926.232.232,0,0,0,0-.078,8.1,8.1,0,0,0-1.56-3.618,8.219,8.219,0,0,0-7.345-3.119c-9.443.967-18.98,1.739-28.524,2.339-1.3.094-2.6.172-3.9.242-61.555,3.657-122.556.694-155.564-1.56l-2.339-.172c-5.716-.406-10.5-.78-14.176-1.1a8.219,8.219,0,0,0-8.765,6.651,8.582,8.582,0,0,0-.14,1.279l-.53,17.28-.725,21.888-.343,11.2v.873Z" transform="translate(441.746 1034.128)" fill="#3f3d56"/>
      <path id="Path_47" data-name="Path 47" d="M653.34,662.616l-.959,11.954-1.427,17.818-.359,4.46-.78,9.989-.047.5v.133h0l-.117,1.154.086-1.154h-.226l-83.435.78L429.11,709.73v-.218l.382-11.2.78-21.88.5-14.543a4.959,4.959,0,0,1,2.386-4.094,4.874,4.874,0,0,1,2.948-.7c1.638.133,3.649.289,6,.46,3.813.281,8.515.608,13.989.951,10.137.639,22.855,1.326,37.429,1.887,40.548,1.56,95.288,2.082,147.283-2.472,2.339-.2,4.757-.429,7.119-.655a4.881,4.881,0,0,1,2.714.515,4.022,4.022,0,0,1,.671.421,4.787,4.787,0,0,1,1.56,1.918,2.785,2.785,0,0,1,.195.476A4.9,4.9,0,0,1,653.34,662.616Z" transform="translate(441.804 1032.473)" opacity="0.1"/>
      <path id="Path_48" data-name="Path 48" d="M367.052,677.87v2.487a4.78,4.78,0,0,1-2.729,4.32l-31.269.6a4.772,4.772,0,0,1-2.784-4.343V678.6Z" transform="translate(419.821 1027.894)" opacity="0.1"/>
      <path id="Path_49" data-name="Path 49" d="M287.093,513.661l-40.743.78V507.68l40.743-.78Z" transform="translate(499.247 1200.377)" fill="#3f3d56"/>
      <path id="Path_50" data-name="Path 50" d="M287.093,513.661l-40.743.78V507.68l40.743-.78Z" transform="translate(499.247 1200.377)" opacity="0.1"/>
      <path id="Path_51" data-name="Path 51" d="M289.093,513.661l-40.743.78V507.68l40.743-.78Z" transform="translate(499.368 1200.377)" fill="#3f3d56"/>
      <g id="Group_3" data-name="Group 3" transform="translate(933.521 1455.731)" opacity="0.1">
        <path id="Path_52" data-name="Path 52" d="M552.489,360.6a7.6,7.6,0,0,1-1.474-3.384,7.4,7.4,0,0,0,.328,3.587A7.018,7.018,0,0,0,552.489,360.6Z" transform="translate(-517.707 -357.22)"/>
        <path id="Path_53" data-name="Path 53" d="M540.148,367.385a27.41,27.41,0,0,1-.289-2.885v2.893Z" transform="translate(-515.27 -358.823)"/>
        <path id="Path_54" data-name="Path 54" d="M621.715,399.72a14.29,14.29,0,0,1,.281-2.066,14.037,14.037,0,0,0,.624-3.657,4.81,4.81,0,0,0-.125-.827c-.133.717-.343,1.435-.5,2.144A14.924,14.924,0,0,0,621.715,399.72Z" transform="translate(-533.285 -365.137)"/>
        <path id="Path_55" data-name="Path 55" d="M600.925,369.553l.85.616a15.366,15.366,0,0,0,2-1.731,2.862,2.862,0,0,0,.3-2.838,2.339,2.339,0,0,1-.3.5C602.82,367.331,600.7,368.009,600.925,369.553Z" transform="translate(-528.714 -359.066)"/>
        <path id="Path_56" data-name="Path 56" d="M518.568,380.29a9.606,9.606,0,0,0-.678,1.778,14.161,14.161,0,0,1,3.9-1.474Z" transform="translate(-510.431 -362.301)"/>
        <path id="Path_57" data-name="Path 57" d="M532.134,369.139a11.563,11.563,0,0,1-1.466-.959,3.312,3.312,0,0,0,.07.92,9.249,9.249,0,0,1,1.4.039Z" transform="translate(-513.244 -359.634)"/>
        <path id="Path_58" data-name="Path 58" d="M603.453,428.33c-.32,3.782-2.082,7.423-3.509,11.01a104.668,104.668,0,0,0-5.684,22.465c-1.084,6.854-2.339,14.636-8.188,18.434a23.389,23.389,0,0,1-5.326,2.339c-8.406,2.909-16.882,5.825-25.732,6.885s-18.137.133-25.857-4.281a15.6,15.6,0,0,1-5.6-4.936c-2.082-3.3-2.121-7.431-3.119-11.205a64.1,64.1,0,0,0-3.119-8.2c-1.723-4.2-3.049-8.577-4.367-12.89q-1.832-6.012-3.657-12.032a22.463,22.463,0,0,1-.889-3.7,13.977,13.977,0,0,0,.889,6.043q1.825,6.028,3.657,12.032c1.318,4.343,2.643,8.694,4.367,12.89a64.112,64.112,0,0,1,3.119,8.2c.983,3.774,1.021,7.907,3.119,11.205a15.6,15.6,0,0,0,5.6,4.936c7.72,4.413,17.03,5.341,25.857,4.281s17.3-3.977,25.732-6.885a23.39,23.39,0,0,0,5.326-2.339c5.809-3.8,7.1-11.58,8.188-18.434a104.668,104.668,0,0,1,5.684-22.465c1.7-4.273,3.9-8.616,3.525-13.209C603.468,428.424,603.453,428.377,603.453,428.33Z" transform="translate(-508.324 -372.881)"/>
        <path id="Path_59" data-name="Path 59" d="M510.434,422.548v-.086a10.917,10.917,0,0,0-.359-4.094,20.736,20.736,0,0,1-.3-2.589,21.328,21.328,0,0,0,.3,4.928C510.2,421.316,510.34,421.932,510.434,422.548Z" transform="translate(-508.636 -370.117)"/>
        <path id="Path_60" data-name="Path 60" d="M512.908,398.7a21.633,21.633,0,0,1,2.035-2.862c-1.427,1.365-4.063.148-4.616-1.747a4.546,4.546,0,0,0,0,2.339,3.423,3.423,0,0,0,2.581,2.269Z" transform="translate(-508.732 -365.34)"/>
      </g>
      <path id="Path_61" data-name="Path 61" d="M763.13,656.57s2.472,8.967,0,16.765S763.13,656.57,763.13,656.57Z" transform="translate(430.223 1032.585)" opacity="0.1"/>
      <path id="Path_62" data-name="Path 62" d="M776.351,668.3s1.037,11.385-1.3,13.4S776.351,668.3,776.351,668.3Z" transform="translate(431.322 1030.001)" opacity="0.1"/>
      <line id="Line_1" data-name="Line 1" y1="0.78" x2="79.232" transform="translate(698.358 1578.583)" fill="none" stroke="#8fb2d1" stroke-miterlimit="10" stroke-width="2"/>
      <line id="Line_2" data-name="Line 2" y1="0.772" x2="79.232" transform="translate(698.358 1588.315)" fill="none" stroke="#8fb2d1" stroke-miterlimit="10" stroke-width="2"/>
      <line id="Line_3" data-name="Line 3" y1="0.78" x2="79.232" transform="translate(698.358 1598.039)" fill="none" stroke="#8fb2d1" stroke-miterlimit="10" stroke-width="2"/>
    </g>
  </g>
</svg>
