<svg xmlns="http://www.w3.org/2000/svg" xmlns:xlink="http://www.w3.org/1999/xlink" width="200" height="226.317" viewBox="0 0 200 226.317">
  <defs>
    <linearGradient id="linear-gradient" x1="0.5" y1="1" x2="0.5" gradientUnits="objectBoundingBox">
      <stop offset="0" stop-color="gray" stop-opacity="0.251"/>
      <stop offset="0.535" stop-color="gray" stop-opacity="0.122"/>
      <stop offset="1" stop-color="gray" stop-opacity="0.102"/>
    </linearGradient>
  </defs>
  <g id="undraw_Firmware_jw6u" transform="translate(-560.267 -38.265)">
    <path id="Path_232" data-name="Path 232" d="M678.167,210.28s-26.436-6.517-28.183,12.02,6.987,49.07,0,58.884-31.917,23.993-18.8,25.264,19.67,3.088,15.74,9.63-24.453,12.722-20.087,17.447,6.55,10.541,2.183,16.357-19.65,9.45-17.03,13.449,12.227,6.179,7.423,10.541S600.69,388.154,606.124,388.1" transform="translate(-43.108 -125.019)" fill="none" stroke="#535461" stroke-miterlimit="10" stroke-width="3"/>
    <rect id="Rectangle_54" data-name="Rectangle 54" width="66.786" height="30.973" rx="12.97" transform="translate(612.363 70.706)" fill="#6ca37a"/>
    <rect id="Rectangle_55" data-name="Rectangle 55" width="56.139" height="0.581" transform="translate(617.687 96.926)" opacity="0.1"/>
    <rect id="Rectangle_56" data-name="Rectangle 56" width="56.139" height="21.294" transform="translate(617.687 75.545)" opacity="0.3"/>
    <circle id="Ellipse_15" data-name="Ellipse 15" cx="7.743" cy="7.743" r="7.743" transform="translate(623.01 78.893)" opacity="0.1"/>
    <circle id="Ellipse_16" data-name="Ellipse 16" cx="7.743" cy="7.743" r="7.743" transform="translate(653.016 78.893)" opacity="0.1"/>
    <rect id="Rectangle_57" data-name="Rectangle 57" width="11.614" height="6.777" transform="translate(639.949 101.678)" fill="#6ca37a"/>
    <rect id="Rectangle_58" data-name="Rectangle 58" width="48.396" height="38.717" transform="translate(621.559 106.519)" fill="#6ca37a"/>
    <rect id="Rectangle_59" data-name="Rectangle 59" width="50.332" height="4.84" transform="translate(620.591 152.979)" fill="#6ca37a"/>
    <path id="Path_233" data-name="Path 233" d="M720.689,331.152v22.262H729.4V324.376h-8.711Z" transform="translate(-91.871 -161.718)" fill="#6ca37a"/>
    <path id="Path_234" data-name="Path 234" d="M780.8,324.376v29.038h8.711V324.376Z" transform="translate(-125.846 -161.718)" fill="#6ca37a"/>
    <path id="Path_235" data-name="Path 235" d="M698.481,280.656v8.952a13.1,13.1,0,0,0-6.435,3.1,15.223,15.223,0,0,0-3.831,5.617,28.537,28.537,0,0,0-1.886,8.575,49.029,49.029,0,0,0,.536,11.5h-9.679a66.073,66.073,0,0,1,.253-13.883,36.844,36.844,0,0,1,3.106-11,22.343,22.343,0,0,1,10.3-10.806A19.017,19.017,0,0,1,698.481,280.656Z" transform="translate(-83.514 -165.425)" fill="#6ca37a"/>
    <rect id="Rectangle_60" data-name="Rectangle 60" width="8.711" height="6.775" transform="translate(628.818 162.658)" opacity="0.3"/>
    <rect id="Rectangle_61" data-name="Rectangle 61" width="8.711" height="8.711" transform="translate(628.818 175.241)" opacity="0.3"/>
    <rect id="Rectangle_62" data-name="Rectangle 62" width="8.711" height="2.904" transform="translate(628.818 188.792)" opacity="0.3"/>
    <rect id="Rectangle_63" data-name="Rectangle 63" width="8.711" height="6.775" transform="translate(654.952 162.658)" opacity="0.3"/>
    <rect id="Rectangle_64" data-name="Rectangle 64" width="8.711" height="8.711" transform="translate(654.952 175.241)" opacity="0.3"/>
    <rect id="Rectangle_65" data-name="Rectangle 65" width="8.711" height="2.904" transform="translate(654.952 188.792)" opacity="0.3"/>
    <path id="Path_236" data-name="Path 236" d="M716.561,280.656v8.952a13.1,13.1,0,0,0-6.435,3.1l-1.2-10a19.017,19.017,0,0,1,7.639-2.058Z" transform="translate(-101.594 -165.425)" opacity="0.3"/>
    <path id="Path_237" data-name="Path 237" d="M688.87,315.05a28.537,28.537,0,0,0-1.886,8.575l-8.89-2.38a36.842,36.842,0,0,1,3.106-11Z" transform="translate(-84.169 -182.148)" opacity="0.3"/>
    <path id="Path_238" data-name="Path 238" d="M868.128,280.656v8.952a13.1,13.1,0,0,1,6.435,3.1,15.223,15.223,0,0,1,3.831,5.617,28.533,28.533,0,0,1,1.886,8.575,49.029,49.029,0,0,1-.536,11.5h9.679a66.069,66.069,0,0,0-.253-13.883,36.844,36.844,0,0,0-3.106-11,22.344,22.344,0,0,0-10.3-10.806A19.017,19.017,0,0,0,868.128,280.656Z" transform="translate(-191.581 -165.425)" fill="#6ca37a"/>
    <path id="Path_239" data-name="Path 239" d="M868.128,280.656v8.952a13.1,13.1,0,0,1,6.435,3.1l1.2-10A19.017,19.017,0,0,0,868.128,280.656Z" transform="translate(-191.581 -165.425)" opacity="0.3"/>
    <path id="Path_240" data-name="Path 240" d="M891.74,315.05a28.537,28.537,0,0,1,1.886,8.575l8.89-2.38a36.846,36.846,0,0,0-3.106-11Z" transform="translate(-204.928 -182.148)" opacity="0.3"/>
    <rect id="Rectangle_66" data-name="Rectangle 66" width="11.614" height="0.802" transform="translate(639.949 101.678)" opacity="0.1"/>
    <path id="Path_241" data-name="Path 241" d="M853.774,276.485v16.21a3.378,3.378,0,0,1-.9-2.3V278.781a3.372,3.372,0,0,1,.9-2.3Z" transform="translate(-182.96 -163.068)" opacity="0.1"/>
    <path id="Path_242" data-name="Path 242" d="M740.876,276.274v12.134a3.375,3.375,0,0,1-.9,2.053V274.221A3.374,3.374,0,0,1,740.876,276.274Z" transform="translate(-119.145 -161.788)" opacity="0.1"/>
    <rect id="Rectangle_67" data-name="Rectangle 67" width="43.556" height="0.573" transform="translate(623.979 145.237)" opacity="0.1"/>
    <rect id="Rectangle_68" data-name="Rectangle 68" width="21.293" height="0.444" transform="translate(623.011 157.82)" opacity="0.1"/>
    <rect id="Rectangle_69" data-name="Rectangle 69" width="21.293" height="0.444" transform="translate(646.241 157.82)" opacity="0.1"/>
    <rect id="Rectangle_70" data-name="Rectangle 70" width="3.333" height="28.664" transform="translate(625.386 42.042)" fill="#6ca37a"/>
    <rect id="Rectangle_71" data-name="Rectangle 71" width="3.333" height="28.664" transform="translate(663.604 42.042)" fill="#6ca37a"/>
    <circle id="Ellipse_17" data-name="Ellipse 17" cx="3.777" cy="3.777" r="3.777" transform="translate(623.164 38.487)" opacity="0.1"/>
    <circle id="Ellipse_18" data-name="Ellipse 18" cx="3.777" cy="3.777" r="3.777" transform="translate(623.164 38.265)" fill="#6ca37a"/>
    <circle id="Ellipse_19" data-name="Ellipse 19" cx="3.777" cy="3.777" r="3.777" transform="translate(661.604 38.487)" opacity="0.1"/>
    <circle id="Ellipse_20" data-name="Ellipse 20" cx="3.777" cy="3.777" r="3.777" transform="translate(661.604 38.265)" fill="#6ca37a"/>
    <rect id="Rectangle_72" data-name="Rectangle 72" width="32.173" height="3.913" transform="translate(678.232 72.353) rotate(-17.351)" fill="#6ca37a"/>
    <path id="Path_244" data-name="Path 244" d="M888.155,472.81s-16.836-3.367-21.326-7.857-24.693-12.346-26.938-6.734-30.3,24.693-11.224,28.06,44.9,4.49,50.508,2.245S888.155,472.81,888.155,472.81Z" transform="translate(-165.54 -264.688)" fill="#a8a8a8"/>
    <path id="Path_245" data-name="Path 245" d="M828.673,505.542c19.081,3.367,44.9,4.49,50.508,2.245,4.274-1.71,7.244-9.923,8.418-13.746.355.076.561.117.561.117s-3.367,13.469-8.979,15.714-31.427,1.122-50.508-2.245c-5.508-.972-7.083-3.255-6.49-6.143C822.654,503.369,824.573,504.819,828.673,505.542Z" transform="translate(-165.546 -286.036)" opacity="0.2"/>
    <path id="Path_246" data-name="Path 246" d="M956.946,145.632a4.946,4.946,0,0,0-1.393-1.931c-4.517-4.118-11.825-2.869-17.434-5.385-1.292-.579-2.618-1.383-4.021-1.163-1.959.308-3.781,2.538-5.489,1.548l.122.373c-.041-.02-.082-.04-.122-.064l1.256,3.827a13.9,13.9,0,0,0,1.929,4.2,11.008,11.008,0,0,0,2.662,18.309c.059.128.118.257.175.387.053.024.108.045.162.068a12.846,12.846,0,0,1,.829,2.666c-1.454.2-3.988,1.809-6.482,4.183l-4.985-.171a16.3,16.3,0,0,1-8.957-3.045l-14.907-10.718a4.989,4.989,0,0,0-2.856,1.263c-1.851-1.929-3.422-3.944-3.289-5.124,0,0-6.933-12.976-9.454-6.488s4.727,13.285,4.727,13.285l4.6,5.957a25.054,25.054,0,0,0-.344,3.157c5.672,6.488,25.525,12.358,25.525,12.358l3.1.15c.006.057.012.1.017.152a10.537,10.537,0,0,0-.277,2.479c0,.12,0,.245.006.371,0,.082-.007.165-.006.247.158,10.35,1.576,42.016,1.576,42.016.276-.123.561-.235.851-.341l-.221,2.813s-13.235,1.854-23,5.561-10.084,8.033-10.084,8.033v38.165c-2.791,1.432-7.194,3.314-9.454,2.307-2.453-1.093-3.8-.175-4.044.784h0a1.217,1.217,0,0,0-.011.576l0,.012a1.036,1.036,0,0,0,.094.245l.01.018a.982.982,0,0,0,.166.219c.945.927,21.429,8.959,26.156,7.724a3.265,3.265,0,0,0,.428-.144c.045-.019.086-.044.13-.064.087-.041.176-.081.257-.13.049-.029.092-.064.139-.095.071-.047.143-.093.209-.146.046-.037.087-.079.131-.118.061-.054.123-.107.179-.166.041-.043.078-.09.117-.135.054-.062.108-.122.158-.188.036-.047.068-.1.1-.148.048-.069.1-.138.14-.211.03-.05.057-.1.086-.156.042-.078.085-.155.124-.236.025-.052.047-.107.07-.16.037-.086.075-.172.109-.261.02-.052.037-.107.056-.16.033-.095.066-.19.095-.287.015-.051.028-.1.043-.154.029-.1.057-.209.081-.316.011-.048.021-.1.031-.144.024-.114.048-.229.068-.345.007-.043.014-.086.021-.13.02-.124.039-.249.055-.376,0-.036.008-.073.013-.109.016-.135.03-.271.041-.409,0-.029,0-.057.007-.086q.017-.22.027-.44l0-.059q.01-.236.013-.472v-.03a25.869,25.869,0,0,0-.608-5.48h0l1.144-32.514a177.3,177.3,0,0,0,18.545-.683l.678,15.512s0,10.2,3.466,14.829c2.967,3.966,6.394,21.506,7.321,26.482-1.274,2.428-3.71,5.431-7.952,5.339,0,0-7.981-.69-7.531,1.505v0a1.131,1.131,0,0,0,.05.168l.005.014a1.557,1.557,0,0,0,.087.184l.007.012c.032.057.069.115.11.175l.026.037c.047.065.1.131.155.2l.015.016c.053.062.112.126.175.191l.053.054c.071.072.146.145.23.22,4.1,3.707,28.046,4.325,28.046,4.325v-.084c0-.023,0-.053,0-.086v-.013a40.863,40.863,0,0,0-1.591-10.939h.332s-3.466-31.2-6.3-34.911c0,0-.754-16.453.947-26.764.1-.038.21-.075.313-.114,7.944-2.967,8.508-10.274,7.69-15.643,1.5.483,2.394.814,2.394.814s-.027-.233-.079-.647l.079.029s-.152-.981-.4-2.513c-.568-4.21-1.67-11.567-2.842-15.04-.189-.764-.371-1.416-.539-1.911a32.659,32.659,0,0,1-1.388-6.418,76.053,76.053,0,0,1-.487-8.51,81.683,81.683,0,0,1,.871-11.353,68.407,68.407,0,0,0,.878-9.625,12.837,12.837,0,0,0-.19-2.712c-.421-1.925-2.278-3.177-4.209-3.974-.124-.051-.252-.093-.377-.141.047-.73.109-1.557.188-2.428a2.076,2.076,0,0,0,1.606.325,3.8,3.8,0,0,0,1.956-1.526c2.793-3.43,5.661-7.006,6.734-11.267a24.349,24.349,0,0,0,.591-5.8q0-.16,0-.321A6.307,6.307,0,0,0,956.946,145.632Z" transform="translate(-196.944 -84.293)" fill="url(#linear-gradient)"/>
    <path id="Path_247" data-name="Path 247" d="M1001.59,189.206s4.232,6.347,3.325,9.37,9.974,1.209,9.974,1.209.3-11.788,2.418-14.508S1001.59,189.206,1001.59,189.206Z" transform="translate(-267.018 -111.145)" fill="#f7c4a7"/>
    <path id="Path_248" data-name="Path 248" d="M913.836,181.02s-8.765-7.254-8.463-9.974c0,0-6.649-12.694-9.067-6.347s4.534,13,4.534,13l8.463,11.183Z" transform="translate(-207.219 -98.879)" fill="#f7c4a7"/>
    <path id="Path_249" data-name="Path 249" d="M896.756,466.285s-8.161,5.138-11.485,3.627-4.534.907-3.627,1.813,20.553,8.765,25.086,7.556,2.228-11.11,2.228-11.11Z" transform="translate(-199.056 -270.348)" fill="#535461"/>
    <path id="Path_250" data-name="Path 250" d="M995.379,515.461s-1.965,8.312-8.765,8.161c0,0-10.276-.907-6.347,2.72s26.9,4.231,26.9,4.231,0-12.392-4.231-15.112A6.47,6.47,0,0,0,995.379,515.461Z" transform="translate(-254.459 -297.46)" fill="#535461"/>
    <path id="Path_251" data-name="Path 251" d="M987.691,376.667l.907,21.157s0,9.974,3.325,14.508,7.254,27.2,7.254,27.2h11.485s-3.325-30.527-6.045-34.154c0,0-1.209-26.9,3.022-32.945Z" transform="translate(-259.162 -217.302)" fill="#575988"/>
    <path id="Path_252" data-name="Path 252" d="M987.691,376.667l.907,21.157s0,9.974,3.325,14.508,7.254,27.2,7.254,27.2h11.485s-3.325-30.527-6.045-34.154c0,0-1.209-26.9,3.022-32.945Z" transform="translate(-259.162 -217.302)" opacity="0.1"/>
    <path id="Path_253" data-name="Path 253" d="M968.345,336.406s6.952,16.624-5.743,21.46-35.665,4.231-35.665,4.231l-1.209,35.061s-14.206,1.814-14.508-2.72V356.052s.3-4.231,9.672-7.858,22.064-5.44,22.064-5.44l.6-7.858Z" transform="translate(-215.939 -196.083)" fill="#575988"/>
    <path id="Path_254" data-name="Path 254" d="M995.712,212.3a14.463,14.463,0,0,1,7.1,1c1.852.779,3.633,2,4.037,3.888.478,2.231-.052,7.234-.66,11.466a78.969,78.969,0,0,0-.369,20.037,21.38,21.38,0,0,0,1.331,6.278c1.813,3.325,3.627,19.042,3.627,19.042s-19.948-7.556-29.922-3.022c0,0-1.36-30.98-1.511-41.106-.117-7.84,9.823-16.775,13.148-17.077C994.443,212.633,993.778,212.5,995.712,212.3Z" transform="translate(-254.444 -126.74)" opacity="0.1"/>
    <path id="Path_255" data-name="Path 255" d="M995.712,210.911a14.463,14.463,0,0,1,7.1,1c1.852.779,3.633,2,4.037,3.888.478,2.231-.052,7.234-.66,11.466a78.969,78.969,0,0,0-.369,20.037,32.5,32.5,0,0,0,1.331,6.278c1.36,4.08,3.627,19.042,3.627,19.042s-19.948-7.556-29.922-3.022c0,0-1.36-30.98-1.511-41.106-.117-7.84,9.823-16.775,13.148-17.077C994.443,211.243,993.778,211.112,995.712,210.911Z" transform="translate(-254.444 -125.954)" fill="#e14b5a"/>
    <path id="Path_256" data-name="Path 256" d="M1001.112,234.278l-21.46-1.209s-1.366-10.521,1.732-10.413l21.239.741S1007.16,228.838,1001.112,234.278Z" transform="translate(-254.448 -132.642)" opacity="0.1"/>
    <path id="Path_257" data-name="Path 257" d="M965.745,215.384l-24.481-1.209s-19.042-5.743-24.482-12.09c0,0,.3-11.183,6.347-11.788l14.3,10.485a15.438,15.438,0,0,0,8.591,2.979l21.239.741S971.793,209.944,965.745,215.384Z" transform="translate(-219.082 -114.353)" fill="#e14b5a"/>
    <path id="Path_258" data-name="Path 258" d="M1014.737,190.959c.359-2.866,1.659-3.817,2.569-4.987,2.116-2.72-15.717,3.929-15.717,3.929a32.062,32.062,0,0,1,2.411,4.447,10.836,10.836,0,0,0,4.541.993C1011.172,195.341,1012.859,192.511,1014.737,190.959Z" transform="translate(-267.017 -111.538)" opacity="0.1"/>
    <circle id="Ellipse_21" data-name="Ellipse 21" cx="10.881" cy="10.881" r="10.881" transform="translate(730.645 61.74)" fill="#f7c4a7"/>
    <path id="Path_259" data-name="Path 259" d="M997.3,152.261a12.033,12.033,0,0,1-2.241-4.587l-1.2-3.744c1.638.968,3.386-1.214,5.265-1.515,1.346-.215,2.617.571,3.856,1.138,5.38,2.461,12.389,1.24,16.721,5.268a4.836,4.836,0,0,1,1.336,1.889,6.319,6.319,0,0,1,.243,2.131,24.275,24.275,0,0,1-.566,5.676c-1.029,4.169-3.78,7.667-6.458,11.023a3.659,3.659,0,0,1-1.876,1.493c-1.555.347-2.759-1.334-3.361-2.809a29.886,29.886,0,0,1-1.754-6.066,7.947,7.947,0,0,0-.718-2.564c-.937-1.66-3.245-3.231-4.649-4.517C1000.512,153.812,998.586,153.669,997.3,152.261Z" transform="translate(-262.645 -87.268)" opacity="0.1"/>
    <path id="Path_260" data-name="Path 260" d="M997.3,151.566a12.033,12.033,0,0,1-2.241-4.587l-1.2-3.744c1.638.968,3.386-1.214,5.265-1.515,1.346-.215,2.617.571,3.856,1.138,5.38,2.461,12.389,1.24,16.721,5.268a4.836,4.836,0,0,1,1.336,1.889,6.319,6.319,0,0,1,.243,2.131,24.275,24.275,0,0,1-.566,5.676c-1.029,4.169-3.78,7.667-6.458,11.023a3.658,3.658,0,0,1-1.876,1.493c-1.555.347-2.759-1.334-3.361-2.809a29.89,29.89,0,0,1-1.754-6.066,7.947,7.947,0,0,0-.718-2.564c-.937-1.66-3.245-3.231-4.649-4.517C1000.512,153.117,998.586,152.974,997.3,151.566Z" transform="translate(-262.645 -86.875)" fill="#632652"/>
    <ellipse id="Ellipse_22" data-name="Ellipse 22" cx="0.907" cy="1.965" rx="0.907" ry="1.965" transform="translate(743.49 71.865)" fill="#f7c4a7"/>
    <path id="Path_261" data-name="Path 261" d="M1016.66,306.045s-.6,1.813-3.627,1.511-11.788-.907-11.788,0" transform="translate(-266.823 -179.776)" opacity="0.1"/>
    <path id="Path_262" data-name="Path 262" d="M980.272,539.724a2.56,2.56,0,0,1-.879-1.261c-.079.393.164.9.879,1.563,3.929,3.627,26.9,4.232,26.9,4.232s0-.107,0-.3C1007.022,543.952,984.189,543.34,980.272,539.724Z" transform="translate(-254.463 -311.145)" fill="#fff" opacity="0.5"/>
    <path id="Path_263" data-name="Path 263" d="M906.727,484.389c-4.534,1.209-24.18-6.649-25.086-7.556a.982.982,0,0,1-.251-.442,1.086,1.086,0,0,0,.251,1.046c.907.907,20.553,8.765,25.087,7.556,2.333-.622,2.854-3.547,2.81-6.239C909.493,481.265,908.886,483.814,906.727,484.389Z" transform="translate(-199.052 -276.06)" fill="#fff" opacity="0.5"/>
  </g>
</svg>
