<svg xmlns="http://www.w3.org/2000/svg" width="133.92" height="114.86" viewBox="0 0 133.92 114.86">
  <g id="Group_16" data-name="Group 16" transform="translate(-130.13 -5327.067)">
    <g id="Group_15" data-name="Group 15" transform="translate(130.13 5327.067)">
      <path id="Path_144" data-name="Path 144" d="M588.7,348.49c-8.73-11.6-21.38-18.92-35.46-18.92s-26.73,7.32-35.46,18.92a38.282,38.282,0,0,0,70.92,0Z" transform="translate(-486.279 -329.57)" fill="#568362"/>
      <path id="Path_145" data-name="Path 145" d="M513.17,355.28a9.172,9.172,0,0,1-1.76-1,7.06,7.06,0,0,1-1.94-2.51,7.18,7.18,0,1,0-11.72,1.74,8,8,0,0,0,1.7,1.37,4.94,4.94,0,0,1,1.91,2,14.44,14.44,0,0,0,3.32,4.36,29,29,0,0,0,4.55,3.2A66.309,66.309,0,0,0,505.49,384a27.051,27.051,0,0,0-7.62,1.23,12.289,12.289,0,0,0-3.53,1.76,8.471,8.471,0,0,0-.87-.06,7.19,7.19,0,1,0,6.73,9.72,4.59,4.59,0,0,1,3.71-3,16.758,16.758,0,0,1,1.85-.12,64.4,64.4,0,0,0,8.55,26.67c-4.24,3.29-6.85,6.88-7.95,10.86a3,3,0,0,0-.57.41,6.812,6.812,0,0,0-.84.78A7.18,7.18,0,1,0,517,434.6a4.71,4.71,0,0,1,1.17-5.08,20.159,20.159,0,0,1,1.7-1.46c8.11,9.47,17.76,15.54,29.81,16.26V380.07C533.75,379.2,519.87,368.83,513.17,355.28ZM613,387a7.927,7.927,0,0,0-.87.06,13.557,13.557,0,0,0-3.53-1.76,26.86,26.86,0,0,0-7.62-1.23,67.761,67.761,0,0,0-3.74-19.55,29,29,0,0,0,4.55-3.2,15.58,15.58,0,0,0,3.44-4.57A4.22,4.22,0,0,1,607,355h0a7.18,7.18,0,1,0-10-3.17,6.82,6.82,0,0,1-1.94,2.51,18.86,18.86,0,0,1-1.76,1.29c-6.7,13.54-20.57,23.62-36.48,24.49v64.31c12-.72,21.71-6.82,29.81-16.26.63.5,1.16.95,1.61,1.37a4.86,4.86,0,0,1,1.26,5.23,7.18,7.18,0,1,0,12.08-2.33,6.81,6.81,0,0,0-.84-.78c-.33-.26-.57-.41-.57-.41-1.1-4-3.7-7.57-8-10.86a64.4,64.4,0,0,0,8.55-26.67,15.9,15.9,0,0,1,1.77.12,4.8,4.8,0,0,1,3.85,3,7.18,7.18,0,0,0,13.85-2.18A7.29,7.29,0,0,0,613,387Z" transform="translate(-486.279 -329.57)" fill="#568362"/>
    </g>
  </g>
</svg>
