<svg xmlns="http://www.w3.org/2000/svg" width="306.406" height="188.466" viewBox="0 0 306.406 188.466">
  <g id="undraw_under_construction_46pa" transform="translate(0.02 0)">
    <path id="Path_316" data-name="Path 316" d="M317.476,208.807a62.787,62.787,0,0,1-1.839,15.151q-.619,2.505-1.439,4.906a57.935,57.935,0,0,1-2.32,5.806q-.663,1.436-1.4,2.815A37.867,37.867,0,0,1,307.31,252.7a39.227,39.227,0,0,1-19.037,19.615,40.043,40.043,0,0,1-17,3.9H69.24a50.9,50.9,0,0,1-25.6-6.844l-.12-.068q-1.662-.973-3.241-2.06a50.832,50.832,0,0,1-6.652-5.484,49.5,49.5,0,0,1-7.313-9.061,48.35,48.35,0,0,1-7.437-25.814,60.876,60.876,0,0,1-7.8-30.145,59.739,59.739,0,0,1,12.073-36.563,51.4,51.4,0,0,1,5.127-5.7,47.716,47.716,0,0,1,5.864-4.8,45.624,45.624,0,0,1,5.2-3.122c.752-.382,1.506-.744,2.274-1.08.674-.3,1.355-.578,2.045-.84q1.241-.471,2.513-.866t2.51-.692q1.821-.445,3.7-.723c1.041-.153,2.081-.26,3.122-.341.827-.062,1.662-.1,2.5-.107h.455c.926,0,1.847.036,2.76.1.1-.193.2-.388.3-.578.364-.695.741-1.387,1.121-2.063a.065.065,0,0,1,0-.018c.065-.12.13-.237.2-.351.307-.554.627-1.1.955-1.647.151-.26.3-.5.453-.749a2,2,0,0,1,.107-.177q.234-.39.476-.78,1.2-1.925,2.505-3.782l.221-.317c.135-.193.26-.38.411-.572.359-.5.728-1.007,1.1-1.5.26-.354.52-.7.8-1.041q1.015-1.3,2.081-2.6t2.216-2.568c.1-.117.208-.232.317-.346l1.111-1.212h0c.055-.057.1-.109.153-.161h0c.133-.143.26-.286.4-.424.6-.632,1.207-1.251,1.821-1.868a99.165,99.165,0,0,1,9.963-8.681c.138-.109.278-.213.416-.317.661-.5,1.332-.989,2-1.472a105.436,105.436,0,0,1,11.553-7.206c.276-.159.557-.307.84-.453A110.3,110.3,0,0,1,113.8,96.027c2.058-.814,4.162-1.579,6.28-2.279,1.41-.463,2.825-.9,4.259-1.316q3.361-.968,6.769-1.735a120.535,120.535,0,0,1,20.354-2.773q3.122-.159,6.314-.164a120.967,120.967,0,0,1,30.437,3.85,1.1,1.1,0,0,0,.944.492h.874c.38.1.757.208,1.137.317q3.182.916,6.272,2l.52.187a111.976,111.976,0,0,1,14.8,6.5,106.836,106.836,0,0,1,12.4,7.659q.913.656,1.8,1.322,1.077-.689,2.19-1.322a43.085,43.085,0,0,1,9.074-3.868,41.389,41.389,0,0,1,20.354-.8,45.037,45.037,0,0,1,22.8,12.861,53.214,53.214,0,0,1,6.839,8.684c.143.224.286.45.424.679A57.231,57.231,0,0,1,293,135.009c.044.112.088.216.128.325a60.114,60.114,0,0,1,2.679,8.676c.031.151.068.3.1.45a62.466,62.466,0,0,1,1.28,8.681,1.681,1.681,0,0,0,.021.32q.164,2.266.166,4.579c0,1.379-.047,2.747-.133,4.105,0,.148-.021.3-.034.455-.023.393-.057.78-.091,1.176a49.368,49.368,0,0,1,5.562,5.247q1.137,1.241,2.2,2.575a54.791,54.791,0,0,1,5.671,8.681A60.922,60.922,0,0,1,317.476,208.807Z" transform="translate(-11.09 -87.76)" fill="#fff" opacity="0.1"/>
    <path id="Path_317" data-name="Path 317" d="M380.362,766.036c0,1.777-6.121,3.442-16.8,4.872H161.523a50.905,50.905,0,0,1-25.6-6.844L135.8,764c3.07-1.119,8.611-2.162,16.152-3.1h0l.338-.042c3.382-.414,7.162-.806,11.293-1.178a2.575,2.575,0,0,0,.315-.029h0q4.917-.437,10.46-.82c.117,0,.232-.021.349-.026q2.138-.153,4.365-.291h0l.572-.036c10.809-.671,23.1-1.207,36.42-1.561h.016q2.8-.078,5.658-.138,3.179-.076,6.436-.133c1.657-.036,3.335-.062,5.018-.089h.039c7.594-.114,15.439-.172,23.462-.172,19.838,0,38.59.362,55.2,1.012h.047c2.555.1,5.062.208,7.508.32l2.081.1q4.139.2,8.064.424h0C360.373,759.986,380.362,762.829,380.362,766.036Z" transform="translate(-103.372 -582.444)" fill="#6ca37a" opacity="0.1"/>
    <g id="Group_18" data-name="Group 18" transform="translate(161.625 102.753)" opacity="0.2">
      <path id="Path_318" data-name="Path 318" d="M675.559,741.192a4.949,4.949,0,0,1-.1.835q-2.716-.432-5.463-.78v-.224a4.39,4.39,0,0,1,.65-2.206,2.42,2.42,0,0,1,4.4.135A4.388,4.388,0,0,1,675.559,741.192Z" transform="translate(-660.229 -671.203)" fill="#3f3d56"/>
      <ellipse id="Ellipse_25" data-name="Ellipse 25" cx="3.645" cy="2.784" rx="3.645" ry="2.784" transform="translate(9.801 69.012) rotate(-88.19)" fill="#3f3d56"/>
      <ellipse id="Ellipse_26" data-name="Ellipse 26" cx="3.645" cy="2.784" rx="3.645" ry="2.784" transform="translate(9.943 64.558) rotate(-88.19)" fill="#3f3d56"/>
      <ellipse id="Ellipse_27" data-name="Ellipse 27" cx="3.645" cy="2.784" rx="3.645" ry="2.784" transform="translate(10.082 60.105) rotate(-88.19)" fill="#3f3d56"/>
      <ellipse id="Ellipse_28" data-name="Ellipse 28" cx="3.645" cy="2.784" rx="3.645" ry="2.784" transform="translate(10.221 55.651) rotate(-88.19)" fill="#3f3d56"/>
      <path id="Path_319" data-name="Path 319" d="M636.09,504.027a12.92,12.92,0,0,1-.989-1.561l7.352-.97-7.914-.19a13.366,13.366,0,0,1,.081-10.572l10.437,5.84-9.56-7.5a13.34,13.34,0,1,1,21.55,15.609,13.213,13.213,0,0,1,1.444,2.479l-9.649,4.63,10.231-3.078a13.356,13.356,0,0,1-2.555,12.463,13.34,13.34,0,1,1-20.957-.661,13.34,13.34,0,0,1,.52-16.488Z" transform="translate(-632.44 -482.747)" fill="#6ca37a"/>
      <path id="Path_320" data-name="Path 320" d="M659.641,598.514a13.268,13.268,0,0,1-3.122,8.153,13.34,13.34,0,1,1-20.957-.661C633.853,603.683,659.688,597.019,659.641,598.514Z" transform="translate(-632.44 -568.238)" opacity="0.1"/>
    </g>
    <g id="Group_19" data-name="Group 19" transform="translate(122.083 102.753)" opacity="0.2">
      <path id="Path_321" data-name="Path 321" d="M523.559,741.192a4.949,4.949,0,0,1-.1.835q-2.716-.432-5.463-.78v-.224a4.39,4.39,0,0,1,.65-2.206,2.42,2.42,0,0,1,4.4.135A4.388,4.388,0,0,1,523.559,741.192Z" transform="translate(-508.229 -671.203)" fill="#3f3d56"/>
      <ellipse id="Ellipse_29" data-name="Ellipse 29" cx="3.645" cy="2.784" rx="3.645" ry="2.784" transform="translate(9.798 69.013) rotate(-88.19)" fill="#3f3d56"/>
      <ellipse id="Ellipse_30" data-name="Ellipse 30" cx="3.645" cy="2.784" rx="3.645" ry="2.784" transform="translate(9.94 64.559) rotate(-88.19)" fill="#3f3d56"/>
      <ellipse id="Ellipse_31" data-name="Ellipse 31" cx="3.645" cy="2.784" rx="3.645" ry="2.784" transform="translate(10.079 60.106) rotate(-88.19)" fill="#3f3d56"/>
      <ellipse id="Ellipse_32" data-name="Ellipse 32" cx="3.645" cy="2.784" rx="3.645" ry="2.784" transform="translate(10.218 55.652) rotate(-88.19)" fill="#3f3d56"/>
      <path id="Path_322" data-name="Path 322" d="M484.09,504.027a12.914,12.914,0,0,1-.989-1.561l7.352-.97-7.914-.19a13.366,13.366,0,0,1,.081-10.572l10.437,5.84-9.56-7.5a13.34,13.34,0,1,1,21.55,15.609,13.214,13.214,0,0,1,1.444,2.479l-9.649,4.63,10.231-3.078a13.356,13.356,0,0,1-2.555,12.463,13.34,13.34,0,1,1-20.957-.661,13.34,13.34,0,0,1,.52-16.488Z" transform="translate(-480.44 -482.747)" fill="#6ca37a"/>
      <path id="Path_323" data-name="Path 323" d="M507.641,598.514a13.267,13.267,0,0,1-3.122,8.153,13.34,13.34,0,1,1-20.957-.661C481.853,603.683,507.688,597.019,507.641,598.514Z" transform="translate(-480.44 -568.238)" opacity="0.1"/>
    </g>
    <g id="Group_20" data-name="Group 20" transform="translate(215.928 40.895)" opacity="0.2">
      <path id="Path_324" data-name="Path 324" d="M924.073,742.275a9.706,9.706,0,0,1-.19,1.582q-5.229-.835-10.533-1.493v-.429a8.456,8.456,0,0,1,1.254-4.248,4.665,4.665,0,0,1,8.489.26A8.462,8.462,0,0,1,924.073,742.275Z" transform="translate(-894.577 -607.582)" fill="#3f3d56"/>
      <ellipse id="Ellipse_33" data-name="Ellipse 33" cx="7.019" cy="5.362" rx="7.019" ry="5.362" transform="translate(18.841 132.805) rotate(-88.19)" fill="#3f3d56"/>
      <ellipse id="Ellipse_34" data-name="Ellipse 34" cx="7.019" cy="5.362" rx="7.019" ry="5.362" transform="translate(19.111 124.231) rotate(-88.19)" fill="#3f3d56"/>
      <ellipse id="Ellipse_35" data-name="Ellipse 35" cx="7.019" cy="5.362" rx="7.019" ry="5.362" transform="translate(19.384 115.657) rotate(-88.19)" fill="#3f3d56"/>
      <ellipse id="Ellipse_36" data-name="Ellipse 36" cx="7.019" cy="5.362" rx="7.019" ry="5.362" transform="translate(19.354 106.711) rotate(-88.282)" fill="#3f3d56"/>
      <path id="Path_325" data-name="Path 325" d="M848.193,285.887a25.841,25.841,0,0,1-1.9-3l14.152-1.868-15.231-.367a25.728,25.728,0,0,1,.151-20.354l20.1,11.241-18.4-14.443a25.681,25.681,0,1,1,41.485,30.062,25.682,25.682,0,0,1,2.781,4.774l-18.577,8.92,19.7-5.931a25.689,25.689,0,0,1-4.9,23.972,25.681,25.681,0,1,1-40.348-1.272,25.689,25.689,0,0,1,1-31.737Z" transform="translate(-841.186 -244.965)" fill="#6ca37a"/>
      <path id="Path_326" data-name="Path 326" d="M893.565,467.645a25.582,25.582,0,0,1-5.983,15.7,25.681,25.681,0,1,1-40.348-1.272C843.919,477.592,893.656,464.765,893.565,467.645Z" transform="translate(-841.216 -409.408)" opacity="0.1"/>
    </g>
    <path id="Path_327" data-name="Path 327" d="M157.82,200.735l2.729-.008H164.4l4.865-79.026L217.437,41.31l-2.094-2.248V33.37l-52.1,86.469Z" transform="translate(-116.779 -24.689)" fill="#f1c0c0"/>
    <path id="Path_328" data-name="Path 328" d="M169.43,216.915h3.556l4.865-79.026L226.027,57.5l-2.094-2.248L174.24,136.685Z" transform="translate(-125.369 -40.877)" opacity="0.1"/>
    <path id="Path_329" data-name="Path 329" d="M126.91,663.545,251.739,673.1l.107.008,120.808-7.43.091-.005v-5.1L239.63,658.127l-111.057-.107h-.812l-.088.572Z" transform="translate(-93.91 -486.841)" fill="#f1c0c0"/>
    <path id="Path_330" data-name="Path 330" d="M126.91,663.545,251.739,673.1l.107.008,120.808-7.43.091-.1v-4.9h-.107l-120.9,4.037L128.572,658.02h-.018l-.219.143-.663.429Z" transform="translate(-93.91 -486.841)" opacity="0.1"/>
    <path id="Path_331" data-name="Path 331" d="M126.91,663.952,251.739,673.5V665.12l-123.4-6.55-.663.429Z" transform="translate(-93.91 -487.248)" opacity="0.1"/>
    <path id="Path_332" data-name="Path 332" d="M378.88,39.125l55.033,59.068-1.7,103.9,4.675.564.078.01h4.675l.559-100.014,103.05,34.422,1.738,61.29,3.762.421,1.275.143-2.95-66.1L441.348,95.007,382.28,33.6h-3.4Z" transform="translate(-280.332 -24.86)" fill="#f1c0c0"/>
    <path id="Path_333" data-name="Path 333" d="M620.65,291.7l.424,1.912,103.05,34.422,1.738,61.29,3.762.421-2.95-62.986Z" transform="translate(-459.207 -215.817)" opacity="0.1"/>
    <path id="Path_334" data-name="Path 334" d="M378.88,39.125l55.033,59.068-1.7,103.9,4.675.564,1.275-107.865L378.88,33.6Z" transform="translate(-280.332 -24.86)" opacity="0.1"/>
    <path id="Path_335" data-name="Path 335" d="M621.42,432.8l37.8,7.443.013,0,66.2,13.041,3.031-1.215-.01-.213-.2-4.227L621.459,426.05Z" transform="translate(-459.777 -315.217)" fill="#f1c0c0"/>
    <path id="Path_336" data-name="Path 336" d="M766.76,480.61l66.2,13.041,3.031-1.215-.01-.213Z" transform="translate(-567.308 -355.583)" opacity="0.1"/>
    <path id="Path_337" data-name="Path 337" d="M776.49,350.56l1.022,56.279.528,28.873,4.654-.156,2.929-.1-.911-84.083-2.019-.671-.442-.143Z" transform="translate(-574.507 -259.365)" fill="#f1c0c0"/>
    <path id="Path_338" data-name="Path 338" d="M776.65,350.51v.013l.981,56.279.528,28.873,4.654-.156V350.51Z" transform="translate(-574.625 -259.328)" opacity="0.1"/>
    <path id="Path_339" data-name="Path 339" d="M485.532,483.38a5.928,5.928,0,0,1,.78.507,5.165,5.165,0,0,1,.78.856c1.116,1.444,2.146,3.122,2.037,4.943a2.011,2.011,0,0,1-.58,1.431,2.6,2.6,0,0,1-1.725.411,3.672,3.672,0,0,1-1.912-.338c-.567-.338-1.041-1-1.712-.981a.878.878,0,0,1-.286,0c-.232-.075-.278-.38-.429-.572-.26-.346-.809-.26-1.217-.109a1.765,1.765,0,0,1-1.264.2,1.314,1.314,0,0,1-.549-.549,12.082,12.082,0,0,1-1.353-5.25c-.112-1.1-.965-4.865,1.389-4.009a19.523,19.523,0,0,1,2.96,1.673Z" transform="translate(-356.448 -377.812)" fill="#3f3d56"/>
    <path id="Path_340" data-name="Path 340" d="M497.048,490.97a1.16,1.16,0,0,0,1.428-.057,2.152,2.152,0,0,0,.695-1.348c.26-.081.393.26.559.468.291.354.884.349,1.15.726.185.26.143.622.273.916.169.38.588.578.874.884a3.012,3.012,0,0,1,.572,1.142l.427,1.28a6.326,6.326,0,0,1,.39,1.657,2.146,2.146,0,0,1-.494,1.584,4.2,4.2,0,0,1-3.163.567,2.333,2.333,0,0,1-1.4-1.717,21.675,21.675,0,0,1-.289-2.294,8.994,8.994,0,0,0-.65-2.18c-.229-.541-.858-1.348-.848-1.922C496.757,490.676,496.892,490.848,497.048,490.97Z" transform="translate(-370.29 -385.03)" fill="#3f3d56"/>
    <path id="Path_341" data-name="Path 341" d="M491.908,475.333a4.3,4.3,0,0,1-.211-1.142,4.972,4.972,0,0,1,.715-2.211l-2.973.4a1.317,1.317,0,0,0-.963.421,1.041,1.041,0,0,0,0,.96,4.9,4.9,0,0,1,.354.929,4.637,4.637,0,0,0,.1.835,1.768,1.768,0,0,0,.382.538,18.039,18.039,0,0,1,2.123,3.153c-.018-.031,1.792-1.433,1.72-1.891-.042-.26-.565-.572-.731-.822A4.186,4.186,0,0,1,491.908,475.333Z" transform="translate(-364.216 -372.028)" fill="#be6f72"/>
    <path id="Path_342" data-name="Path 342" d="M435.308,358.04V360.6l-43.878,8.559-2.276,1.379H381.3V369.1l43.111-10.416Z" transform="translate(-282.122 -264.899)" fill="#f1c0c0"/>
    <path id="Path_343" data-name="Path 343" d="M435.308,367.89l-43.878,8.559-2.276,1.379H381.3l43.431-9.295Z" transform="translate(-282.122 -272.187)" opacity="0.1"/>
    <path id="Path_344" data-name="Path 344" d="M443.8,721.906a3.4,3.4,0,0,0-4.136-.879,1.09,1.09,0,0,0-.38.3c-.26.364-.094.866-.07,1.316.06,1.1-.814,1.99-1.6,2.757a3.784,3.784,0,0,0-1.041,1.41,1.321,1.321,0,0,0,.46,1.561,1.918,1.918,0,0,0,.713.2,7.693,7.693,0,0,0,2.523.07,2.734,2.734,0,0,0,2-1.394,1.47,1.47,0,0,1,.336-.554c.458-.362,1.16.062,1.681-.2.429-.213.447-.549.453-.991A5.74,5.74,0,0,0,443.8,721.906Z" transform="translate(-325.839 -556.024)" fill="#6ca37a"/>
    <path id="Path_345" data-name="Path 345" d="M472.563,716.4a8.566,8.566,0,0,1,.406,2.661,2.568,2.568,0,0,1-.242,1.517,2.072,2.072,0,0,1-1.355.781,3.108,3.108,0,0,1-3.041-.848,3.209,3.209,0,0,1-.549-2.414c.083-.7.26-1.519-.242-2.016-.13-.133-.3-.226-.419-.369a1.24,1.24,0,0,1-.078-1.186,5.153,5.153,0,0,0,.408-1.173,15.153,15.153,0,0,1,3.845.294c.44.216.372.578.5,1.015C471.986,715.27,472.339,715.819,472.563,716.4Z" transform="translate(-348.362 -550.566)" fill="#6ca37a"/>
    <path id="Path_346" data-name="Path 346" d="M443.029,579.293a2.89,2.89,0,0,1,1.059,2.131c.294,2.224-.221,4.472-.26,6.717-.036,3.145.874,6.348.1,9.394-.466,1.821-.07,3.9-.507,5.741-.13.546-.369,1.061-.494,1.608a7.015,7.015,0,0,0,.38,3.58,3.7,3.7,0,0,1,.221.97,3.49,3.49,0,0,1-.38,1.467l-1.561,3.691c-.174.414-.861.481-1.3.536a3.253,3.253,0,0,1-2.409-.343,3.082,3.082,0,0,1-.918-2.172,33.291,33.291,0,0,1-.26-4.638,3.822,3.822,0,0,0-.107-1.2,10.556,10.556,0,0,1-.544-1.3,5.223,5.223,0,0,1,.315-1.821,5.487,5.487,0,0,0-.026-1.688c-.1-.832-.219-1.665-.351-2.492a11.044,11.044,0,0,1,.26-3.46,9.54,9.54,0,0,0-.26-3.283,9.051,9.051,0,0,1-.325,2.6c-.138.414-.336.809-.455,1.23-.533,1.891.6,3.876.442,5.835a14.453,14.453,0,0,0-.333,2.724,9.191,9.191,0,0,0,.588,1.9,2.458,2.458,0,0,1,0,1.938c-.845,1.6-.213,3.77.544,5.408a7.31,7.31,0,0,1,.4.9,10.758,10.758,0,0,1,.1,2.3,1.452,1.452,0,0,1-1.22-.367c-.114-.12-.208-.26-.32-.385a3.178,3.178,0,0,0-1.087-.679,1.429,1.429,0,0,0-.78-.179,1.561,1.561,0,0,0-.741.46,7.263,7.263,0,0,1-.817.622.968.968,0,0,1-.416.185.367.367,0,0,1-.382-.2.463.463,0,0,1-.029-.135,20.6,20.6,0,0,1-.153-2.367c0-1.36-1.629-2.3-1.834-3.642-.164-1.085.14-2.19.039-3.283a15.956,15.956,0,0,1-.2-1.675c0-.364.083-.721.112-1.082a8.089,8.089,0,0,0-.018-1.2l-.081-1.256a10.858,10.858,0,0,0-.653-3.642,12.375,12.375,0,0,1-1.015-4.183c-.052-.91-.018-1.821-.122-2.734a13.461,13.461,0,0,1-.242-2.471c.049-.64.26-1.259.31-1.9a9.7,9.7,0,0,0-.734-3.606,5.336,5.336,0,0,1-.156-3.621,1.189,1.189,0,0,1,.333-.484,1.452,1.452,0,0,1,.614-.229,47.633,47.633,0,0,1,13.585-.866A4.511,4.511,0,0,1,443.029,579.293Z" transform="translate(-318.186 -450.83)" fill="#3f3d56"/>
    <circle id="Ellipse_37" data-name="Ellipse 37" cx="4.167" cy="4.167" r="4.167" transform="translate(105.907 92.499)" fill="#be6f72"/>
    <path id="Path_347" data-name="Path 347" d="M426.608,467.744a1.488,1.488,0,0,1,0,.726,1.642,1.642,0,0,1-.273.458A11.757,11.757,0,0,1,425,470.38a2.417,2.417,0,0,0,1.246,1.23,7.236,7.236,0,0,0,1.72.492,1.8,1.8,0,0,0,1.686-.291l2.315-1.387a4.625,4.625,0,0,0,.963-.695,2.37,2.37,0,0,0,.671-1.628.447.447,0,0,0-.083-.307.546.546,0,0,0-.317-.133,2.821,2.821,0,0,1-1.821-1.589,8.419,8.419,0,0,1-.632-2.412l-2.469,1.3c-.367.2-.731.39-1.111.559-.242.109-.731.2-.9.421C425.936,466.35,426.522,467.253,426.608,467.744Z" transform="translate(-317.339 -365.873)" fill="#be6f72"/>
    <path id="Path_348" data-name="Path 348" d="M422.6,479.029a2.744,2.744,0,0,0-.8,1.08,2.813,2.813,0,0,0,.146,1.584,47.265,47.265,0,0,1,1.561,6.709c.219,1.561.3,3.145.406,4.724.219,3.221.536,8.356.96,11.556a30.686,30.686,0,0,0,4.631-.552c2.893-.307,5.871.4,8.7-.26-.687-2.713-1.374-7.346-2.06-10.057a19.19,19.19,0,0,1-.63-3.265c-.06-.793-.023-1.589-.013-2.388.023-1.561-.062-3.122-.148-4.683a29.7,29.7,0,0,0-.629-5.424,1.009,1.009,0,0,0-.3-.6,1.221,1.221,0,0,0-.908-.081,3.949,3.949,0,0,1-2.7-.64c-.343-.234-.8-.52-1.124-.26a1.119,1.119,0,0,0-.26.554,2.77,2.77,0,0,1-1.628,1.605,8.149,8.149,0,0,1-2.3.473,1.131,1.131,0,0,1-.715-.081c-.369-.226-.4-1.041-.861-1.1C423.513,477.887,422.873,478.766,422.6,479.029Z" transform="translate(-314.921 -375.279)" fill="#3f3d56"/>
    <path id="Path_349" data-name="Path 349" d="M415.622,485.872a15.828,15.828,0,0,1-2.081-3.382,7.529,7.529,0,0,0-1.8-1.977,5.361,5.361,0,0,1-.978-.83c-.247-.3-.434-.71-.809-.827a.978.978,0,0,0-.877.242,8.623,8.623,0,0,0-.65.692c-1.1,1.142-3.041,1.3-3.915,2.622a2.15,2.15,0,0,0-.466.976,7.56,7.56,0,0,0,1.389,5.437,1.847,1.847,0,0,0,.963.78,3.012,3.012,0,0,0,.187,1.431,38.264,38.264,0,0,0,1.772,4.826,11.678,11.678,0,0,0-.349,1.87c-.182,1.589-.013,3.2-.185,4.794-.141,1.3-.52,2.568-.533,3.871,0,.208.018.455.2.562a.6.6,0,0,0,.31.065l3.2.1a25.974,25.974,0,0,0,5.562-.234,2.317,2.317,0,0,0,.7-.221,2.35,2.35,0,0,0,.923-1.821,15.869,15.869,0,0,0,.153-2.721c.388,1.225.848,2.492,2.019,3.023a4.529,4.529,0,0,0,2.006.242,37.764,37.764,0,0,0,4.368-.45.575.575,0,0,0,.637-.669l.016-1.42c.031-2.885-.684-5.642-.962-8.514a18.517,18.517,0,0,0-.3-2.708c-.091-.372-.224-.736-.3-1.111a7.935,7.935,0,0,1-.13-1.111l-.2-2.862c-.1-1.324-.234-2.6-.336-3.923a18.992,18.992,0,0,0-.557-3.814c-.226-.78-.7-1.665-1.511-1.761a3.115,3.115,0,0,0-1.27.273,5.13,5.13,0,0,1-3.122-.013,4.4,4.4,0,0,0-.973-.26.955.955,0,0,0-.89.369,1.335,1.335,0,0,0-.138.656A34.7,34.7,0,0,1,415.622,485.872Z" transform="translate(-301.791 -375.769)" fill="#6ca37a"/>
    <path id="Path_350" data-name="Path 350" d="M412.1,500.424a15.8,15.8,0,0,0-3.975-3.356,3.175,3.175,0,0,0-1.974-.437,1.478,1.478,0,0,0-1.27,1.389,8.985,8.985,0,0,0,.359,1.215,12.759,12.759,0,0,0,.1,1.42,2.4,2.4,0,0,0,.52.8l1.842,2.183a11.854,11.854,0,0,0,2.565,2.464,3.856,3.856,0,0,0,3.408.476,4.188,4.188,0,0,0,1.868-1.714c.458-.728.78-1.524,1.21-2.276a11.3,11.3,0,0,1,2.6-3.156,2.891,2.891,0,0,1-1.561-.78,2.577,2.577,0,0,1-.247-.447l-.421-.91a1.04,1.04,0,0,0-.78.294,6.544,6.544,0,0,1-.58.591c-.367.276-.864.351-1.2.666a3.169,3.169,0,0,0-.349.437A2.919,2.919,0,0,1,412.1,500.424Z" transform="translate(-302.45 -390.243)" fill="#3f3d56"/>
    <path id="Path_351" data-name="Path 351" d="M453.025,469.357c.9-1.647.861-3.621,1.119-5.481a2.5,2.5,0,0,1,.5-1.361,2.592,2.592,0,0,1,2.224-.52c.232.026.52.135.507.367a.468.468,0,0,1-.117.221A6.189,6.189,0,0,0,455.97,466c.408.284,1.041-.3,1.433,0,.26.219.14.65-.016.963q-.544,1.085-1.121,2.154a6.917,6.917,0,0,1-1.189,1.714c-.33.317-.718.567-1.054.879-.78.731-1.251,1.764-2.058,2.477a.422.422,0,0,1-.26.133.437.437,0,0,1-.273-.122A3.944,3.944,0,0,1,450.45,473c-.307-.567-.26-.734.224-1.134A8.6,8.6,0,0,0,453.025,469.357Z" transform="translate(-336.025 -364.617)" fill="#be6f72"/>
    <path id="Path_352" data-name="Path 352" d="M412.955,497.106c.156.1.349.205.52.125a.54.54,0,0,0,.174-.169,6.121,6.121,0,0,0,.739-1.285.494.494,0,0,0,.055-.208c0-.167-.148-.289-.286-.385a10.6,10.6,0,0,0-2.365-1.124,4.879,4.879,0,0,0-2.133-.421,2.034,2.034,0,0,0-1.423.723c-.52.669.351.871.9,1.113A34.691,34.691,0,0,1,412.955,497.106Z" transform="translate(-304.818 -388.044)" fill="#6ca37a"/>
    <path id="Path_353" data-name="Path 353" d="M423.668,517.287a.382.382,0,0,0,.109.328c.075-.369-.023-.76.055-1.132.114-.559.658-.981.705-1.543C423.541,514.746,423.676,516.684,423.668,517.287Z" transform="translate(-316.351 -403.803)" opacity="0.1"/>
    <path id="Path_354" data-name="Path 354" d="M557.917,358.04V360.6l-10.577.643-.32-2.565Z" transform="translate(-404.732 -264.899)" opacity="0.2"/>
    <path id="Path_355" data-name="Path 355" d="M416.245,444.225c.661-.539.278-1.668.726-2.391a2.323,2.323,0,0,1,1.132-.78,5.149,5.149,0,0,1,1.652-.458,1.917,1.917,0,0,1,1.561.575c.169.193.284.427.442.627a1.691,1.691,0,0,0,1.639.567c.346-.078.705-.341.682-.695a.981.981,0,0,0-.312-.557l-.744-.825A5.9,5.9,0,0,0,420,438.125a5.19,5.19,0,0,0-2.581.346c-.336.112-.713.278-.806.619-.062.234.031.489-.023.726-.107.471-.71.63-.991,1.025s-.2.864-.276,1.3a11.369,11.369,0,0,0-.343,1.316c-.018.273.12.78.427.879S416.055,443.9,416.245,444.225Z" transform="translate(-309.921 -346.94)" fill="#3f3d56"/>
    <path id="Path_356" data-name="Path 356" d="M423.2,435.221a7.8,7.8,0,0,0-1.384-3.163,5.543,5.543,0,0,0-2.464-1.956,3.528,3.528,0,0,0-3.067.242,4.454,4.454,0,0,0-1.532,1.933,5.168,5.168,0,0,0-.141,4.62c.312-.38.848-.208,1.322-.346a13.773,13.773,0,0,0,1.66-.812C419.294,434.987,421.375,435.6,423.2,435.221Z" transform="translate(-309.292 -340.866)" fill="#fed253"/>
    <path id="Path_357" data-name="Path 357" d="M417.313,446.157a1.59,1.59,0,0,1,.234-1.345.169.169,0,0,1,.138-.062.179.179,0,0,1,.107.094,5.818,5.818,0,0,1,.489.957.994.994,0,0,0-1.041.4" transform="translate(-311.598 -351.882)" opacity="0.1"/>
    <path id="Path_358" data-name="Path 358" d="M440.542,441.4l-.094-.929a.424.424,0,0,1,.018-.229.294.294,0,0,1,.38-.1.78.78,0,0,1,.3.3,5.463,5.463,0,0,1,.536,1.059,3.147,3.147,0,0,0-1.267.016" transform="translate(-328.748 -348.448)" opacity="0.1"/>
    <path id="Path_359" data-name="Path 359" d="M406.84,502.21v2.123l-1.792.12H395.62V502.21Z" transform="translate(-292.717 -371.564)" opacity="0.1"/>
    <path id="Path_360" data-name="Path 360" d="M322.067,397.38v2.242h-11.22L281.04,362.284V360.52h6.249Z" transform="translate(-207.944 -266.734)" fill="#f1c0c0"/>
    <path id="Path_361" data-name="Path 361" d="M322.067,397.38v2.242h-11.22L281.04,362.284V360.52h6.249Z" transform="translate(-207.944 -266.734)" opacity="0.1"/>
    <path id="Path_362" data-name="Path 362" d="M322.067,397.38v2.242h-11.22L281.04,362.284V360.52l29.968,36.86Z" transform="translate(-207.944 -266.734)" opacity="0.1"/>
    <path id="Path_363" data-name="Path 363" d="M298.311,728.823a.78.78,0,0,1-.682.918,4.636,4.636,0,0,0-2,1.041,1.432,1.432,0,0,0,0,2.032,1.975,1.975,0,0,0,1.041.284,7.05,7.05,0,0,0,3.476-.434,5.156,5.156,0,0,1,2.326-.9c.434.026.9.229,1.285.031s.5-.749.5-1.21a8.957,8.957,0,0,0-.429-2.833,11.375,11.375,0,0,0-1.891-.26l-2.006-.26c-.38-.049-1.2-.336-1.5-.018S298.311,728.446,298.311,728.823Z" transform="translate(-221.308 -560.754)" fill="#6ca37a"/>
    <path id="Path_364" data-name="Path 364" d="M352.962,697.883a6.283,6.283,0,0,0,.411,1.363,3.174,3.174,0,0,0,1.316,1.8,2.35,2.35,0,0,0,2.008-.1,1.654,1.654,0,0,0,.669-.507,2.013,2.013,0,0,0,.26-1.168,6.381,6.381,0,0,0-.52-2.942c-.4-.78-1.085-1.452-1.1-2.315l-2.37.458a.676.676,0,0,0-.349.138.6.6,0,0,0-.151.284A7.744,7.744,0,0,0,352.962,697.883Z" transform="translate(-263.99 -536.306)" fill="#6ca37a"/>
    <path id="Path_365" data-name="Path 365" d="M244.244,601.651a3.872,3.872,0,0,0,.38,2.458,1.9,1.9,0,0,0,2.154.913.315.315,0,0,0,.2-.148.367.367,0,0,0-.034-.26,3.84,3.84,0,0,1,.081-2.893c.052-.12.164-.26.286-.213a.26.26,0,0,1,.117.12,1.36,1.36,0,0,1,.182.718,2.67,2.67,0,0,0-.021.689c.049.224.289.434.5.338a.52.52,0,0,0,.237-.336,11.09,11.09,0,0,0,.052-5.268.276.276,0,0,0-.31-.289c-1.228-.122-1.9-.416-2.6.726A7.131,7.131,0,0,0,244.244,601.651Z" transform="translate(-183.572 -464.788)" fill="#6ca37a"/>
    <path id="Path_366" data-name="Path 366" d="M297.4,595.335a15.953,15.953,0,0,0-.536,7.5l.273,2.253c.094.76.185,1.517.317,2.268a6.025,6.025,0,0,1,.138,1.178,6.312,6.312,0,0,1-.185,1.158,13.526,13.526,0,0,0-.273,2.419c-.029,1.3.133,2.6.234,3.9a43.456,43.456,0,0,1-.091,7.783,2.919,2.919,0,0,0,.427,2.006,2.583,2.583,0,0,1,.377.619c.2.6-.26,1.191-.377,1.8a1.821,1.821,0,0,0,1.514,2.081c2.081.247,4.22.135,6.1,1.087.2-.578-.234-1.233-.036-1.821.125-.364.468-.6.7-.908a2.643,2.643,0,0,0,.447-1.587,5.8,5.8,0,0,0-.385-2.151,4.653,4.653,0,0,1-.52-1.751,2.212,2.212,0,0,0-.016-.9,1.4,1.4,0,0,0-.336-.419,5.289,5.289,0,0,1-1.361-3.083,14.2,14.2,0,0,1,.109-3.418,5.808,5.808,0,0,1,.983-3.054,19.6,19.6,0,0,1,.549-7.609c.068-.229.174-.494.408-.549a.583.583,0,0,1,.5.2,3.41,3.41,0,0,1,.78,1.467,3.2,3.2,0,0,1,.245,1.777c-.062.26-.187.489-.26.739a2.19,2.19,0,0,0,.078,1.527,1.466,1.466,0,0,1,.187.575,1.59,1.59,0,0,1-.156.5,2.3,2.3,0,0,0,.216,1.86,6.735,6.735,0,0,0,1.215,1.491,5.463,5.463,0,0,0,.169,3.007.38.38,0,0,1,.034.289c-.047.1-.166.135-.26.206-.26.213-.1.616.075.895a20.525,20.525,0,0,0,1.579,2.19c.52.622.473,1.821,1.249,2.045a2.343,2.343,0,0,0,.989,0,2.592,2.592,0,0,0,1.993-1.015,2.731,2.731,0,0,1,.455-.825c.239-.208.549-.245.682-.494s-.016-.578.029-.866.3-.52.377-.825c.193-.7-.627-1.28-.739-2-.161-1.041,1.15-1.821,1.1-2.862-.114-2.261-.187-4.532-.3-6.792a48.986,48.986,0,0,1-.062-6.085,8.557,8.557,0,0,0-.2-3.756,5.032,5.032,0,0,0-4.279-2.76,21.073,21.073,0,0,0-5.31.52A33.554,33.554,0,0,1,297.4,595.335Z" transform="translate(-222.379 -462.741)" fill="#3f3d56"/>
    <circle id="Ellipse_38" data-name="Ellipse 38" cx="4.167" cy="4.167" r="4.167" transform="translate(76.139 99.395)" fill="#fbbebe"/>
    <path id="Path_367" data-name="Path 367" d="M308.4,497.412a1.777,1.777,0,0,1-1.7,1.074,2.1,2.1,0,0,0,.624,1.746,7.409,7.409,0,0,0,7.091,2.432,3.5,3.5,0,0,0,1.4-.583,3.1,3.1,0,0,0,1.067-1.847,9.182,9.182,0,0,0,.1-2.172.562.562,0,0,0-.114-.4.572.572,0,0,0-.364-.12,6.316,6.316,0,0,1-2.57-.544,1.832,1.832,0,0,1-.95-2.209A9.325,9.325,0,0,1,311.2,495c-.627.088-1.254.187-1.878.3a3.413,3.413,0,0,0-.882.167c-.377.2-.237.1-.148.453A2.152,2.152,0,0,1,308.4,497.412Z" transform="translate(-229.789 -388.905)" fill="#fbbebe"/>
    <path id="Path_368" data-name="Path 368" d="M268.455,505.983a6.9,6.9,0,0,1-1.668-.185,2.341,2.341,0,0,1-1.368-.913c-.193-.291-.317-.658-.624-.822-.5-.26-1.074.18-1.475.583a5.36,5.36,0,0,1-1.254,1.009c-.557.294-1.207.4-1.733.744a4.354,4.354,0,0,0-1.041,1.124l-3.686,5.021c-1.48,2.019-2.768,4.186-4.087,6.316a44.664,44.664,0,0,0-2.6,5.957.666.666,0,0,0-.081.4c.031.135.2.245.31.166-.388.385-.047,1.041-.138,1.582a1.941,1.941,0,0,1-.619.97,4.893,4.893,0,0,1,1.717.081,5.265,5.265,0,0,1,1.623.78c.315-.049.286-.609.52-.817.14-.122.349-.107.533-.143.695-.135.97-.97,1.5-1.441.445-.393,1.074-.52,1.545-.89.765-.6.929-1.67,1.329-2.557.341-.752.877-1.407,1.176-2.177a9.383,9.383,0,0,1,.567-1.5,4.3,4.3,0,0,1,2.081-1.5,3.446,3.446,0,0,1,1.584-.424,14.714,14.714,0,0,0,.081,3.582c.091.416.219.822.328,1.236a23.269,23.269,0,0,1,.637,5.723,17.411,17.411,0,0,1,3.642-.437c.965-.029,1.928.1,2.893.078,1.145-.021,2.276-.242,3.421-.32a6.39,6.39,0,0,1,3.353.52,31.858,31.858,0,0,1,.138-4.943l.276-2.586a15.888,15.888,0,0,1,.346-2.232c.151-.593.369-1.165.536-1.756a20.1,20.1,0,0,0,.367-6.47,8.155,8.155,0,0,0-.991-3.2,8.666,8.666,0,0,0-.624-1.061,6.147,6.147,0,0,0-5.375-2.523,1.087,1.087,0,0,0-.385.083,1.282,1.282,0,0,0-.492.585A6.374,6.374,0,0,1,268.455,505.983Z" transform="translate(-186.673 -394.942)" fill="#3f3d56"/>
    <path id="Path_369" data-name="Path 369" d="M302.132,472.939c.117-.26.432-.356.624-.565.369-.4.2-1.028.26-1.561A2.242,2.242,0,0,1,304.5,469.1a4.792,4.792,0,0,1,2.341-.148,2.266,2.266,0,0,1,1.056.351c.135.1.26.226.388.317a1.041,1.041,0,0,0,1.415-.33,5.122,5.122,0,0,0-4.8-2.758,4.739,4.739,0,0,0-1.915.224A3.191,3.191,0,0,0,301.3,468.7a9.435,9.435,0,0,0-.408,2.6,9.808,9.808,0,0,0,0,1.769,4.892,4.892,0,0,0,.869,2.229.674.674,0,0,0,.26.242C303.212,476.061,302.036,473.155,302.132,472.939Z" transform="translate(-225.491 -367.995)" fill="#3f3d56"/>
    <path id="Path_370" data-name="Path 370" d="M307.1,461.049A5.107,5.107,0,0,0,305.153,458a7.175,7.175,0,0,0-2.614-1.574,3.493,3.493,0,0,0-2.95.359,4.532,4.532,0,0,0-1.436,1.974,6.214,6.214,0,0,0-.627,2.862,3.085,3.085,0,0,0,1.4,2.477,2.627,2.627,0,0,1,1.353-.871,66.244,66.244,0,0,1,6.824-2.175Z" transform="translate(-223.025 -360.395)" fill="#fed253"/>
    <path id="Path_371" data-name="Path 371" d="M303.2,472.72c.083,0,.138.086.18.156a6.6,6.6,0,0,1,.544,1.041c-.3.065-.827.138-.978-.13C302.86,473.651,302.956,472.707,303.2,472.72Z" transform="translate(-227.012 -372.576)" opacity="0.1"/>
    <path id="Path_372" data-name="Path 372" d="M326.4,466.807c-.062.06-.135-.062-.135-.151v-1.009a.148.148,0,0,1,.018-.081.122.122,0,0,1,.086-.042c.211-.023.385.156.52.328a5.5,5.5,0,0,1,.533.887l-1.1-.034" transform="translate(-244.292 -367.25)" opacity="0.1"/>
    <path id="Path_373" data-name="Path 373" d="M355.878,515.692a6.805,6.805,0,0,1,.765-.627,11.544,11.544,0,0,1,2.4-.978,3.169,3.169,0,0,0,1.946-1.61,3.824,3.824,0,0,0,.151-1.561,1.561,1.561,0,0,0-.114-.643,1.278,1.278,0,0,0-.411-.447,5.946,5.946,0,0,0-3.933-.793,24.653,24.653,0,0,0-8.691,2.17.755.755,0,0,0-.364.26.744.744,0,0,0-.07.362,5.983,5.983,0,0,0,.294,2.266c.359.926,1.1,1.673,1.407,2.617.14.424.187.874.31,1.3a1.821,1.821,0,0,0,.731,1.087c1.028.614,2-.211,2.711-.851Z" transform="translate(-260.033 -399.422)" fill="#3f3d56"/>
    <path id="Path_374" data-name="Path 374" d="M301.337,513.241l-1.319-2.877a10.055,10.055,0,0,1-.5-1.23c-.151-.5-.224-1.022-.364-1.527-.463-1.681-1.631-3.08-2.2-4.727a.9.9,0,0,0-.213-.4.7.7,0,0,0-.58-.1,9.061,9.061,0,0,0-2.146,1.087c-.338.156-.7.26-1.041.44a1.3,1.3,0,0,0-.7.83,2.029,2.029,0,0,0,.284,1.168,13.192,13.192,0,0,1,.9,5.13,5.455,5.455,0,0,1-.731,3.382c-1.335,1.821-.481,4.5.018,6.7.06.26.13.541.172.817a7.507,7.507,0,0,1,.06,1.041,8.144,8.144,0,0,1-.554,3.431,3.841,3.841,0,0,0,1.561.442q2.266.289,4.55.406a4.957,4.957,0,0,0,1.428-.073,2.6,2.6,0,0,0,1.922-2.549,3.216,3.216,0,0,0,.76,2,3.026,3.026,0,0,0,2,.614,37.091,37.091,0,0,0,6.009-.169,1.04,1.04,0,0,0,.369-.086c.385-.193.406-.723.375-1.15-.057-.8-.117-1.6-.213-2.391a9.788,9.788,0,0,1-.125-1.53,8.8,8.8,0,0,1,.26-1.561,17.7,17.7,0,0,0,.507-4.943,8.352,8.352,0,0,1-.049-1.22,16.168,16.168,0,0,0,.46-2.705,44.291,44.291,0,0,0-1.22-8.031,2.081,2.081,0,0,0-.71-1.225c-.52-.349-1.251-.166-1.847-.388a4.622,4.622,0,0,1-.793-.471,3.642,3.642,0,0,0-1.792-.551,1.521,1.521,0,0,0-1.3.473,1.889,1.889,0,0,0-.26.71c-.377,1.587-.819,3.155-1.262,4.724l-.424,1.5-1.137,4.037C301.376,512.7,301.452,512.835,301.337,513.241Z" transform="translate(-218.95 -393.368)" fill="#6ca37a"/>
    <path id="Path_375" data-name="Path 375" d="M328.206,400.25l25.164,26.443v2.242H342.15l-18.91-24.68" transform="translate(-239.166 -296.128)" fill="#f1c0c0"/>
    <path id="Path_376" data-name="Path 376" d="M328.206,400.25l25.164,26.443v2.242H342.15l-18.91-24.68" transform="translate(-239.166 -296.128)" opacity="0.1"/>
    <path id="Path_377" data-name="Path 377" d="M323.641,414.31l.081.029,18.59,22.757H353.37v2.242H342.15l-18.91-24.68Z" transform="translate(-239.166 -306.531)" opacity="0.1"/>
    <path id="Path_378" data-name="Path 378" d="M340.61,501.118c-.91.4-1.922.908-2.2,1.865a1.072,1.072,0,0,0-.034.52,1.061,1.061,0,0,0,.955.731,3.12,3.12,0,0,0,1.251-.229l5.372-1.774c.146-.047.312-.117.349-.26a.447.447,0,0,0-.052-.26c-.166-.406-.33-1.236-.679-1.519-.286-.229-.853-.148-1.2-.143A9.725,9.725,0,0,0,340.61,501.118Z" transform="translate(-253.24 -392.782)" fill="#6ca37a"/>
    <path id="Path_379" data-name="Path 379" d="M362.147,500.9a8.638,8.638,0,0,1,2.666.414,4.75,4.75,0,0,1,2.209,1.509,1.655,1.655,0,0,1,.349.682c.052.26.9.416.713.593.57-.091.434.177,1.012.172a1.912,1.912,0,0,0,1.548-.614,2.011,2.011,0,0,0,.3-1.272,2.166,2.166,0,0,0-.172-.9,2.658,2.658,0,0,0-1.41-1.093l-4.646-2.125a3.084,3.084,0,0,0-.858-.3,3.209,3.209,0,0,0-.757.018l-2.1.242A3.155,3.155,0,0,1,362.439,501" transform="translate(-269.988 -391.239)" fill="#3f3d56"/>
  </g>
</svg>
