<svg xmlns="http://www.w3.org/2000/svg" width="275" height="214.39" viewBox="0 0 275 214.39">
  <g id="undraw_spreadsheets_xdjy" transform="translate(-36.297 -21.29)">
    <path id="Path_380" data-name="Path 380" d="M319.99,263.969H84.37V49.58h275V234.764l-.158,28.9Z" transform="translate(-48.069 -28.29)" fill="#fff"/>
    <g id="Group_25" data-name="Group 25" transform="translate(36.301 95.504)" opacity="0.7">
      <rect id="Rectangle_114" data-name="Rectangle 114" width="274.996" height="2.953" fill="#e0e0e0"/>
    </g>
    <g id="Group_26" data-name="Group 26" transform="translate(36.301 79.575)" opacity="0.7">
      <rect id="Rectangle_115" data-name="Rectangle 115" width="274.996" height="2.953" fill="#e0e0e0"/>
    </g>
    <g id="Group_27" data-name="Group 27" transform="translate(36.301 63.647)" opacity="0.7">
      <rect id="Rectangle_116" data-name="Rectangle 116" width="274.996" height="2.953" fill="#e0e0e0"/>
    </g>
    <g id="Group_28" data-name="Group 28" transform="translate(36.301 47.718)" opacity="0.7">
      <rect id="Rectangle_117" data-name="Rectangle 117" width="274.996" height="2.953" fill="#e0e0e0"/>
    </g>
    <g id="Group_29" data-name="Group 29" transform="translate(36.301 31.79)" opacity="0.7">
      <rect id="Rectangle_118" data-name="Rectangle 118" width="274.996" height="2.953" fill="#e0e0e0"/>
    </g>
    <g id="Group_30" data-name="Group 30" transform="translate(36.301 111.437)" opacity="0.7">
      <rect id="Rectangle_119" data-name="Rectangle 119" width="274.996" height="2.953" fill="#e0e0e0"/>
    </g>
    <g id="Group_31" data-name="Group 31" transform="translate(36.301 127.374)" opacity="0.7">
      <rect id="Rectangle_120" data-name="Rectangle 120" width="274.996" height="2.953" fill="#e0e0e0"/>
    </g>
    <g id="Group_32" data-name="Group 32" transform="translate(36.301 143.311)" opacity="0.7">
      <rect id="Rectangle_121" data-name="Rectangle 121" width="274.996" height="2.953" fill="#e0e0e0"/>
    </g>
    <g id="Group_33" data-name="Group 33" transform="translate(36.301 159.248)" opacity="0.7">
      <rect id="Rectangle_122" data-name="Rectangle 122" width="274.996" height="2.953" fill="#e0e0e0"/>
    </g>
    <g id="Group_34" data-name="Group 34" transform="translate(36.301 175.181)" opacity="0.7">
      <rect id="Rectangle_123" data-name="Rectangle 123" width="274.996" height="2.953" fill="#e0e0e0"/>
    </g>
    <g id="Group_35" data-name="Group 35" transform="translate(36.301 191.118)" opacity="0.7">
      <rect id="Rectangle_124" data-name="Rectangle 124" width="274.996" height="2.953" fill="#e0e0e0"/>
    </g>
    <g id="Group_36" data-name="Group 36" transform="translate(36.297 207.055)" opacity="0.7">
      <rect id="Rectangle_125" data-name="Rectangle 125" width="274.952" height="2.953" fill="#e0e0e0"/>
    </g>
    <g id="Group_37" data-name="Group 37" transform="translate(36.301 222.992)" opacity="0.7">
      <rect id="Rectangle_126" data-name="Rectangle 126" width="274.739" height="2.953" fill="#e0e0e0"/>
    </g>
    <rect id="Rectangle_127" data-name="Rectangle 127" width="1.905" height="200.949" transform="translate(69.325 34.73)" fill="#e0e0e0"/>
    <rect id="Rectangle_128" data-name="Rectangle 128" width="1.905" height="200.949" transform="translate(111.401 34.73)" fill="#e0e0e0"/>
    <rect id="Rectangle_129" data-name="Rectangle 129" width="1.905" height="200.949" transform="translate(153.477 34.73)" fill="#e0e0e0"/>
    <rect id="Rectangle_130" data-name="Rectangle 130" width="1.905" height="200.949" transform="translate(195.552 34.73)" fill="#e0e0e0"/>
    <rect id="Rectangle_131" data-name="Rectangle 131" width="1.905" height="200.949" transform="translate(237.628 34.73)" fill="#e0e0e0"/>
    <path id="Path_381" data-name="Path 381" d="M748.065,281.624H746.16V80.675l1.905-.095Z" transform="translate(-466.456 -45.945)" fill="#e0e0e0"/>
    <ellipse id="Ellipse_43" data-name="Ellipse 43" cx="2.475" cy="2.897" rx="2.475" ry="2.897" transform="translate(39.975 23.343)" fill="#ff5252"/>
    <ellipse id="Ellipse_44" data-name="Ellipse 44" cx="2.475" cy="2.897" rx="2.475" ry="2.897" transform="translate(47.063 23.343)" fill="#ff0"/>
    <ellipse id="Ellipse_45" data-name="Ellipse 45" cx="2.475" cy="2.897" rx="2.475" ry="2.897" transform="translate(54.15 23.343)" fill="#69f0ae"/>
    <rect id="Rectangle_132" data-name="Rectangle 132" width="40.457" height="12.915" transform="translate(113.167 146.135)" fill="#6ca37a"/>
    <rect id="Rectangle_133" data-name="Rectangle 133" width="40.457" height="12.915" transform="translate(155.463 209.849)" fill="#6ca37a"/>
    <rect id="Rectangle_134" data-name="Rectangle 134" width="40.457" height="12.915" transform="translate(197.391 192.629)" fill="#6ca37a"/>
    <rect id="Rectangle_135" data-name="Rectangle 135" width="40.457" height="12.915" transform="translate(197.391 98.349)" fill="#6ca37a"/>
    <rect id="Rectangle_136" data-name="Rectangle 136" width="40.457" height="12.915" transform="translate(239.688 162.064)" fill="#6ca37a"/>
    <rect id="Rectangle_137" data-name="Rectangle 137" width="40.457" height="12.915" transform="translate(70.87 50.564)" fill="#6ca37a"/>
    <rect id="Rectangle_138" data-name="Rectangle 138" width="40.457" height="12.915" transform="translate(155.463 82.851)" fill="#6ca37a"/>
    <rect id="Rectangle_139" data-name="Rectangle 139" width="40.457" height="12.915" transform="translate(70.87 114.278)" fill="#6ca37a"/>
  </g>
</svg>
