<svg xmlns="http://www.w3.org/2000/svg" xmlns:xlink="http://www.w3.org/1999/xlink" width="280.59" height="214.727" viewBox="0 0 280.59 214.727">
  <defs>
    <linearGradient id="linear-gradient" x1="-0.03" y1="0.503" x2="0.97" y2="0.503" gradientUnits="objectBoundingBox">
      <stop offset="0" stop-color="gray" stop-opacity="0.251"/>
      <stop offset="0.54" stop-color="gray" stop-opacity="0.122"/>
      <stop offset="1" stop-color="gray" stop-opacity="0.102"/>
    </linearGradient>
  </defs>
  <g id="undraw_pair_programming_njlp" transform="translate(-69.595 -46.76)">
    <rect id="Rectangle_43" data-name="Rectangle 43" width="101.885" height="23.592" transform="translate(123.728 125.284)" fill="#565661"/>
    <rect id="Rectangle_44" data-name="Rectangle 44" width="101.885" height="23.592" transform="translate(123.728 125.284)" opacity="0.1"/>
    <path id="Path_150" data-name="Path 150" d="M376.372,427.03l.715,62.983-9.8,24.739-.758-87.722Z" transform="translate(-240.454 -277.378)" fill="#bcbec9"/>
    <path id="Path_151" data-name="Path 151" d="M362.99,371.84l99.2.6v17.571h-99.2Z" transform="translate(-238.187 -242.027)" fill="#565661"/>
    <path id="Path_152" data-name="Path 152" d="M615.33,427.03l8.487,1.2V513.8l-8.487-26.173Z" transform="translate(-399.818 -277.378)" fill="#bcbec9"/>
    <rect id="Rectangle_45" data-name="Rectangle 45" width="47.806" height="101.587" transform="translate(227.224 126.229)" fill="#efeff0"/>
    <rect id="Rectangle_46" data-name="Rectangle 46" width="40.157" height="78.088" transform="translate(231.049 129.051)" fill="#565661"/>
    <rect id="Rectangle_47" data-name="Rectangle 47" width="40.157" height="78.088" transform="translate(231.049 129.051)" opacity="0.1"/>
    <rect id="Rectangle_48" data-name="Rectangle 48" width="40.157" height="17.33" transform="translate(231.049 130.651)" fill="#565661"/>
    <rect id="Rectangle_49" data-name="Rectangle 49" width="40.157" height="36.81" transform="translate(231.049 149.652)" fill="#565661"/>
    <rect id="Rectangle_50" data-name="Rectangle 50" width="40.157" height="36.81" transform="translate(231.049 188.734)" fill="#565661"/>
    <rect id="Rectangle_51" data-name="Rectangle 51" width="40.157" height="36.81" transform="translate(231.049 188.734)" opacity="0.1"/>
    <ellipse id="Ellipse_6" data-name="Ellipse 6" cx="2.588" cy="3.307" rx="2.588" ry="3.307" transform="translate(230.136 227.816)" fill="#565661"/>
    <ellipse id="Ellipse_7" data-name="Ellipse 7" cx="2.588" cy="3.307" rx="2.588" ry="3.307" transform="translate(266.029 227.974)" fill="#565661"/>
    <path id="Path_153" data-name="Path 153" d="M354.1,474.585h3.465l-.953-110.265H351.35Z" transform="translate(-230.731 -237.21)" fill="#efeff0"/>
    <path id="Path_154" data-name="Path 154" d="M638.94,361.87V472.059h3.225V362.751Z" transform="translate(-414.94 -235.641)" fill="#efeff0"/>
    <path id="Path_155" data-name="Path 155" d="M366.46,419.38v3.947h97.949v-2.869Z" transform="translate(-240.409 -272.478)" fill="#efeff0"/>
    <path id="Path_156" data-name="Path 156" d="M362.358,341.26H486.534l18.046,5.974V350.7l-154.89-1.193V345.98Z" transform="translate(-229.668 -222.44)" fill="#fff"/>
    <path id="Path_157" data-name="Path 157" d="M349.69,354.39l154.89,1.255v3.465l-154.89-1.193Z" transform="translate(-229.668 -230.85)" fill="#bcbec9"/>
    <path id="Path_158" data-name="Path 158" d="M422.271,548.391l-.719-.108v-.09c-.022-.169-.047-.334-.072-.5.295.234.575.467.834.7Z" transform="translate(-288.218 -383.756)" fill="url(#linear-gradient)"/>
    <path id="Path_159" data-name="Path 159" d="M371.1,702.884c.467-.108.942-.2,1.416-.262a17.045,17.045,0,0,1,9.569,1.409,15.888,15.888,0,0,0,.04,6.664c.446,1.51,1.341,2.876,1.531,4.45a2.624,2.624,0,0,1,2.067,1.826,3.97,3.97,0,0,1,.2,1.28,6.827,6.827,0,0,1-.2,1.6A1.611,1.611,0,0,1,384,721.286c-2.782.316-5.511-.78-8.1-1.855l-5.033-2.092c-.589-.244-1.183-.493-1.747-.794a9.579,9.579,0,0,1-2.8-2.29,1.278,1.278,0,0,1-.334-.6c-.093-.633.647-1.01,1.118-1.438a2.237,2.237,0,0,0,.359-.438,12.787,12.787,0,0,0,.945-2.994c.791-2.354,3.235-3.871,4.1-6.169.047-.126.09-.251.126-.381" transform="translate(-252.668 -482.743)" fill="#a26565"/>
    <path id="Path_160" data-name="Path 160" d="M385.926,735.258a6.827,6.827,0,0,1-.2,1.6A1.61,1.61,0,0,1,384,738.292c-2.782.316-5.511-.78-8.1-1.855l-5.033-2.092c-.589-.244-1.183-.492-1.747-.794a9.575,9.575,0,0,1-2.8-2.29,1.276,1.276,0,0,1-.334-.6c-.093-.633.647-1.01,1.118-1.438a2.242,2.242,0,0,0,.359-.438,44,44,0,0,1,4.17,1.51,12.652,12.652,0,0,1,3.034,1.269,24.075,24.075,0,0,1,3.4,3.235,5.636,5.636,0,0,0,4.134,1.927,6.83,6.83,0,0,0,2.351-.812Z" transform="translate(-252.668 -499.749)" opacity="0.1"/>
    <path id="Path_161" data-name="Path 161" d="M387.674,598.414a1.664,1.664,0,0,1-.611,1.8c-.471.291-1.078.252-1.546.568a2.652,2.652,0,0,0-.762,1.909c-.359,2.4-1.549,4.572-2.567,6.776s-1.876,4.608-1.5,7c.255,1.625,1.053,3.357.305,4.82-.183.359-.456.679-.665,1.028-1.024,1.711-.442,3.879-.482,5.87a1.159,1.159,0,0,1-.14.636,1.754,1.754,0,0,1-.568.439,3.013,3.013,0,0,0-1.226,2.312,8.838,8.838,0,0,0,.324,2.682,1.6,1.6,0,0,0,.442.935,1.652,1.652,0,0,0,.967.273,21.51,21.51,0,0,1,6.564,1.6,21.289,21.289,0,0,0,4.134,1.553,1.078,1.078,0,0,0,.848-.09,1.168,1.168,0,0,0,.359-.622,14.622,14.622,0,0,0,.931-5.63c-.083-.819-.3-1.621-.36-2.441-.252-3.235,1.938-6.154,2.631-9.346.313-1.438.313-2.926.536-4.378.6-3.979,2.8-7.549,3.641-11.485a12.479,12.479,0,0,1,.546-2.157c.629-1.524,2.085-2.761,2.117-4.411a1.718,1.718,0,0,0-.273-1.028,2.329,2.329,0,0,0-1.283-.719,43.811,43.811,0,0,0-5.949-1.2,11.268,11.268,0,0,0-2.8-.194,8.231,8.231,0,0,0-3.422,1.208C386.481,596.973,387.372,597.178,387.674,598.414Z" transform="translate(-260.308 -413.99)" fill="#454b69"/>
    <path id="Path_162" data-name="Path 162" d="M387.674,598.414a1.664,1.664,0,0,1-.611,1.8c-.471.291-1.078.252-1.546.568a2.652,2.652,0,0,0-.762,1.909c-.359,2.4-1.549,4.572-2.567,6.776s-1.876,4.608-1.5,7c.255,1.625,1.053,3.357.305,4.82-.183.359-.456.679-.665,1.028-1.024,1.711-.442,3.879-.482,5.87a1.159,1.159,0,0,1-.14.636,1.754,1.754,0,0,1-.568.439,3.013,3.013,0,0,0-1.226,2.312,8.838,8.838,0,0,0,.324,2.682,1.6,1.6,0,0,0,.442.935,1.652,1.652,0,0,0,.967.273,21.51,21.51,0,0,1,6.564,1.6,21.289,21.289,0,0,0,4.134,1.553,1.078,1.078,0,0,0,.848-.09,1.168,1.168,0,0,0,.359-.622,14.622,14.622,0,0,0,.931-5.63c-.083-.819-.3-1.621-.36-2.441-.252-3.235,1.938-6.154,2.631-9.346.313-1.438.313-2.926.536-4.378.6-3.979,2.8-7.549,3.641-11.485a12.479,12.479,0,0,1,.546-2.157c.629-1.524,2.085-2.761,2.117-4.411a1.718,1.718,0,0,0-.273-1.028,2.329,2.329,0,0,0-1.283-.719,43.811,43.811,0,0,0-5.949-1.2,11.268,11.268,0,0,0-2.8-.194,8.231,8.231,0,0,0-3.422,1.208C386.481,596.973,387.372,597.178,387.674,598.414Z" transform="translate(-260.308 -413.99)" opacity="0.05"/>
    <path id="Path_163" data-name="Path 163" d="M341.262,595.23H338.2l-2.006-41.21-.14-2.344,2.606-.917.176,2.491Z" transform="translate(-220.931 -356.63)" fill="#565661"/>
    <path id="Path_164" data-name="Path 164" d="M338.832,553.251l-2.642.769-.14-2.344,2.606-.917Z" transform="translate(-220.931 -356.63)" opacity="0.1"/>
    <path id="Path_165" data-name="Path 165" d="M298.62,584.392l-5.058.611-23.3-52.882-6.284-.46-11.036,3.221L250.8,597.844h-5.058l1.991-65.262-12.111.309-21.612,53.8h-4.6l22.729-62.875.877-2.423,33.873-1.161,8.444,4.734.108.273Z" transform="translate(-139.815 -337.075)" fill="#565661"/>
    <path id="Path_166" data-name="Path 166" d="M350.9,606.167c-7.279,2.193-14.835,4.587-14.835,4.587s-6.891,2.405-9.81,0a4.421,4.421,0,0,0-1.219-.672,5.99,5.99,0,0,0,1.219.672L307.6,604.74l.873-2.419,33.877-1.161,8.444,4.734Z" transform="translate(-215.275 -418.005)" opacity="0.1"/>
    <path id="Path_167" data-name="Path 167" d="M332.2,580.6,346,577.53s32.956,6.133,35.408,8.584c0,0-26.364,5.363-29.276,7.189S331.894,597.15,332.2,580.6Z" transform="translate(-231.031 -402.869)" fill="#fff"/>
    <path id="Path_168" data-name="Path 168" d="M298.611,433.807c-1.078,3.419-4.022,6.5-7.606,6.647a1.326,1.326,0,0,1-.759-.137,1.2,1.2,0,0,1-.277-1.438,6.22,6.22,0,0,0,.554-1.474.964.964,0,0,0-.022-.32c-.093-.428-.442-.809-.852-.719a1.438,1.438,0,0,0,.305-1.909,4.322,4.322,0,0,1-.439-.59c-.3-.611.165-1.3.359-1.952.4-1.438-.615-2.876-.7-4.375-.072-1.341.608-2.6.776-3.933.27-2.157-.8-4.224-.927-6.377a13.5,13.5,0,0,1,.7-4.44,16.049,16.049,0,0,0,.791-3.954c0-.981-.169-1.952-.216-2.93a5.1,5.1,0,0,1,.471-2.6,2.081,2.081,0,0,1,1.183-1.01,1.5,1.5,0,0,1,2.125,1.337c.288,1.9.122,3.843.5,5.752a26.958,26.958,0,0,0,1.578,5.209c.636,1.517,1.409,2.984,1.9,4.554a25.1,25.1,0,0,1,.787,3.954C299.323,426.693,299.7,430.389,298.611,433.807Z" transform="translate(-203.371 -290.55)" fill="#6ca37a"/>
    <path id="Path_169" data-name="Path 169" d="M509.244,714.97a5.574,5.574,0,0,1-3.929,2.315c-1.56.194-3.181-.2-4.695.23a1.438,1.438,0,0,0-1.078.83,8.819,8.819,0,0,0-.068.881c-.176.96-1.438,1.176-2.419,1.168l-4.048-.025a3.344,3.344,0,0,1-2.376-.629,1.768,1.768,0,0,1-.036-2.329,1.461,1.461,0,0,1,.453-.359,1.438,1.438,0,0,1-.971-1.154,4.292,4.292,0,0,1,.075-1.585c0-1.5.36-4.019,1.416-5.194,1.3-1.463,3.548-3.354,5.507-3.746a4.313,4.313,0,0,1,3.731,1.06c.927.863,1.6,2.214,2.876,2.365a7.139,7.139,0,0,0,2.049-.359,3.814,3.814,0,0,1,3.886,2.053,4.047,4.047,0,0,1,.359,1.125,4.673,4.673,0,0,1-.733,3.354Z" transform="translate(-332.13 -484.707)" fill="#a26565"/>
    <path id="Path_170" data-name="Path 170" d="M509.491,726.24a5.575,5.575,0,0,1-3.929,2.315c-1.56.194-3.181-.2-4.695.23a1.438,1.438,0,0,0-1.078.83q-.056.438-.068.881c-.176.96-1.438,1.176-2.419,1.168l-4.048-.025a3.344,3.344,0,0,1-2.376-.629,1.769,1.769,0,0,1-.036-2.329,42.341,42.341,0,0,0,6.963-.482c.945-.191,1.877-.442,2.833-.575,2.071-.295,4.274-.043,6.176-.92a6.979,6.979,0,0,0,3.393-3.814A4.672,4.672,0,0,1,509.491,726.24Z" transform="translate(-332.378 -495.976)" opacity="0.1"/>
    <path id="Path_171" data-name="Path 171" d="M369.694,602.476a9.006,9.006,0,0,1-4.936,2.078,5.017,5.017,0,0,1-4.623-2.294c-1.3-2.311-.147-5.525-1.736-7.646-.5-.665-1.211-1.136-1.736-1.779a2,2,0,0,1-.359-2.293c-.564.216-1.161-.331-1.327-.913a16.671,16.671,0,0,1-.162-1.8c-.263-1.564-1.8-2.567-2.534-3.954s-.636-3.189-.719-4.831a18.332,18.332,0,0,0-4.242-10.91,2.551,2.551,0,0,0-1.876-1.147,3.54,3.54,0,0,0-1.88-3.235,9.318,9.318,0,0,0-3.8-1.014c-13.275-1.308-27.108,3.627-39.783-.525a17.668,17.668,0,0,1-9.084-6.111,10.684,10.684,0,0,1-1.9-8.081v-.05c.5-2.552,1.848-3.181,4.08-4.346a48.982,48.982,0,0,1,8.049-3.375,32.665,32.665,0,0,1,16.762-1.057c2.6.582,5.1,1.546,7.707,2.11,1.025.223,2.056.381,3.1.514,1.614.2,3.235.334,4.86.521a73.522,73.522,0,0,1,15.263,3.433,19.984,19.984,0,0,1,5.273,2.473,11.683,11.683,0,0,1,4.688,7.714c.151,1.057.155,2.157.385,3.181a16.174,16.174,0,0,0,.863,2.516,167.381,167.381,0,0,1,7.509,23.366,5.676,5.676,0,0,0,.6,1.689c.46.744,1.251,1.244,1.715,1.988,1.078,1.754.04,4.2,1,6.028.331.633.881,1.132,1.211,1.765C373.127,598.568,371.534,601.049,369.694,602.476Z" transform="translate(-203.26 -377.895)" fill="#454b69"/>
    <path id="Path_172" data-name="Path 172" d="M456.223,595.626a5.929,5.929,0,0,0,1.3-1.438,2.682,2.682,0,0,0,.4-1.859,5.317,5.317,0,0,1-1.4,4.573c-.9.924-2.6,1.83-3.915,1.513C452.8,597.359,455.385,596.338,456.223,595.626Z" transform="translate(-308.158 -412.349)" opacity="0.1"/>
    <path id="Path_173" data-name="Path 173" d="M329.152,543.256a2.412,2.412,0,0,1-1.6,1.646,6.651,6.651,0,0,1-2.369.277h-.719c-9.433-.208-18.966-2.3-28.179-.306a20.4,20.4,0,0,0-3.257.96,14.7,14.7,0,0,0-3.742,2.157v-.05c.5-2.552,1.848-3.181,4.08-4.346a48.971,48.971,0,0,1,8.038-3.343,32.666,32.666,0,0,1,16.762-1.057c2.6.582,5.1,1.546,7.707,2.11,1.025.223,2.056.381,3.1.514a2.484,2.484,0,0,1,.18,1.438Z" transform="translate(-203.547 -377.895)" opacity="0.1"/>
    <path id="Path_174" data-name="Path 174" d="M327.289,532.362a2.408,2.408,0,0,1-1.6,1.65,6.562,6.562,0,0,1-2.369.273h-.719c-9.432-.208-18.966-2.3-28.179-.305a20.747,20.747,0,0,0-3.257.956,14.814,14.814,0,0,0-3.9,2.3q-.413-1.136-.823-2.276c-.331-.906.719-1.107.92-1.92a4.375,4.375,0,0,0-.208-1.761,3.08,3.08,0,0,1-.058-.435,2.767,2.767,0,0,1,1.463-2.746,40.545,40.545,0,0,1,10.608-4.591,26.237,26.237,0,0,1,5.9-1.143,28.929,28.929,0,0,1,8.419,1.024,36.111,36.111,0,0,1,9.749,3.717,9.173,9.173,0,0,1,3.706,3.469,2.732,2.732,0,0,1,.349,1.787Z" transform="translate(-201.684 -367.515)" fill="#a26565"/>
    <path id="Path_175" data-name="Path 175" d="M300.113,433.852c-1.078,3.419-4.023,6.5-7.606,6.647a1.325,1.325,0,0,1-.758-.137,1.2,1.2,0,0,1-.277-1.438,6.221,6.221,0,0,0,.554-1.474.962.962,0,0,0-.022-.32c1.9-2.682,3.746-5.392,4.475-8.566a4.578,4.578,0,0,0,.133-1.679,14.926,14.926,0,0,0-.6-1.859,9.693,9.693,0,0,1-.079-3.426,31.632,31.632,0,0,0-2.459-14.771,13.858,13.858,0,0,1-1.208-3.455,2.081,2.081,0,0,1,1.183-1.01,1.5,1.5,0,0,1,2.124,1.337c.288,1.9.122,3.843.5,5.752a26.958,26.958,0,0,0,1.578,5.209c.636,1.517,1.409,2.984,1.9,4.554a25.093,25.093,0,0,1,.787,3.954C300.825,426.738,301.2,430.433,300.113,433.852Z" transform="translate(-204.873 -290.595)" opacity="0.1"/>
    <path id="Path_176" data-name="Path 176" d="M328.578,532.336a2.408,2.408,0,0,1-1.6,1.65,6.562,6.562,0,0,1-2.369.273h-.719a15.663,15.663,0,0,0-10.425-2.516,16.848,16.848,0,0,1-3.516.306c-2.369-.216-4.289-1.92-6.4-3.009a13.437,13.437,0,0,0-14.893,2.02l-.2.18a3.073,3.073,0,0,1-.057-.435,2.767,2.767,0,0,1,1.463-2.746,40.538,40.538,0,0,1,10.608-4.591,26.234,26.234,0,0,1,5.9-1.143,28.929,28.929,0,0,1,8.419,1.024,36.1,36.1,0,0,1,9.749,3.717,9.346,9.346,0,0,1,3.7,3.483A2.732,2.732,0,0,1,328.578,532.336Z" transform="translate(-202.973 -367.489)" opacity="0.1"/>
    <path id="Path_177" data-name="Path 177" d="M330.931,389.572l-.05.129c-.805,2.089-2.286,3.854-3.235,5.888a25.079,25.079,0,0,0-1.758,8.3,43.12,43.12,0,0,0-.273,7.3c.46,6,3.39,11.683,4.173,17.564a19.524,19.524,0,0,1,.147,4.1,4.049,4.049,0,0,1-.8,2.437,1.678,1.678,0,0,1-2.311.277c.277-.528.557-1.053.838-1.582-1.643-1.276-4.116-.359-6.035-1.157a9.718,9.718,0,0,1-2.229-1.585,15.63,15.63,0,0,0-11.643-3.4,16.609,16.609,0,0,1-3.516.309c-2.369-.219-4.289-1.92-6.4-3.009a13.444,13.444,0,0,0-14.893,2.017c-.5.467-1.179,1.014-1.8.719a1.5,1.5,0,0,1-.557-.607c-2.354-4.023-.622-9.21,1.894-13.128s5.849-7.531,6.884-12.071a4.5,4.5,0,0,0,.133-1.679,14.94,14.94,0,0,0-.6-1.859,9.691,9.691,0,0,1-.079-3.426,31.634,31.634,0,0,0-2.452-14.774,10.872,10.872,0,0,1-1.258-4.156c0-2.293,1.643-4.2,3-6.039,1.564-2.121,2.876-4.468,4.856-6.212,1.876-1.657,4.594-2.671,6.916-1.83a43.118,43.118,0,0,1,12.064-1.176,9.242,9.242,0,0,1,4.08.892c1.316.719,2.261,2,3.555,2.764a19.383,19.383,0,0,0,3.063,1.226,12.657,12.657,0,0,1,6.6,5.9c1.438,2.786,1.8,5.989,2.114,9.109C331.664,383.756,331.952,386.808,330.931,389.572Z" transform="translate(-197.263 -264.102)" fill="#6ca37a"/>
    <path id="Path_178" data-name="Path 178" d="M393.855,429.423c.46,6,3.39,11.683,4.173,17.564-1.567-1.326-3.749-2.66-4.041-4.2-.323-1.668-1.359-3.854-1.531-5.54s1.01-3.746-.23-4.9c-.6-.564,1-.406.413-.985-1.326-1.291-1.654-3.278-1.736-5.123-.14-3.264.273-6.564-.327-9.774a49.2,49.2,0,0,0-1.711-5.791c-.7-2.24-1.2-4.533-1.7-6.83a47.849,47.849,0,0,1-1.078-6.2,10.178,10.178,0,0,1,.719-5.342,4.928,4.928,0,0,1,4.242-2.944c6.082.079,5.033,8.325,6.37,12.136a30.757,30.757,0,0,1,1.549,4.565,12.1,12.1,0,0,1,.173,1.876c-.805,2.089-2.286,3.854-3.235,5.888a25.078,25.078,0,0,0-1.758,8.3A41.782,41.782,0,0,0,393.855,429.423Z" transform="translate(-265.503 -282.334)" opacity="0.1"/>
    <path id="Path_179" data-name="Path 179" d="M398.544,401.168a30.759,30.759,0,0,1,1.549,4.565c.485,2.649-.266,5.464.55,8.031a14,14,0,0,1,.532,1.679,14.674,14.674,0,0,1-.022,2.48,14.173,14.173,0,0,0,.794,3.915,69.967,69.967,0,0,1,2.5,13.358,16.744,16.744,0,0,0,.572,3.595,11.953,11.953,0,0,1,.388,1.215,6.281,6.281,0,0,1,.068,1.664,31.659,31.659,0,0,0-.1,5.284,7.329,7.329,0,0,0,2.157,4.709,6.884,6.884,0,0,1-3.577.133c-1.618-.528-2.588-2.157-3.411-3.638-1.042-1.891-5-3.595-5.414-5.719-.32-1.664-1.355-3.85-1.528-5.54s1.007-3.742-.234-4.9c-.6-.564,1.007-.41.413-.985-1.323-1.291-1.65-3.278-1.733-5.126-.14-3.26.27-6.56-.327-9.77a49.451,49.451,0,0,0-1.711-5.795c-.7-2.236-1.2-4.529-1.7-6.83a47.358,47.358,0,0,1-1.078-6.2,10.155,10.155,0,0,1,.719-5.345A4.943,4.943,0,0,1,392.192,389C398.25,389.107,397.207,397.357,398.544,401.168Z" transform="translate(-266.239 -282.11)" fill="#6ca37a"/>
    <path id="Path_180" data-name="Path 180" d="M367.5,422.446c.568.665,1.3,1.395,2.157,1.265a.467.467,0,0,1-.636.151,1.366,1.366,0,0,1-.478-.55l-1.229-2.074c-.162-.27-1.276-1.84-1.549-.935C365.653,420.688,367.22,422.123,367.5,422.446Z" transform="translate(-252.525 -301.983)" opacity="0.1"/>
    <path id="Path_181" data-name="Path 181" d="M356.833,434.686a2.739,2.739,0,0,0-.8-1.8,4.493,4.493,0,0,0-1.485-.9,10.754,10.754,0,0,0-4.407-.927c.532.776,2.239,1.24,3.1,1.679Q355.054,433.683,356.833,434.686Z" transform="translate(-242.523 -309.05)" opacity="0.1"/>
    <path id="Path_182" data-name="Path 182" d="M356.828,472.576c-.248,1.84-1.754,3.235-3.278,4.314s-3.235,2.006-4.231,3.566c-.69,1.078-1,2.329-1.585,3.455a40.031,40.031,0,0,1-2.387,3.447,5.626,5.626,0,0,0-1.139,3.936.463.463,0,0,0,.165.331.471.471,0,0,0,.457-.05c1.567-.82,2.186-2.693,2.843-4.314A49.844,49.844,0,0,1,350,482.472a4.41,4.41,0,0,1,1.539-1.9,13.485,13.485,0,0,1,1.517-.528,5.1,5.1,0,0,0,1.873-1.47,12.344,12.344,0,0,0,2.876-8.379c-.022-.643-.058-3.742-1.025-2.786S356.993,471.325,356.828,472.576Z" transform="translate(-238.689 -332.216)" opacity="0.1"/>
    <path id="Path_183" data-name="Path 183" d="M322.791,281.1c3.091,1.348,5.752,4.314,5.654,7.675-.083,3.53-3.038,6.855-2.02,10.238.59,1.963,2.365,3.278,3.771,4.77,5.353,5.665,5.342,15.554-.029,21.209-2.056,2.157-4.7,3.692-6.873,5.752-7.667,7.225-7.995,19.724-3.89,29.426a47.863,47.863,0,0,1-9.569,1.079c-1.506,0-3.35-.255-3.9-1.661-.5-1.3.359-3.052-.633-4.012a3.245,3.245,0,0,0-1.8-.615c-4.048-.654-7.369-3.886-8.886-7.693a20.87,20.87,0,0,1-.568-12.1c.618-2.894,1.585-6.079.151-8.667-1.8-3.257-6.967-4.63-6.887-8.354.065-3.052,3.663-4.537,5.7-6.8,3.767-4.177,1.973-10.658,1.966-16.288,0-4.953,1.733-10.065,5.421-13.365C305.9,276.745,316.461,278.352,322.791,281.1Z" transform="translate(-202.284 -211.331)" fill="#a26565"/>
    <g id="Group_17" data-name="Group 17" transform="translate(85.048 76.687)" opacity="0.1">
      <path id="Path_184" data-name="Path 184" d="M294.821,389.206c-1.578-2.847-5.723-4.256-6.686-7.056a3.986,3.986,0,0,0-.776,2.25c-.079,3.724,5.083,5.1,6.887,8.358a6.791,6.791,0,0,1,.719,3.746C295.533,394,296.032,391.392,294.821,389.206Z" transform="translate(-287.358 -354.409)"/>
      <path id="Path_185" data-name="Path 185" d="M397.211,311.368c.647-1.887,1.585-3.792,1.632-5.752a5.412,5.412,0,0,0-.018-.636C398.1,307.144,397,309.243,397.211,311.368Z" transform="translate(-357.704 -304.98)"/>
      <path id="Path_186" data-name="Path 186" d="M309.1,324.586c1.237-3.907.169-8.753.165-13.088,0-.525.022-1.053.061-1.578a20.755,20.755,0,0,0-.64,5.126C308.7,318.141,309.24,321.5,309.1,324.586Z" transform="translate(-301.022 -308.144)"/>
      <path id="Path_187" data-name="Path 187" d="M384.58,386.6c-2.056,2.157-4.7,3.692-6.873,5.751a21.6,21.6,0,0,0-6.377,13.973,20.551,20.551,0,0,1,5.8-10.425c2.157-2.049,4.817-3.577,6.873-5.752a15.275,15.275,0,0,0,4.008-9.727A14.6,14.6,0,0,1,384.58,386.6Z" transform="translate(-341.144 -353.301)"/>
      <path id="Path_188" data-name="Path 188" d="M321.374,457.664c-1.506,0-3.35-.259-3.9-1.664-.5-1.294.359-3.048-.633-4.012a3.254,3.254,0,0,0-1.8-.615c-4.044-.651-7.366-3.886-8.883-7.689a19.228,19.228,0,0,1-1.078-8.9c-.029.119-.054.237-.079.36a21.032,21.032,0,0,0,.568,12.1c1.513,3.807,4.838,7.039,8.883,7.689a3.205,3.205,0,0,1,1.8.615c1,.963.129,2.718.633,4.012.546,1.406,2.391,1.682,3.9,1.664a47.888,47.888,0,0,0,9.569-1.078,32.138,32.138,0,0,1-1.161-3.21A47.714,47.714,0,0,1,321.374,457.664Z" transform="translate(-298.269 -388.12)"/>
    </g>
    <path id="Path_189" data-name="Path 189" d="M384.362,450.346c.888.669,1.851-1.88,1.3-2.516A12.215,12.215,0,0,0,384.362,450.346Z" transform="translate(-264.437 -319.793)" opacity="0.1"/>
    <path id="Path_190" data-name="Path 190" d="M394.91,575.931a5.829,5.829,0,0,0,2.84-1.582c.564-.694,1.028-3.447-.165-2.128C396.571,573.354,396.093,574.845,394.91,575.931Z" transform="translate(-271.2 -399.243)" opacity="0.1"/>
    <path id="Path_191" data-name="Path 191" d="M422.132,568.2a4.129,4.129,0,0,1-.96,2.34c-.111.115-.359.187-.392.032a9.086,9.086,0,0,0,1.855-1.309c1.215-1.2,1.38-4.17-.471-4.957A28.172,28.172,0,0,1,422.132,568.2Z" transform="translate(-287.77 -394.401)" opacity="0.1"/>
    <path id="Path_192" data-name="Path 192" d="M433.606,553.811s-10.2-4.008-13.89-3.595,4.177,6.226,4.177,6.226l4.7,3.17s2.876-1.078,3.066-1.161S433.606,553.811,433.606,553.811Z" transform="translate(-286.458 -385.355)" fill="#454b69"/>
    <path id="Path_193" data-name="Path 193" d="M264.84,437.638s7.664-4.443,17.78,1.078,11.8,38.014,11.8,38.014-4.138,33.1,11.816,25.738c0,0,29.117-9.041,32.033-7.049,0,0,2.761,0-2.757,1.226s-26.835,7.98-26.835,7.98-6.891,2.408-9.81,0-11.19.309-12.265-16.248a287.952,287.952,0,0,0-3.832-31.116l-2.843-8.43Z" transform="translate(-187.886 -312.182)" fill="#565661"/>
    <path id="Path_194" data-name="Path 194" d="M257.034,489.933s3.372-33.568-2.157-45.678c-4.81-10.554,13.789-5.619,18.642-4.181a3.534,3.534,0,0,1,1.862,1.33c2.876,4.044,13.193,20.253,10.152,41.94,0,0-1.226,19.315,6.438,22.377l-23.614-7.607c-1.916-.618-3.861-1.132-5.823-1.578C260.032,495.968,255.955,494.354,257.034,489.933Z" transform="translate(-181 -313.28)" fill="#fff"/>
    <path id="Path_195" data-name="Path 195" d="M694.53,597.23H697.6l2.01-41.21.137-2.344-2.606-.917-.172,2.491Z" transform="translate(-450.547 -357.911)" fill="#565661"/>
    <path id="Path_196" data-name="Path 196" d="M701.3,555.251l2.642.769.136-2.344-2.606-.917Z" transform="translate(-454.884 -357.911)" opacity="0.1"/>
    <path id="Path_197" data-name="Path 197" d="M623.815,683.441a6.9,6.9,0,0,1-.432,1.646,2.907,2.907,0,0,1-1.312,1.639,3.468,3.468,0,0,1-1.326.262,8.618,8.618,0,0,1-4.939-.787,8.989,8.989,0,0,1-1.693-1.413,77.265,77.265,0,0,1-8.886-10.568,2.76,2.76,0,0,1-.7-2.157,33.51,33.51,0,0,0,9.623-4.4,4.639,4.639,0,0,1,1.352-.719,7.344,7.344,0,0,1,2.538-.094c.816.133.852.158,1.165,1.079.518,1.557.431,3.235,1.014,4.792a14.821,14.821,0,0,0,1.344,2.459C623.063,677.689,624.217,680.655,623.815,683.441Z" transform="translate(-405.434 -460.035)" fill="#a26565"/>
    <path id="Path_198" data-name="Path 198" d="M623.815,690.9a6.9,6.9,0,0,1-.432,1.646,2.907,2.907,0,0,1-1.312,1.639,3.461,3.461,0,0,1-1.326.262,8.618,8.618,0,0,1-4.939-.787,8.986,8.986,0,0,1-1.693-1.413,77.256,77.256,0,0,1-8.886-10.569,2.759,2.759,0,0,1-.7-2.157,33.375,33.375,0,0,0,3.293-1.1l.054.04a12.08,12.08,0,0,1,2.685,3.023l2.516,3.541a10.435,10.435,0,0,0,1.578,1.905,10.563,10.563,0,0,0,2.441,1.467c1.183.572,2.365,1.143,3.595,1.6C621.482,690.319,622.826,690.444,623.815,690.9Z" transform="translate(-405.434 -467.492)" opacity="0.1"/>
    <path id="Path_199" data-name="Path 199" d="M644.719,599.425a10.832,10.832,0,0,1-.9,1.715,73.389,73.389,0,0,0-7.664,17.934c-.5-.111-.777.565-.773,1.078s0,1.161-.474,1.348c-.14.054-.3.054-.435.115-.3.137-.388.521-.431.852l-.424,3.113a3.863,3.863,0,0,0,1.643,4.637l7.017,5.536c.288.227.643.467.989.341.787-.288.09-1.7.719-2.268.417-.392,1.078-.1,1.657-.144a1.875,1.875,0,0,0,1.517-1.481,7.043,7.043,0,0,0,.04-2.25,2.042,2.042,0,0,1,.115-1.01,2.453,2.453,0,0,1,.859-.823,9.224,9.224,0,0,0,3.778-7.779,4.315,4.315,0,0,1,.05-1.377,3.623,3.623,0,0,1,.651-1.136,105.211,105.211,0,0,0,6.783-10.924,21.8,21.8,0,0,0,2.876-6.776.629.629,0,0,0-.518-.863,24.442,24.442,0,0,0-3.214-.769c-3.3-.669-6.492-1.7-9.706-2.693S645.686,596.83,644.719,599.425Z" transform="translate(-424.016 -414.408)" fill="#454b69"/>
    <path id="Path_200" data-name="Path 200" d="M587.5,586.392l5.061.611,23.3-52.882,6.284-.46,11.039,3.221,2.142,62.962h5.058l-1.992-65.262,12.111.309,21.612,53.8h4.6l-22.729-62.875-.874-2.423-33.877-1.161-8.444,4.734-.108.273Z" transform="translate(-381.992 -338.356)" fill="#565661"/>
    <path id="Path_201" data-name="Path 201" d="M686.94,608.168c7.279,2.193,14.835,4.587,14.835,4.587s6.891,2.4,9.81,0a4.409,4.409,0,0,1,1.219-.672,6,6,0,0,1-1.219.672l18.657-6.014-.863-2.419L695.5,603.16l-8.444,4.734Z" transform="translate(-458.253 -419.286)" opacity="0.1"/>
    <path id="Path_202" data-name="Path 202" d="M695.121,582.6l-13.793-3.066s-32.956,6.133-35.408,8.584c0,0,26.364,5.363,29.276,7.189S695.43,599.15,695.121,582.6Z" transform="translate(-431.978 -404.15)" fill="#fff"/>
    <path id="Path_203" data-name="Path 203" d="M594.709,699.025c-.831,1.582-2.876,2.027-4.673,2.053a19.733,19.733,0,0,1-7.3-1.3,42.509,42.509,0,0,0-3.979-1.542c-2.045-.561-4.314-.514-6.111-1.639a7.19,7.19,0,0,1-2.3-2.491c-.1-.176-.2-.359-.3-.546a7.7,7.7,0,0,1-.78-5.421c.478-1.8,2.214-3.792,4.227-3.764,2.391.036,5.241,1.168,7.549,1.754a30.2,30.2,0,0,1,8.293,3.07,12.4,12.4,0,0,1,5.011,5.36,9.069,9.069,0,0,1,.474,1.337A4.193,4.193,0,0,1,594.709,699.025Z" transform="translate(-382.748 -471.303)" fill="#a26565"/>
    <path id="Path_204" data-name="Path 204" d="M596.463,715.391c-.83,1.582-2.876,2.027-4.673,2.053a19.731,19.731,0,0,1-7.3-1.3,42.494,42.494,0,0,0-3.979-1.542c-2.045-.561-4.314-.514-6.111-1.639a7.191,7.191,0,0,1-2.3-2.491c-.1-.176-.2-.359-.3-.546.359.029.69.065.87.083a35.91,35.91,0,0,1,6.42,1.625,36.065,36.065,0,0,0,8.987,1.4,12.117,12.117,0,0,0,6.291-1.15,16.458,16.458,0,0,1,1.747-.96,9.071,9.071,0,0,1,.475,1.337A4.263,4.263,0,0,1,596.463,715.391Z" transform="translate(-384.502 -487.669)" opacity="0.1"/>
    <path id="Path_205" data-name="Path 205" d="M596.2,532.528a115.831,115.831,0,0,0-14.17-1.139l-5.795-.23a2.631,2.631,0,0,0-1.219.147,7.946,7.946,0,0,0-.953.719,3.94,3.94,0,0,1-2.027.478,100.914,100.914,0,0,0-14.8,1.92c-2.516.514-5.13,1.186-7.021,2.923a10.262,10.262,0,0,0-2.944,7.348,26.62,26.62,0,0,0,1.395,7.977,36.333,36.333,0,0,1,1.571,9.656,18.085,18.085,0,0,0,.1,2.721,13.011,13.011,0,0,0,.758,2.516l2.646,7.064c.234.618.464,1.233.719,1.837s.5,1.079.719,1.646c.324.776.579,1.582.834,2.383l1.761,5.532.23.719a20.784,20.784,0,0,0,2.488,5.73,7.018,7.018,0,0,0,5.148,3.2,15.8,15.8,0,0,1,2.02.054,8.169,8.169,0,0,1,1.657.6,12.641,12.641,0,0,0,4.95.967c1.564,0,3.3-.435,4.148-1.751a6.1,6.1,0,0,0,.719-2.452,10.905,10.905,0,0,0-.133-5.1c-.359-.967-.963-1.8-1.38-2.75a27.951,27.951,0,0,1-1.15-4.1,15.666,15.666,0,0,0-4.781-7.606,74.97,74.97,0,0,1-1.8-9.842,8.668,8.668,0,0,0-.435-2.157c-.421-1.078-1.273-1.952-1.628-3.052-.334-1.021-.234-2.2-.841-3.081,5.058,1.391,10.065,1.078,15.317,1a41.846,41.846,0,0,0,5.033-.288,15.8,15.8,0,0,1,2.358-.251,12.2,12.2,0,0,1,4.641,1.352,38.214,38.214,0,0,0,13.239,3.4c4.727.2,9.4-.913,14.019-2.013a13.791,13.791,0,0,0,5.751-2.344c1.61-1.333,2.516-3.739,1.524-5.568-.755-1.377-2.319-2.053-3.778-2.628-4.041-1.6-8.1-3.153-12-5.083C607.156,540.077,602.71,533.607,596.2,532.528Z" transform="translate(-368.789 -373.156)" fill="#454b69"/>
    <path id="Path_206" data-name="Path 206" d="M653.973,475.864a35.326,35.326,0,0,1-2.214,3.372,8.545,8.545,0,0,0-1.078,6.345,7.218,7.218,0,0,0,4.044,4.921,10.142,10.142,0,0,0,2.8.676,6.192,6.192,0,0,0,3.732-.424,5.451,5.451,0,0,0,1.988-2.078,21.077,21.077,0,0,0,2.02-5.256,34.358,34.358,0,0,0,1.61-10.263,3.954,3.954,0,0,0-1.269-3.235,4.269,4.269,0,0,0-1.668-.546l-4.741-.848c-.917-.165-2.516-.838-3.311-.176s-.855,2.617-.992,3.534A14.917,14.917,0,0,1,653.973,475.864Z" transform="translate(-434.898 -332.754)" fill="#a1616a"/>
    <path id="Path_207" data-name="Path 207" d="M801.776,443.825l-1.24,10.4a47.773,47.773,0,0,0-.442,5.593,4.384,4.384,0,0,1-.658,2.98,2.717,2.717,0,0,1-1.237.744,6.63,6.63,0,0,1-4.587-.593,3.8,3.8,0,0,1-2.081-1.718,4.273,4.273,0,0,1-.27-1.823c0-6.2.586-12.668,3.825-17.952a3.913,3.913,0,0,1,1.14-1.316,3.744,3.744,0,0,1,3.092-.1c.625.191,2.315.4,2.714.96S801.862,443.109,801.776,443.825Z" transform="translate(-525.066 -314.619)" fill="#a1616a"/>
    <circle id="Ellipse_8" data-name="Ellipse 8" cx="12.941" cy="12.941" r="12.941" transform="translate(230.866 65.73)" fill="#a1616a"/>
    <path id="Path_208" data-name="Path 208" d="M711.851,335.8a6.676,6.676,0,0,1-.8,2.876q9.911-1.51,19.771-3.365a9.285,9.285,0,0,1-4.587-5.392,15.213,15.213,0,0,1-.582-3.843,44.422,44.422,0,0,1,.118-6.187,31.389,31.389,0,0,0-6.672,1.844,65.8,65.8,0,0,1-6.719,1.88c-1.1.245-2.2.453-3.307.647-1.294.23-1.916.226-1.017,1.362C710.468,328.658,712.189,331.742,711.851,335.8Z" transform="translate(-471.507 -237.844)" fill="#a1616a"/>
    <path id="Path_209" data-name="Path 209" d="M685.452,353.578a10.2,10.2,0,0,0-4.86,1.6,18.344,18.344,0,0,0-1.478,1.42c-2.707,2.628-6.528,3.685-9.814,5.539a4.312,4.312,0,0,0-1.395,1.1c-.359.5-.543,1.136-.92,1.632-.439.575-1.132.935-1.474,1.571a4.433,4.433,0,0,0-.3,1.988,18.5,18.5,0,0,1-1.079,4.314c-2,6.8-.9,14.379-3.922,20.8A2.923,2.923,0,0,0,661.8,395.2a9.019,9.019,0,0,0,2.358.507l6.69.83a5.28,5.28,0,0,0,2.843-.169,33.41,33.41,0,0,0-1.686,6.8,33.878,33.878,0,0,1-.755,4.213,14.125,14.125,0,0,1-5.978,7.6,2.212,2.212,0,0,0-.845.78c-.359.719.173,1.524.55,2.229,1.1,2.042.945,4.493.931,6.808s.219,4.856,1.837,6.517a9.827,9.827,0,0,0,3.537,2.02l10.464,4.181a36.483,36.483,0,0,0,5.328,1.8,31.809,31.809,0,0,0,8.451.482q2.8-.119,5.6-.359a4.358,4.358,0,0,0,2.117-.557,3.956,3.956,0,0,0,1.24-1.682c1.456-3.167,1.945-6.862,4.2-9.515,1.549-1.823,3.954-3.278,4.13-5.662.083-1.186-.446-2.34-.453-3.53,0-1.463.766-2.854.719-4.314-.1-2.376-2.337-4.188-2.693-6.539-.906-5.96,2.121-11.913,3.979-17.646a3.927,3.927,0,0,1,1.751-2.6c.985-.439,2.373-.208,2.725-1.179a20.948,20.948,0,0,0,.985-7.887c-.065-1.5-.6-2.966-.536-4.468.043-1.057.381-2.085.471-3.138a13.323,13.323,0,0,0-.719-4.713,7.38,7.38,0,0,0-.561-1.589,7.546,7.546,0,0,0-.935-1.283l-1.751-2.081a8.028,8.028,0,0,0-2.876-2.477c-.385-.953-1.614-1.611-2.495-2.135a25.58,25.58,0,0,0-2.746-1.348l-9.9-4.371a4.055,4.055,0,0,0-1.176-.381,3.805,3.805,0,0,0-1.747.359A43.312,43.312,0,0,1,685.452,353.578Z" transform="translate(-441.132 -257.351)" fill="#6ca37a"/>
    <path id="Path_210" data-name="Path 210" d="M697.827,278.536c-.381-1.341-1.355-2.5-1.5-3.886a10.438,10.438,0,0,1,.719-3.627c.309-1.2.3-2.667-.654-3.465-.158-.137-.359-.259-.417-.46-.115-.359.248-.687.359-1.05.2-.719-.683-1.513-.359-2.2.183-.377.643-.51,1.046-.629,1.539-.456,3.1-1.47,3.433-3.041,1.2.5,2.487-.442,3.411-1.359s2.06-1.963,3.332-1.686l-.284.579A9.2,9.2,0,0,1,713,257.64h-.6a8.347,8.347,0,0,1,4.813,1.628c-.155,0-.169.23-.108.359a4.165,4.165,0,0,0,3.045,2.089,4.318,4.318,0,0,1,2.117.848c.55.539.561,1.664-.165,1.923a18.9,18.9,0,0,1,4.173,2.265c.359.262.766.618.719,1.078a3.5,3.5,0,0,1-.223.672,2.324,2.324,0,0,0,.076,1.15l.4,1.646c.439,1.83.784,4.033-.55,5.36a4.921,4.921,0,0,1-.866,5.809,2.394,2.394,0,0,1-1.8,3.1,1.612,1.612,0,0,1-.661,2.106,3.845,3.845,0,0,1-2.387.36,10.189,10.189,0,0,0-2.448-.137c-1.183.183-2.34.989-3.48.629a7.807,7.807,0,0,1-1.219-.654,9.891,9.891,0,0,0-2.61-.719,12.056,12.056,0,0,1-4.217-1.8,4.941,4.941,0,0,1-1.937-2.157c-.791-2,.539-4.619-.859-6.248a2.47,2.47,0,0,0-3.361-.151c-.456.406-.518,1.262-.992,1.567A6.274,6.274,0,0,1,697.827,278.536Z" transform="translate(-463.992 -197.615)" fill="#464353"/>
    <path id="Path_211" data-name="Path 211" d="M649.174,597.626a5.928,5.928,0,0,1-1.3-1.438,2.682,2.682,0,0,1-.4-1.859,5.317,5.317,0,0,0,1.4,4.573c.9.924,2.6,1.83,3.915,1.513C652.6,599.359,650.012,598.338,649.174,597.626Z" transform="translate(-432.925 -413.63)" opacity="0.1"/>
    <path id="Path_212" data-name="Path 212" d="M718.089,439.638s-7.664-4.443-17.779,1.078-11.8,38.014-11.8,38.014,4.137,33.1-11.816,25.738c0,0-29.117-9.041-32.033-7.049,0,0-2.761,0,2.757,1.226s26.835,7.98,26.835,7.98,6.891,2.409,9.81,0,11.19.309,12.265-16.248a287.925,287.925,0,0,1,3.832-31.116l2.844-8.43Z" transform="translate(-430.729 -313.463)" fill="#565661"/>
    <path id="Path_213" data-name="Path 213" d="M790.467,491.933s-3.372-33.568,2.157-45.678c4.81-10.554-13.789-5.619-18.642-4.181a3.534,3.534,0,0,0-1.862,1.33c-2.876,4.044-13.193,20.253-10.151,41.94,0,0,1.226,19.314-6.438,22.377l23.614-7.606c1.916-.618,3.861-1.132,5.824-1.578C787.469,497.968,791.546,496.354,790.467,491.933Z" transform="translate(-502.187 -314.561)" fill="#fff"/>
    <path id="Path_219" data-name="Path 219" d="M925.607,500" transform="translate(-575.422 -327.382)" fill="none" stroke="#535461" stroke-miterlimit="10" stroke-width="2"/>
    <path id="Path_224" data-name="Path 224" d="M548.634,400.188v.82h-24.3v-.665a8.164,8.164,0,0,0,1.876-1,7.984,7.984,0,0,0,3.336-6.492,7.88,7.88,0,0,0-.248-1.966,7.991,7.991,0,0,0-4.414-5.3h23.589a7.991,7.991,0,0,0-4.414,5.3,7.881,7.881,0,0,0-.245,1.966,7.98,7.98,0,0,0,3.332,6.492,8.227,8.227,0,0,0,1.492.845Z" transform="translate(-354.097 -279.926)" fill="#dfe6f5"/>
    <path id="Path_225" data-name="Path 225" d="M549.449,385.59a7.991,7.991,0,0,0-4.414,5.3h-14.76a7.991,7.991,0,0,0-4.414-5.3Z" transform="translate(-355.077 -279.926)" opacity="0.1"/>
    <path id="Path_226" data-name="Path 226" d="M446.92,373.94v4.616a4.4,4.4,0,0,0,4.163,4.612h71.5a4.408,4.408,0,0,0,4.166-4.612V373.94Z" transform="translate(-304.514 -272.464)" fill="#dfe6f5"/>
    <path id="Path_227" data-name="Path 227" d="M548.634,424.695v.82h-24.3v-.665a8.168,8.168,0,0,0,1.876-1h20.936A8.229,8.229,0,0,0,548.634,424.695Z" transform="translate(-354.097 -304.433)" opacity="0.1"/>
    <rect id="Rectangle_53" data-name="Rectangle 53" width="40.365" height="2.434" rx="1.217" transform="translate(162.203 119.672)" fill="#dfe6f5"/>
    <path id="Path_228" data-name="Path 228" d="M526.752,225.893a4.163,4.163,0,0,0-4.166-4.163h-71.5a4.159,4.159,0,0,0-4.163,4.163v51.451h79.832Z" transform="translate(-304.514 -174.97)" fill="#474157"/>
    <path id="Path_229" data-name="Path 229" d="M528.455,234.829v44.215a2.049,2.049,0,0,1-2.049,2.053H455.029a2.049,2.049,0,0,1-2.049-2.053V234.829a2.02,2.02,0,0,1,.273-1.025,2.049,2.049,0,0,1,1.776-1.024h71.377a2.049,2.049,0,0,1,2.049,2.049Z" transform="translate(-308.395 -182.047)" fill="#4c4c78"/>
    <circle id="Ellipse_10" data-name="Ellipse 10" cx="0.96" cy="0.96" r="0.96" transform="translate(181.363 47.785)" fill="#fff"/>
    <circle id="Ellipse_11" data-name="Ellipse 11" cx="2.369" cy="2.369" r="2.369" transform="translate(179.953 103.913)" fill="#fff"/>
    <path id="Path_230" data-name="Path 230" d="M528.468,234.829H453a2.049,2.049,0,0,1,2.049-2.049h71.37A2.049,2.049,0,0,1,528.468,234.829Z" transform="translate(-308.408 -182.047)" fill="#c8cad7"/>
    <circle id="Ellipse_12" data-name="Ellipse 12" cx="0.514" cy="0.514" r="0.514" transform="translate(146.12 51.243)" fill="#ededf4"/>
    <circle id="Ellipse_13" data-name="Ellipse 13" cx="0.514" cy="0.514" r="0.514" transform="translate(147.658 51.243)" fill="#ededf4"/>
    <circle id="Ellipse_14" data-name="Ellipse 14" cx="0.514" cy="0.514" r="0.514" transform="translate(149.197 51.243)" fill="#ededf4"/>
  </g>
</svg>
