<svg xmlns="http://www.w3.org/2000/svg" xmlns:xlink="http://www.w3.org/1999/xlink" width="261.176" height="188.334" viewBox="0 0 261.176 188.334">
  <defs>
    <linearGradient id="linear-gradient" x1="0.5" y1="1" x2="0.5" gradientUnits="objectBoundingBox">
      <stop offset="0" stop-color="gray" stop-opacity="0.251"/>
      <stop offset="0.54" stop-color="gray" stop-opacity="0.122"/>
      <stop offset="1" stop-color="gray" stop-opacity="0.102"/>
    </linearGradient>
  </defs>
  <g id="undraw_in_progress_ql66" transform="translate(0.004 -5.834)">
    <path id="Path_264" data-name="Path 264" d="M246.972,118.626c-16.744-.432-32.69-4.447-47.918-8.84s-30.31-9.269-46.653-11.6c-10.511-1.5-22.533-1.71-31,2.478-8.152,4.025-10.786,10.974-12.2,17.442-1.066,4.856-1.692,9.965,1.226,14.511,2.028,3.156,5.624,5.808,8.113,8.832,8.659,10.519,2.538,23.488-6.843,33.759-4.4,4.817-9.507,9.412-12.9,14.542s-4.967,11-1.995,16.236c2.944,5.174,9.963,9.078,17.566,11.818,15.442,5.565,33.632,7.156,51.382,8.059,39.28,2,78.766,1.131,118.149.259,14.576-.321,29.213-.644,43.551-2.328,7.963-.929,16.182-2.406,21.964-5.968,7.337-4.522,9.156-12.18,4.238-17.851-8.248-9.513-31.045-11.877-36.817-22.086-3.172-5.619.085-11.877,4.7-17.09,9.893-11.179,26.474-20.986,27.345-33.766.6-8.775-7.371-17.566-19.7-21.718-12.917-4.351-30.833-3.806-40.358,3.4C279,116.143,261.757,119,246.972,118.626Z" transform="translate(-95.23 -91.373)" fill="#fff" opacity="0.1"/>
    <ellipse id="Ellipse_23" data-name="Ellipse 23" cx="56.398" cy="4.01" rx="56.398" ry="4.01" transform="translate(11.605 186.149)" fill="#6ca37a" opacity="0.1"/>
    <path id="Path_292" data-name="Path 292" d="M275.168,350.038c.776-1.394,1.7-2.709,2.455-4.121.686-1.294,1.221-2.665,1.839-3.994,1.058-2.277,2.362-4.429,3.549-6.644a8.572,8.572,0,0,0,1.376-4.672c-.142-1.552-1.053-2.9-1.4-4.4-1.433-6.16-4.882-11.815-6.985-17.773-.538-1.511-1.061-3.032-1.733-4.491a47.563,47.563,0,0,0-4.915-7.831,22.115,22.115,0,0,0-2.173-2.7c-.649-.649-1.379-1.221-1.969-1.925-1.216-1.449-1.785-3.534-3.306-4.657-.026.067-.054.132-.083.2-1.089-2.781-4.742-4.615-6.861-6.92a40.737,40.737,0,0,1-3.4-4.463l-4.613-6.667a11.2,11.2,0,0,1-1.925-3.7c-.393-1.651-.028-3.41-.417-5.06a6.382,6.382,0,0,0-1.41-2.68c.044-.013.091-.031.137-.041.88-.235,1.811-.277,2.683-.486,1.9-.453,3.555-1.669,5.448-2.155a13.287,13.287,0,0,0,2.877-.776,2.391,2.391,0,0,0,1.112-2.541c-.613-3.247,1.1-6.538.81-9.831-.078-.911-.31-1.8-.46-2.7a28.631,28.631,0,0,1-.16-6.369,13.453,13.453,0,0,1,2.108-2.621,17.374,17.374,0,0,0,3.363-3.474,6.776,6.776,0,0,0,.7-4.17,4.024,4.024,0,0,0-1.294-2.753,3.252,3.252,0,0,0-2.97-.347c-.137.044-.272.1-.4.155a3.392,3.392,0,0,0-2.675-.155,8.106,8.106,0,0,0-2.618,1.651,5.984,5.984,0,0,0-1.221,1.294,7.671,7.671,0,0,0-.833,2.647,25.87,25.87,0,0,1-1.746,5.12c-.14.29-.517.81-.823,1.306l-.554-.114c-.241,2.305-2.171,4-3.345,5.989-.572.968-.973,2.026-1.488,3.027a29.34,29.34,0,0,1-1.964,3.148q-1.048,1.552-2.1,3.076a43.721,43.721,0,0,1-2.846,3.85c-.949-.078-1.9-.147-2.846-.163a23.1,23.1,0,0,0-4.737.422,13.191,13.191,0,0,1-.168-1.658v-.1c0-.135.016-.295.034-.468a9.572,9.572,0,0,0-.458-16.2,6.962,6.962,0,0,0,.1-.88v-.517a1.22,1.22,0,0,0-.018-.259,3.419,3.419,0,0,0-.088-.517c-.021-.083-.044-.166-.072-.259a2.445,2.445,0,0,0-.215-.466.226.226,0,0,0-.018-.026c-.034-.054-.067-.109-.106-.16s-.034-.041-.049-.062a1.234,1.234,0,0,0-.088-.109l-.065-.067c-.028-.031-.057-.062-.088-.091l-.072-.065-.091-.08-.083-.062-.093-.07-.091-.06-.093-.06c-.031-.021-.065-.039-.1-.057l-.1-.054-.1-.052-.1-.047-.114-.049-.093-.041-.124-.047-.088-.034-.135-.047-.08-.026-.147-.047-.07-.021-.16-.044-.062-.018-.168-.041-.049-.013-.186-.041h-.031l-.274-.06q-1.7-.349-3.42-.6a7.705,7.705,0,0,0-2.828-.049,19.58,19.58,0,0,0-3.539,1.684,23.793,23.793,0,0,1-4.486,1.154,6.812,6.812,0,0,0-4,2.181,7.616,7.616,0,0,0-1.221,3.306c-1.79,9.738.14,19.726.5,29.625.142,3.852-.031,7.971-2.215,11.124l6.359-.168c.305,0,.613-.018.924-.036s.621-.041.926-.078a6.126,6.126,0,0,0,2.305-.691,3.977,3.977,0,0,0,.9-.7,8.948,8.948,0,0,0,1.746-3.324c.142-.4.285-.807.411-1.216.052-.171.1-.341.145-.517l.021-.083.072.034a16,16,0,0,0,.862,1.423,30.825,30.825,0,0,0,3.914,4.421c2.776,2.755,5.614,5.56,9.094,7.329a10.927,10.927,0,0,1,3.34,2.07c.44.473.82,1.081,1.444,1.244a7.182,7.182,0,0,1,1.185.166c.543.228.742.882.993,1.42s.818,1.087,1.356.841a2.719,2.719,0,0,0,1.014,2.7,1.981,1.981,0,0,1,.657.59,2.144,2.144,0,0,1,.135.693,2.74,2.74,0,0,0,.98,1.679c-.5.836-.1,2.033-.088,3.076a11.57,11.57,0,0,1-.484,2.569,18.914,18.914,0,0,0,.207,7.627,8.286,8.286,0,0,0,1.493,3.906c.295.349.647.652.957.991a9.21,9.21,0,0,1,1.462,2.227,17.461,17.461,0,0,1,1.586,5.081,9.252,9.252,0,0,0,.75,2.561c.567,1.237.049,2.758.556,4.02a11.668,11.668,0,0,1,.792,1.643,7.479,7.479,0,0,1-.38,2.6c-.295,2.054,1.187,3.961,1.322,6.03a.476.476,0,0,1-.072.349c-.1.114-.274.111-.411.176-.259.124-.329.473-.411.763s-.316.618-.6.53c-4.251,2.274-8.651,4.375-12.9,6.649l-1.94,1.035-10.377,5.544a.75.75,0,0,0-.417.678c0,.124.016.259.026.375-.727.181-1.425.4-1.922.489-.2.039-.409.078-.611.122a.652.652,0,0,0,.093-.259.517.517,0,0,0-.458-.517,1.658,1.658,0,0,0-.748.1,10.912,10.912,0,0,1-1.811.334,12.922,12.922,0,0,0-2.171.259,2.467,2.467,0,0,0-1.682,1.294,3.138,3.138,0,0,0-.186,1.221,18.69,18.69,0,0,0,.564,4.745.4.4,0,0,0,.189.3c.091.036.2,0,.29.041a.388.388,0,0,1,.168.212,10.639,10.639,0,0,1,.652,3.167q.259,2.393.655,4.773a5.3,5.3,0,0,0,.949,2.608,4.259,4.259,0,0,0,2.722,1.257,18.992,18.992,0,0,0,6.4-.587,1.874,1.874,0,0,0,1.079-.489,1.218,1.218,0,0,0,.259-.861c-.049-1.063-1.017-1.811-1.9-2.409l-1.2-.83a.517.517,0,0,1-.259-.585l.078-1.57h-.233a5.641,5.641,0,0,1,1.49-2.931c.561-.517,1.294-.88,1.881-1.35a4.657,4.657,0,0,0,2.616.96,21.316,21.316,0,0,1,5.924-4.915,57.95,57.95,0,0,1,5.5-3.068q2.292-1.133,4.657-2.124c2.225-.936,4.491-1.772,6.76-2.587a27.221,27.221,0,0,0,4.434-1.881c3.622-2.093,6.181-6.271,5.692-10.454-.616-5.278.7-10.778.613-16.092a15.949,15.949,0,0,0-.554-4.592,2.447,2.447,0,0,1,.308.259c.942.88,1.169,2.277,2.07,3.28.7.789,1.767,1.294,2.191,2.256.323.737.277,1.733.952,2.158.191.122.419.173.611.292a2.043,2.043,0,0,1,.567.613,6.88,6.88,0,0,1,1.537,3.363c.034.494-.013,1.066.349,1.4.1.1.235.166.29.295.114.259-.186.533-.238.82-.075.4.318.7.561,1.035a1.627,1.627,0,0,1,0,1.917c-2.121,2.755-2.5,6.468-4.359,9.414-.642,1.017-1.356,1.979-1.977,3.009-1.909,3.161-2.874,6.794-3.811,10.372a5.73,5.73,0,0,0,1.591,1.775,8.8,8.8,0,0,1-1.772,3.273,8.244,8.244,0,0,0-.585.732,1.423,1.423,0,0,0-.577-.435,20.5,20.5,0,0,0-.517,4.527,3.231,3.231,0,0,0,.952,2.729,3.377,3.377,0,0,0,1.058.437l1.775.517a1.855,1.855,0,0,0,.98.1c.21-.059.4-.189.611-.23a1.5,1.5,0,0,1,.688.091l1.534.448a10.134,10.134,0,0,1,1.516.535c.437.21.841.481,1.27.714a15.354,15.354,0,0,0,2.217.911l2.644.911a9.62,9.62,0,0,0,2.292.6c.543.047,1.094,0,1.63.093.409.07.8.217,1.216.259a3.187,3.187,0,0,0,1.914-.569,1.71,1.71,0,0,0,.554-.5,1.977,1.977,0,0,0-.323-2.015,7.97,7.97,0,0,0-2.735-2.846c-.468-.259-.975-.45-1.459-.688-1.376-.673-2.414-1.8-3.715-2.564a.882.882,0,0,0-1.115.075,7.53,7.53,0,0,1-2.846-2.528,5.691,5.691,0,0,1-.517-1.746c.608.145,1.221.259,1.839.36A47.326,47.326,0,0,1,275.168,350.038ZM250.314,239.7c-.052.292-.109.582-.171.872-.517,2.429-1.257,5.151-2.949,6.959a6.467,6.467,0,0,1-1.909,1.26l-.189.093A41.5,41.5,0,0,1,250.314,239.7Z" transform="translate(-174.492 -181.712)" fill="url(#linear-gradient)"/>
    <path id="Path_293" data-name="Path 293" d="M389.451,226.6a7.723,7.723,0,0,1,.836-2.628,6,6,0,0,1,1.224-1.294,8.159,8.159,0,0,1,2.623-1.64,3.277,3.277,0,0,1,2.973.344,3.957,3.957,0,0,1,1.306,2.735,6.732,6.732,0,0,1-.7,4.139c-.8,1.4-2.194,2.328-3.363,3.451a13.353,13.353,0,0,0-2.191,2.732,7.786,7.786,0,0,1-1,1.459,1.9,1.9,0,0,1-1.586.634,2.8,2.8,0,0,1-1.294-.758c-.479-.419-1.767-1.167-1.811-1.832-.031-.538.975-1.759,1.221-2.264a25.486,25.486,0,0,0,1.762-5.078Z" transform="translate(-311.125 -183.019)" fill="#fbbebe"/>
    <path id="Path_294" data-name="Path 294" d="M389.451,226.6a7.723,7.723,0,0,1,.836-2.628,6,6,0,0,1,1.224-1.294,8.159,8.159,0,0,1,2.623-1.64,3.277,3.277,0,0,1,2.973.344,3.957,3.957,0,0,1,1.306,2.735,6.732,6.732,0,0,1-.7,4.139c-.8,1.4-2.194,2.328-3.363,3.451a13.353,13.353,0,0,0-2.191,2.732,7.786,7.786,0,0,1-1,1.459,1.9,1.9,0,0,1-1.586.634,2.8,2.8,0,0,1-1.294-.758c-.479-.419-1.767-1.167-1.811-1.832-.031-.538.975-1.759,1.221-2.264a25.486,25.486,0,0,0,1.762-5.078Z" transform="translate(-311.125 -183.019)" opacity="0.1"/>
    <path id="Path_295" data-name="Path 295" d="M293,289.583a23.208,23.208,0,0,1,6.356-.776c3.578.052,7.262.918,10.669-.179a18.506,18.506,0,0,0,2.559-1.11,6.5,6.5,0,0,0,1.909-1.252c1.695-1.8,2.424-4.5,2.954-6.913a46.127,46.127,0,0,0,.8-7.358,5.614,5.614,0,0,0,2.789.735,2.023,2.023,0,0,0,1.948-1.811,29.6,29.6,0,0,0,.127,6.853c.15.9.383,1.777.463,2.683.29,3.27-1.425,6.538-.812,9.764a2.367,2.367,0,0,1-1.112,2.522,12.154,12.154,0,0,1-2.882.776c-1.9.484-3.552,1.689-5.456,2.14-.887.21-1.811.259-2.685.484-1.257.331-2.4,1.05-3.679,1.278-.96.171-1.948.054-2.918.137-.843.07-1.671.292-2.517.313a7.264,7.264,0,0,1-5.4-2.675A22.712,22.712,0,0,1,293,289.583Z" transform="translate(-241.838 -220.145)" fill="#6ca37a"/>
    <path id="Path_296" data-name="Path 296" d="M293,289.583a23.208,23.208,0,0,1,6.356-.776c3.578.052,7.262.918,10.669-.179a18.506,18.506,0,0,0,2.559-1.11,6.5,6.5,0,0,0,1.909-1.252c1.695-1.8,2.424-4.5,2.954-6.913a46.127,46.127,0,0,0,.8-7.358,5.614,5.614,0,0,0,2.789.735,2.023,2.023,0,0,0,1.948-1.811,29.6,29.6,0,0,0,.127,6.853c.15.9.383,1.777.463,2.683.29,3.27-1.425,6.538-.812,9.764a2.367,2.367,0,0,1-1.112,2.522,12.154,12.154,0,0,1-2.882.776c-1.9.484-3.552,1.689-5.456,2.14-.887.21-1.811.259-2.685.484-1.257.331-2.4,1.05-3.679,1.278-.96.171-1.948.054-2.918.137-.843.07-1.671.292-2.517.313a7.264,7.264,0,0,1-5.4-2.675A22.712,22.712,0,0,1,293,289.583Z" transform="translate(-241.838 -220.145)" opacity="0.1"/>
    <path id="Path_297" data-name="Path 297" d="M589,342.748a17.809,17.809,0,1,1-17.809,17.809A17.81,17.81,0,0,1,589,342.748m0-4.4A22.207,22.207,0,1,0,611.2,360.557,22.207,22.207,0,0,0,589,338.35Z" transform="translate(-444.797 -270.131)" fill="#3f3d56"/>
    <rect id="Rectangle_73" data-name="Rectangle 73" width="5.205" height="5.479" transform="translate(140.912 63.025)" fill="#3f3d56"/>
    <rect id="Rectangle_74" data-name="Rectangle 74" width="5.205" height="5.479" transform="matrix(0.857, 0.515, -0.515, 0.857, 155.402, 65.248)" fill="#3f3d56"/>
    <rect id="Rectangle_75" data-name="Rectangle 75" width="5.205" height="5.479" transform="matrix(0.485, 0.875, -0.875, 0.485, 166.49, 74.22)" fill="#3f3d56"/>
    <rect id="Rectangle_76" data-name="Rectangle 76" width="5.205" height="5.479" transform="matrix(-0.53, 0.848, -0.848, -0.53, 169.18, 102.065)" fill="#3f3d56"/>
    <rect id="Rectangle_77" data-name="Rectangle 77" width="5.205" height="5.479" transform="matrix(-0.485, 0.875, -0.875, -0.485, 126.705, 76.875)" fill="#3f3d56"/>
    <rect id="Rectangle_78" data-name="Rectangle 78" width="5.205" height="5.479" transform="matrix(0.53, 0.848, -0.848, 0.53, 123.87, 99.16)" fill="#3f3d56"/>
    <rect id="Rectangle_79" data-name="Rectangle 79" width="5.205" height="5.479" transform="matrix(-0.857, 0.515, -0.515, -0.857, 135.82, 69.944)" fill="#3f3d56"/>
    <rect id="Rectangle_80" data-name="Rectangle 80" width="5.205" height="5.479" transform="translate(140.912 112.345)" fill="#3f3d56"/>
    <rect id="Rectangle_81" data-name="Rectangle 81" width="5.205" height="5.479" transform="matrix(0.857, -0.515, 0.515, 0.857, 152.581, 110.906)" fill="#3f3d56"/>
    <rect id="Rectangle_82" data-name="Rectangle 82" width="5.205" height="5.479" transform="matrix(-0.857, -0.515, 0.515, -0.857, 132.999, 115.602)" fill="#3f3d56"/>
    <rect id="Rectangle_83" data-name="Rectangle 83" width="6.302" height="4.657" transform="translate(116.255 88.233)" fill="#3f3d56"/>
    <rect id="Rectangle_84" data-name="Rectangle 84" width="6.302" height="4.657" transform="translate(172.146 92.89) rotate(180)" fill="#3f3d56"/>
    <path id="Path_298" data-name="Path 298" d="M748.917,218.838a17.809,17.809,0,1,1-17.809,17.809,17.809,17.809,0,0,1,17.809-17.809m0-4.4a22.207,22.207,0,1,0,22.207,22.207A22.207,22.207,0,0,0,748.917,214.44Z" transform="translate(-563.344 -178.277)" fill="#3f3d56"/>
    <rect id="Rectangle_85" data-name="Rectangle 85" width="5.205" height="5.479" transform="translate(182.285 30.971)" fill="#3f3d56"/>
    <rect id="Rectangle_86" data-name="Rectangle 86" width="5.205" height="5.479" transform="matrix(0.857, 0.515, -0.515, 0.857, 196.776, 33.19)" fill="#3f3d56"/>
    <rect id="Rectangle_87" data-name="Rectangle 87" width="5.205" height="5.479" transform="matrix(0.485, 0.875, -0.875, 0.485, 207.864, 42.163)" fill="#3f3d56"/>
    <rect id="Rectangle_88" data-name="Rectangle 88" width="5.205" height="5.479" transform="matrix(-0.53, 0.848, -0.848, -0.53, 210.551, 70.01)" fill="#3f3d56"/>
    <rect id="Rectangle_89" data-name="Rectangle 89" width="5.205" height="5.479" transform="matrix(-0.485, 0.875, -0.875, -0.485, 168.076, 44.821)" fill="#3f3d56"/>
    <rect id="Rectangle_90" data-name="Rectangle 90" width="5.205" height="5.479" transform="matrix(0.53, 0.848, -0.848, 0.53, 165.242, 67.105)" fill="#3f3d56"/>
    <rect id="Rectangle_91" data-name="Rectangle 91" width="5.205" height="5.479" transform="matrix(-0.857, 0.515, -0.515, -0.857, 177.192, 37.886)" fill="#3f3d56"/>
    <rect id="Rectangle_92" data-name="Rectangle 92" width="5.205" height="5.479" transform="translate(182.285 80.288)" fill="#3f3d56"/>
    <rect id="Rectangle_93" data-name="Rectangle 93" width="5.205" height="5.479" transform="matrix(0.857, -0.515, 0.515, 0.857, 193.954, 78.85)" fill="#3f3d56"/>
    <rect id="Rectangle_94" data-name="Rectangle 94" width="5.205" height="5.479" transform="matrix(-0.857, -0.515, 0.515, -0.857, 174.369, 83.545)" fill="#3f3d56"/>
    <rect id="Rectangle_95" data-name="Rectangle 95" width="6.302" height="4.657" transform="translate(157.625 56.177)" fill="#3f3d56"/>
    <rect id="Rectangle_96" data-name="Rectangle 96" width="6.302" height="4.657" transform="translate(213.521 60.833) rotate(180)" fill="#3f3d56"/>
    <path id="Path_299" data-name="Path 299" d="M427.948,213.528h.629a17.808,17.808,0,1,1-.605,35.611c-.21,0-.419,0-.631,0a17.808,17.808,0,1,1,.608-35.611m0-4.4h0a22.206,22.206,0,1,0-.761,44.405c.259,0,.517.01.776.01a22.206,22.206,0,1,0,.758-44.405c-.259,0-.517-.01-.776-.01Z" transform="translate(-325.13 -174.338)" fill="#3f3d56"/>
    <rect id="Rectangle_97" data-name="Rectangle 97" width="5.205" height="5.479" transform="translate(100.49 29.507) rotate(1.99)" fill="#3f3d56"/>
    <rect id="Rectangle_98" data-name="Rectangle 98" width="5.205" height="5.479" transform="matrix(0.839, 0.544, -0.544, 0.839, 114.893, 32.227)" fill="#3f3d56"/>
    <rect id="Rectangle_99" data-name="Rectangle 99" width="5.205" height="5.479" transform="translate(125.664 41.579) rotate(62.99)" fill="#3f3d56"/>
    <rect id="Rectangle_100" data-name="Rectangle 100" width="5.205" height="5.479" transform="translate(127.388 69.494) rotate(123.99)" fill="#3f3d56"/>
    <rect id="Rectangle_101" data-name="Rectangle 101" width="5.205" height="5.479" transform="matrix(-0.515, 0.857, -0.857, -0.515, 85.809, 42.849)" fill="#3f3d56"/>
    <rect id="Rectangle_102" data-name="Rectangle 102" width="5.223" height="5.498" transform="translate(81.84 65.429) rotate(60.113)" fill="#3f3d56"/>
    <rect id="Rectangle_103" data-name="Rectangle 103" width="5.205" height="5.479" transform="translate(95.166 36.234) rotate(150.99)" fill="#3f3d56"/>
    <rect id="Rectangle_104" data-name="Rectangle 104" width="5.205" height="5.479" transform="translate(98.78 78.792) rotate(1.99)" fill="#3f3d56"/>
    <rect id="Rectangle_105" data-name="Rectangle 105" width="5.205" height="5.479" transform="translate(110.494 77.764) rotate(-29.01)" fill="#3f3d56"/>
    <rect id="Rectangle_106" data-name="Rectangle 106" width="5.205" height="5.479" transform="matrix(-0.839, -0.544, 0.544, -0.839, 90.763, 81.771)" fill="#3f3d56"/>
    <rect id="Rectangle_107" data-name="Rectangle 107" width="6.302" height="4.657" transform="translate(74.974 53.841) rotate(1.99)" fill="#3f3d56"/>
    <rect id="Rectangle_108" data-name="Rectangle 108" width="6.302" height="4.657" transform="translate(130.676 60.427) rotate(-178.01)" fill="#3f3d56"/>
    <path id="Path_300" data-name="Path 300" d="M258.083,731.716a5.344,5.344,0,0,0-1.834.572,4.31,4.31,0,0,0-1.6,2.152,18.638,18.638,0,0,0-1.071,6.726,14.463,14.463,0,0,0,.691,5.446,3.441,3.441,0,0,0,.913,1.425,3.249,3.249,0,0,0,1.25.605,3.41,3.41,0,0,0,2.929-.362,4.673,4.673,0,0,0,1.309-3.055,7.135,7.135,0,0,1,1.741-4.157c.833-.776,2.026-1.164,2.631-2.127.722-1.143.341-2.636-.119-3.909-.4-1.1-.988-3.34-2.142-3.9S259.284,731.5,258.083,731.716Z" transform="translate(-212.614 -561.162)" fill="#fbbebe"/>
    <path id="Path_301" data-name="Path 301" d="M427.574,748.66a8.654,8.654,0,0,1-1.811,3.34c-.517.59-1.151,1.306-.88,2.039a1.825,1.825,0,0,0,.481.644c3.793,3.712,9.1,5.518,14.363,6.175a.5.5,0,0,0,.259,0c.155-.07.191-.259.212-.432a5.468,5.468,0,0,0,0-1.656,4.954,4.954,0,0,0-2.486-2.9,7.765,7.765,0,0,1-2.923-2.553c-.776-1.438-.442-3.311-1.356-4.657a4.936,4.936,0,0,0-3.417-1.767c-.453-.07-1.415-.567-1.811-.336S427.711,748.21,427.574,748.66Z" transform="translate(-339.554 -572.686)" fill="#fbbebe"/>
    <path id="Path_302" data-name="Path 302" d="M248.755,731.883a.518.518,0,0,0-.458-.517,1.656,1.656,0,0,0-.748.1,10.929,10.929,0,0,1-1.811.331,13.008,13.008,0,0,0-2.176.259,2.458,2.458,0,0,0-1.684,1.294,3.206,3.206,0,0,0-.186,1.213,18.536,18.536,0,0,0,.564,4.711.409.409,0,0,0,.191.3c.091.036.2,0,.29.041a.383.383,0,0,1,.168.209,10.4,10.4,0,0,1,.655,3.146q.259,2.378.655,4.74a5.193,5.193,0,0,0,.952,2.587,4.254,4.254,0,0,0,2.724,1.247,19.191,19.191,0,0,0,6.406-.585,1.868,1.868,0,0,0,1.079-.484,1.206,1.206,0,0,0,.259-.856c-.049-1.056-1.019-1.811-1.9-2.39l-1.211-.815a.629.629,0,0,1-.212-.191.683.683,0,0,1-.06-.388l.078-1.552a4.445,4.445,0,0,0-3.881,2.408c-.168.334-.326.724-.675.854a.892.892,0,0,1-1.058-.639,2.783,2.783,0,0,1,.039-1.366c.709-3.8.543-7.7.975-11.541a2.628,2.628,0,0,1,.385-1.216C248.326,732.491,248.716,732.237,248.755,731.883Z" transform="translate(-203.803 -561.463)" fill="#3f3d56"/>
    <path id="Path_303" data-name="Path 303" d="M435.264,774.454c.178.295.455.517.621.823a.7.7,0,0,1-.135.924.911.911,0,0,1-.559.057,18.912,18.912,0,0,1-10.227-4.626,7.167,7.167,0,0,1-1.252-1.374c-.334-.517-.616-1.125-1.185-1.337a20.221,20.221,0,0,0-.517,4.5,3.2,3.2,0,0,0,.952,2.711,3.406,3.406,0,0,0,1.061.432l1.777.5a1.891,1.891,0,0,0,.983.1c.21-.057.4-.189.611-.228a1.511,1.511,0,0,1,.691.088l1.534.448a10.137,10.137,0,0,1,1.519.517c.437.207.843.479,1.27.709a15.2,15.2,0,0,0,2.222.9l2.7.937a9.526,9.526,0,0,0,2.3.59c.543.047,1.094,0,1.632.093.409.07.8.217,1.219.259a3.221,3.221,0,0,0,1.914-.567,1.73,1.73,0,0,0,.556-.494,1.954,1.954,0,0,0-.326-2,7.872,7.872,0,0,0-2.737-2.817c-.471-.259-.978-.45-1.462-.686-1.376-.667-2.419-1.783-3.72-2.546C435.476,771.644,434.684,773.5,435.264,774.454Z" transform="translate(-337.473 -589.309)" fill="#3f3d56"/>
    <path id="Path_304" data-name="Path 304" d="M272.963,333.142A11.189,11.189,0,0,1,268.187,335a19.269,19.269,0,0,1-2.7.145,68.761,68.761,0,0,1-11.243-.939,13.777,13.777,0,0,0,3.534-5.5,9.033,9.033,0,0,0,.168-3.446,25.793,25.793,0,0,0-1.05-4.339,30.061,30.061,0,0,0,4.752-.122c.9-.091,3.1-.911,3.881-.29.727.577.179,2.618.166,3.56v.1a11.456,11.456,0,0,0,.908,4.155A7.906,7.906,0,0,0,272.963,333.142Z" transform="translate(-213.106 -256.735)" fill="#fbbebe"/>
    <path id="Path_305" data-name="Path 305" d="M273.292,324.019a9.489,9.489,0,0,1-7.761,1.19,25.8,25.8,0,0,0-1.05-4.339,30.061,30.061,0,0,0,4.752-.122c.9-.091,3.1-.911,3.881-.29C273.853,321.036,273.3,323.078,273.292,324.019Z" transform="translate(-220.697 -256.698)" opacity="0.1"/>
    <circle id="Ellipse_24" data-name="Ellipse 24" cx="9.469" cy="9.469" r="9.469" transform="translate(37.942 49.486)" fill="#fbbebe"/>
    <path id="Path_306" data-name="Path 306" d="M293.376,388.806a4.4,4.4,0,0,1-2.134,3.8,8.435,8.435,0,0,1-2.328.815,45.952,45.952,0,0,1-13.215,1.632,7.28,7.28,0,0,1-2.8-.59,3,3,0,0,1-1.731-2.163,2.049,2.049,0,0,0-.137-.688,1.94,1.94,0,0,0-.657-.585,2.693,2.693,0,0,1-1-2.672c-.541.241-1.1-.3-1.358-.838s-.453-1.182-1-1.407a8.1,8.1,0,0,0-1.187-.166c-.624-.16-1-.776-1.444-1.237a11.226,11.226,0,0,0-3.345-2.046c-3.485-1.757-6.325-4.54-9.106-7.277a30.254,30.254,0,0,1-3.919-4.4c-.313-.458-.6-.929-.861-1.413a39.718,39.718,0,0,1-2.184-5,5.745,5.745,0,0,1-.564-2.846c.013-.088.031-.176.052-.259a5.446,5.446,0,0,1,.859-1.736,7.246,7.246,0,0,1,3.881-3.19c1.656-.435,3.309.091,4.99.448a12.711,12.711,0,0,0,1.695.259,15.8,15.8,0,0,0,5.27-.828l1.878-.517c.942-.259,1.413-1.4,2.365-1.6a3.319,3.319,0,0,1,1.275.065,17.594,17.594,0,0,1,5.58,1.824,9.2,9.2,0,0,1,1.084.737,6.859,6.859,0,0,1,2.52,3.723c.388,1.638.023,3.386.417,5.024a11.134,11.134,0,0,0,1.93,3.674l4.623,6.6a41.022,41.022,0,0,0,3.4,4.434C288.7,383.094,293.314,385.135,293.376,388.806Z" transform="translate(-205.791 -281.939)" fill="#6ca37a"/>
    <path id="Path_307" data-name="Path 307" d="M377.513,226.6a7.718,7.718,0,0,1,.833-2.628,6,6,0,0,1,1.224-1.294,8.187,8.187,0,0,1,2.623-1.64,3.277,3.277,0,0,1,2.973.344,3.957,3.957,0,0,1,1.306,2.735,6.732,6.732,0,0,1-.7,4.139c-.8,1.4-2.194,2.328-3.363,3.451a13.455,13.455,0,0,0-2.191,2.732,7.784,7.784,0,0,1-1,1.459,1.9,1.9,0,0,1-1.586.634,2.81,2.81,0,0,1-1.294-.758c-.479-.419-1.77-1.167-1.811-1.832-.031-.538.975-1.759,1.221-2.264A25.66,25.66,0,0,0,377.513,226.6Z" transform="translate(-302.274 -183.019)" fill="#fbbebe"/>
    <path id="Path_308" data-name="Path 308" d="M339.429,529.2c-1.19,2.2-2.494,4.336-3.555,6.6-.618,1.322-1.154,2.683-1.842,3.969-.75,1.4-1.674,2.706-2.458,4.093a46.989,46.989,0,0,0-4.09,11.321,22.55,22.55,0,0,1-8.061-2.846c-.168-.1-.329-.2-.484-.313a5.754,5.754,0,0,1-1.627-1.793c.939-3.552,1.9-7.164,3.816-10.3.624-1.035,1.338-1.979,1.979-2.988,1.86-2.923,2.243-6.613,4.367-9.35a1.606,1.606,0,0,0,0-1.9c-.246-.318-.636-.621-.564-1.014.054-.287.354-.546.238-.815-.054-.129-.186-.2-.29-.292-.362-.334-.316-.9-.347-1.392a6.73,6.73,0,0,0-1.552-3.34,2.07,2.07,0,0,0-.567-.611c-.191-.116-.419-.168-.611-.287-.678-.424-.629-1.413-.955-2.145-.424-.965-1.493-1.457-2.194-2.24-.893-1-1.12-2.385-2.07-3.257a2.591,2.591,0,0,0-.308-.259,15.952,15.952,0,0,1,.551,4.561c.091,5.275-1.229,10.736-.611,15.978.486,4.157-2.07,8.307-5.7,10.385a27.469,27.469,0,0,1-4.439,1.87c-2.274.8-4.54,1.635-6.77,2.566q-2.365.978-4.657,2.108a58.848,58.848,0,0,0-5.508,3.048,21.29,21.29,0,0,0-5.932,4.884,5.337,5.337,0,0,1-3.831-2.108,14.623,14.623,0,0,1-2.1-3.974,11.03,11.03,0,0,1-1-3.741.74.74,0,0,1,.45-.647L289.1,539.46l1.943-1.035c4.256-2.258,8.664-4.346,12.92-6.6.287.085.517-.241.6-.517s.145-.634.414-.758c.135-.065.31-.062.411-.176a.492.492,0,0,0,.072-.344c-.137-2.07-1.622-3.951-1.325-5.992a7.265,7.265,0,0,0,.38-2.587,11.29,11.29,0,0,0-.792-1.632c-.517-1.255,0-2.766-.559-3.995a9.235,9.235,0,0,1-.75-2.546,17.29,17.29,0,0,0-1.589-5.045,9.2,9.2,0,0,0-1.462-2.212c-.313-.336-.665-.636-.962-.986a8.191,8.191,0,0,1-1.493-3.881,18.709,18.709,0,0,1-.207-7.575,10.752,10.752,0,0,0,.484-2.551c-.013-1.146-.517-2.484.279-3.311a2.571,2.571,0,0,1,1.164-.6,35.127,35.127,0,0,1,5.635-1.035l8.68-1.136a7.882,7.882,0,0,0,2.887-.753,5.806,5.806,0,0,0,2.437-3.1c1.524,1.112,2.093,3.185,3.309,4.62.592.7,1.325,1.268,1.974,1.912a22.153,22.153,0,0,1,2.176,2.683,47.225,47.225,0,0,1,4.915,7.779c.675,1.449,1.2,2.96,1.736,4.463,2.119,5.917,5.573,11.533,7.006,17.649.352,1.5,1.265,2.846,1.407,4.375A8.357,8.357,0,0,1,339.429,529.2Z" transform="translate(-230.912 -375.943)" fill="#3f3d56"/>
    <path id="Path_309" data-name="Path 309" d="M338.081,472.829a2.664,2.664,0,0,0-.321,1.281c.194-.957,1.511-1.488,1.6-2.434.039-.437-.041-.417-.31-.186C338.637,471.843,338.458,472.453,338.081,472.829Z" transform="translate(-275.019 -368.706)" opacity="0.1"/>
    <path id="Path_310" data-name="Path 310" d="M352.2,487.493a1.974,1.974,0,0,0-.6.887,2.251,2.251,0,0,0-.122,1.552c.194-.091.259-.329.318-.536a3.737,3.737,0,0,1,.411-.916c.155-.259.872-.836.869-1.107C353.069,486.957,352.391,487.346,352.2,487.493Z" transform="translate(-285.125 -380.462)" opacity="0.1"/>
    <path id="Path_311" data-name="Path 311" d="M270.819,356.854a9.763,9.763,0,0,1-2,1.33c-1.876.949-3.953,1.451-5.842,2.372a28.924,28.924,0,0,0-2.711,1.581l-5.614,3.557a6.021,6.021,0,0,0-1.237.939c-.675.719-.673,1.984-1.294,2.755a3.789,3.789,0,0,1-2.724,1.257,8.85,8.85,0,0,1-3.035-.517,15.755,15.755,0,0,1-1.733-.631,8.169,8.169,0,0,1-1.666-.952,4.754,4.754,0,0,1-1.961-3.1,6.132,6.132,0,0,1,.334-2.53,9.712,9.712,0,0,1,.6-1.534,6.177,6.177,0,0,1,.476-.807c1.294-1.826,3.562-2.683,5.759-3.1,1.154-.225,2.328-.362,3.5-.559a12.721,12.721,0,0,0,1.695.259,15.8,15.8,0,0,0,5.27-.828l1.878-.517c.942-.259,1.413-1.4,2.365-1.6a3.318,3.318,0,0,1,1.275.065,17.594,17.594,0,0,1,5.58,1.824A9.2,9.2,0,0,1,270.819,356.854Z" transform="translate(-203.282 -281.872)" opacity="0.1"/>
    <path id="Path_312" data-name="Path 312" d="M275.394,267.35c-.241,2.29-2.173,3.971-3.363,5.95-.572.96-.973,2.013-1.488,3.006a29.8,29.8,0,0,1-1.966,3.13l-2.1,3.053a31.583,31.583,0,0,1-4.067,5.109c-2.755.468-5.065,2.515-7.678,3.508-2.09.794-4.37.9-6.563,1.33s-4.468,1.294-5.756,3.1a8.125,8.125,0,0,0-1.076,2.328A6.033,6.033,0,0,0,241,300.4a4.8,4.8,0,0,0,1.958,3.1,10.836,10.836,0,0,0,3.4,1.583,8.912,8.912,0,0,0,3.035.517,3.692,3.692,0,0,0,2.727-1.257c.642-.807.611-2.036,1.294-2.755a6.039,6.039,0,0,1,1.239-.939l5.614-3.557a28.931,28.931,0,0,1,2.709-1.57c1.889-.924,3.966-1.423,5.842-2.372s3.622-2.517,4-4.587c1.143-6.359,5.544-11.719,9.313-16.971-.124-.026-.085-.308-.132-.427a5.421,5.421,0,0,0-2.758-2.779A16.316,16.316,0,0,0,275.394,267.35Z" transform="translate(-203.277 -217.499)" fill="#6ca37a"/>
    <path id="Path_313" data-name="Path 313" d="M226.42,254.918a3.508,3.508,0,0,0-.391-2,4.472,4.472,0,0,0-3.1-1.643q-1.7-.349-3.425-.6a7.732,7.732,0,0,0-2.833-.047,19.16,19.16,0,0,0-3.544,1.671,24.2,24.2,0,0,1-4.494,1.146,6.842,6.842,0,0,0-4,2.168,7.5,7.5,0,0,0-1.221,3.28c-1.793,9.673.137,19.594.5,29.425.142,3.826-.031,7.916-2.217,11.06l6.367-.168c1.63-.041,3.381-.127,4.657-1.133a7.731,7.731,0,0,0,2.145-3.661,11.326,11.326,0,0,0,.812-3.275c.1-2.31-1.211-4.579-.776-6.853a7.638,7.638,0,0,1,2.874-4.183,25.07,25.07,0,0,0,3.86-3.436c1.909-2.414,2.274-5.712,2.036-8.778a33.474,33.474,0,0,1-.31-5.472,6.9,6.9,0,0,1,1.444-3.834A5.349,5.349,0,0,0,226.42,254.918Z" transform="translate(-174.151 -205.02)" fill="#3f3d56"/>
    <path id="Path_314" data-name="Path 314" d="M225.992,255.14a4.4,4.4,0,0,0-3.053-1.63,3.008,3.008,0,0,1,1.511,1.19,3.487,3.487,0,0,1,.391,2,5.324,5.324,0,0,1-1.632,3.671,6.892,6.892,0,0,0-1.444,3.834,33.473,33.473,0,0,0,.31,5.472c.238,3.066-.127,6.364-2.033,8.778a25.451,25.451,0,0,1-3.86,3.436,7.628,7.628,0,0,0-2.877,4.183c-.427,2.274.885,4.543.776,6.853a11.332,11.332,0,0,1-.815,3.275,7.7,7.7,0,0,1-2.145,3.658c-1.294,1.006-3.035,1.094-4.657,1.136l-4.509.119c-.1.166-.2.331-.316.489l6.367-.168c1.63-.041,3.381-.127,4.657-1.133a7.73,7.73,0,0,0,2.145-3.661,11.326,11.326,0,0,0,.812-3.275c.1-2.31-1.211-4.579-.776-6.853a7.638,7.638,0,0,1,2.874-4.183,25.071,25.071,0,0,0,3.86-3.436c1.909-2.414,2.274-5.712,2.036-8.778a33.466,33.466,0,0,1-.31-5.472,6.9,6.9,0,0,1,1.444-3.834,5.281,5.281,0,0,0,1.632-3.671A3.508,3.508,0,0,0,225.992,255.14Z" transform="translate(-174.114 -207.239)" opacity="0.1"/>
    <path id="Path_315" data-name="Path 315" d="M442.523,590.932l-11.686,28.5a5.754,5.754,0,0,1-1.627-1.793c.939-3.552,1.9-7.164,3.816-10.3.624-1.035,1.338-1.979,1.979-2.988,1.86-2.923,2.243-6.613,4.367-9.35a1.607,1.607,0,0,0,0-1.9c-.246-.318-.636-.621-.564-1.014.054-.287.354-.546.238-.815-.054-.129-.186-.2-.29-.292-.362-.334-.316-.9-.347-1.392a6.73,6.73,0,0,0-1.552-3.34,2.07,2.07,0,0,0-.567-.611c-.191-.116-.419-.168-.611-.287-.678-.424-.629-1.413-.955-2.145-.424-.965-1.493-1.457-2.194-2.24-.893-1-1.12-2.385-2.07-3.257l-.08-.2.911-5.5Z" transform="translate(-342.81 -443.334)" opacity="0.1"/>
  </g>
</svg>
